0
SECTION
2
HEADER
9
$INSUNITS
70
4
9
$ACADVER
1
AC1014
9
$HANDSEED
5
FFFF
0
ENDSEC
0
SECTION
2
TABLES
0
TABLE
2
VPORT
5
8
100
AcDbSymbolTable
0
ENDTAB
0
TABLE
2
LTYPE
5
5
100
AcDbSymbolTable
0
LTYPE
5
14
100
AcDbSymbolTableRecord
100
AcDbLinetypeTableRecord
2
BYBLOCK
70
0
0
LTYPE
5
15
100
AcDbSymbolTableRecord
100
AcDbLinetypeTableRecord
2
BYLAYER
70
0
0
ENDTAB
0
TABLE
2
LAYER
5
2
100
AcDbSymbolTable
70
2
0
LAYER
5
50
100
AcDbSymbolTableRecord
100
AcDbLayerTableRecord
2
0
70
0
6
CONTINUOUS
0
ENDTAB
0
TABLE
2
STYLE
5
3
100
AcDbSymbolTable
70
1
0
STYLE
5
11
100
AcDbSymbolTableRecord
100
AcDbTextStyleTableRecord
2
STANDARD
70
0
0
ENDTAB
0
TABLE
2
VIEW
5
6
100
AcDbSymbolTable
70
0
0
ENDTAB
0
TABLE
2
UCS
5
7
100
AcDbSymbolTable
70
0
0
ENDTAB
0
TABLE
2
APPID
5
9
100
AcDbSymbolTable
70
2
0
APPID
5
12
100
AcDbSymbolTableRecord
100
AcDbRegAppTableRecord
2
ACAD
70
0
0
ENDTAB
0
TABLE
2
DIMSTYLE
5
A
100
AcDbSymbolTable
70
1
0
ENDTAB
0
TABLE
2
BLOCK_RECORD
5
1
100
AcDbSymbolTable
70
1
0
BLOCK_RECORD
5
1F
100
AcDbSymbolTableRecord
100
AcDbBlockTableRecord
2
*MODEL_SPACE
0
BLOCK_RECORD
5
1B
100
AcDbSymbolTableRecord
100
AcDbBlockTableRecord
2
*PAPER_SPACE
0
ENDTAB
0
ENDSEC
0
SECTION
2
BLOCKS
0
BLOCK
5
20
100
AcDbEntity
100
AcDbBlockBegin
2
*MODEL_SPACE
0
ENDBLK
5
21
100
AcDbEntity
100
AcDbBlockEnd
0
BLOCK
5
1C
100
AcDbEntity
100
AcDbBlockBegin
2
*PAPER_SPACE
0
ENDBLK
5
1D
100
AcDbEntity
100
AcDbBlockEnd
0
ENDSEC
0
SECTION
2
ENTITIES
0
CIRCLE
5
100
100
AcDbEntity
8
0
100
AcDbCircle
10
51.049999999999997
20
15.100000000000001
30
0
40
1.2999999999999989
0
CIRCLE
5
101
100
AcDbEntity
8
0
100
AcDbCircle
10
15.049999999999999
20
15.100000000000001
30
0
40
1.2999999999999989
0
CIRCLE
5
102
100
AcDbEntity
8
0
100
AcDbCircle
10
13.880000000000001
20
30.910000000000004
30
0
40
1.5549999999999997
0
LWPOLYLINE
5
103
100
AcDbEntity
8
0
100
AcDbPolyline
90
17
70
1
43
0.0
10
97.999999999999986
20
29.860000000000003
10
97.999999999999986
20
26.060000000000002
10
94.279999999999987
20
26.060000000000002
42
0.99999999999999989
10
94.279999999999987
20
20.150000000000002
10
97.999999999999986
20
20.150000000000002
10
97.999999999999986
20
0
10
1.6500000000000001
20
0
10
1.6500000000000001
20
15.859999999999999
10
0
20
15.859999999999999
10
0
20
27.490000000000006
10
5.8100000000000023
20
27.490000000000006
42
0.4142135623730947
10
7.8100000000000005
20
29.490000000000009
10
7.8100000000000058
20
35.200000000000003
10
97.999999999999986
20
35.200000000000003
10
97.999999999999986
20
31.780000000000005
10
95.659999999999997
20
31.780000000000005
42
0.99999999999999989
10
95.659999999999997
20
29.860000000000003
0
LINE
5
104
100
AcDbEntity
8
0
100
AcDbLine
10
7.8100000000000058
20
35.200000000000003
30
0
11
97.999999999999986
21
35.200000000000003
31
0
0
LINE
5
105
100
AcDbEntity
8
0
100
AcDbLine
10
97.999999999999986
20
35.200000000000003
30
0
11
97.999999999999986
21
31.780000000000005
31
0
0
LINE
5
106
100
AcDbEntity
8
0
100
AcDbLine
10
97.999999999999986
20
31.780000000000005
30
0
11
95.659999999999997
21
31.780000000000005
31
0
0
ARC
5
107
100
AcDbEntity
8
0
100
AcDbCircle
10
95.659999999999997
20
30.820000000000004
30
0
40
0.96000000000000085
100
AcDbArc
50
90
51
270
0
LINE
5
108
100
AcDbEntity
8
0
100
AcDbLine
10
95.659999999999997
20
29.860000000000003
30
0
11
97.999999999999986
21
29.860000000000003
31
0
0
LINE
5
109
100
AcDbEntity
8
0
100
AcDbLine
10
97.999999999999986
20
29.860000000000003
30
0
11
97.999999999999986
21
26.060000000000002
31
0
0
LINE
5
110
100
AcDbEntity
8
0
100
AcDbLine
10
97.999999999999986
20
26.060000000000002
30
0
11
94.279999999999987
21
26.060000000000002
31
0
0
ARC
5
111
100
AcDbEntity
8
0
100
AcDbCircle
10
94.279999999999987
20
23.105000000000004
30
0
40
2.955000000000001
100
AcDbArc
50
90
51
270
0
LINE
5
112
100
AcDbEntity
8
0
100
AcDbLine
10
94.279999999999987
20
20.150000000000002
30
0
11
97.999999999999986
21
20.150000000000002
31
0
0
LINE
5
113
100
AcDbEntity
8
0
100
AcDbLine
10
97.999999999999986
20
20.150000000000002
30
0
11
97.999999999999986
21
0
31
0
0
LINE
5
114
100
AcDbEntity
8
0
100
AcDbLine
10
97.999999999999986
20
0
30
0
11
1.6500000000000001
21
0
31
0
0
LINE
5
115
100
AcDbEntity
8
0
100
AcDbLine
10
1.6500000000000001
20
0
30
0
11
1.6500000000000001
21
15.859999999999999
31
0
0
LINE
5
116
100
AcDbEntity
8
0
100
AcDbLine
10
1.6500000000000001
20
15.859999999999999
30
0
11
0
21
15.859999999999999
31
0
0
LINE
5
117
100
AcDbEntity
8
0
100
AcDbLine
10
0
20
15.859999999999999
30
0
11
0
21
20.599999539554119
31
0
0
LINE
5
118
100
AcDbEntity
8
0
100
AcDbLine
10
0
20
20.599999539554119
30
0
11
-1.3753792337129038
21
20.599999539554119
31
0
0
LINE
5
119
100
AcDbEntity
8
0
100
AcDbLine
10
-1.3753792337129038
20
20.599999539554119
30
0
11
-1.3753792337129038
21
22.772132598288461
31
0
0
LINE
5
120
100
AcDbEntity
8
0
100
AcDbLine
10
-1.3753792337129038
20
22.772132598288461
30
0
11
0
21
22.772132598288461
31
0
0
LINE
5
121
100
AcDbEntity
8
0
100
AcDbLine
10
0
20
22.772132598288461
30
0
11
0
21
27.490000000000006
31
0
0
LINE
5
122
100
AcDbEntity
8
0
100
AcDbLine
10
0
20
27.490000000000006
30
0
11
5.8100000000000023
21
27.490000000000006
31
0
0
ARC
5
123
100
AcDbEntity
8
0
100
AcDbCircle
10
5.8100000000000023
20
29.490000000000002
30
0
40
1.9999999999999973
100
AcDbArc
50
-90
51
0
0
LINE
5
124
100
AcDbEntity
8
0
100
AcDbLine
10
7.8100000000000005
20
29.490000000000009
30
0
11
7.8100000000000058
21
35.200000000000003
31
0
0
CIRCLE
5
125
100
AcDbEntity
8
0
100
AcDbCircle
10
13.880000000000001
20
30.910000000000004
30
0
40
1.5550000000000017
0
CIRCLE
5
126
100
AcDbEntity
8
0
100
AcDbCircle
10
15.049999999999999
20
15.100000000000001
30
0
40
1.2999999999999987
0
CIRCLE
5
127
100
AcDbEntity
8
0
100
AcDbCircle
10
51.049999999999997
20
15.100000000000001
30
0
40
1.2999999999999989
0
LWPOLYLINE
5
128
100
AcDbEntity
8
0
100
AcDbPolyline
90
4
70
1
43
0.0
10
23.899999465793371
20
33.099999260157347
10
22.299999501556158
20
33.099999260157347
10
22.299999501556158
20
32.29999927803874
10
23.899999465793371
20
32.29999927803874
0
LWPOLYLINE
5
129
100
AcDbEntity
8
0
100
AcDbPolyline
90
4
70
1
43
0.0
10
39.899999108165503
20
33.099999260157347
10
38.299999143928289
20
33.099999260157347
10
38.299999143928289
20
32.29999927803874
10
39.899999108165503
20
32.29999927803874
0
LWPOLYLINE
5
130
100
AcDbEntity
8
0
100
AcDbPolyline
90
4
70
1
43
0.0
10
55.899998750537634
20
33.099999260157347
10
54.299998786300421
20
33.099999260157347
10
54.299998786300421
20
32.29999927803874
10
55.899998750537634
20
32.29999927803874
0
LWPOLYLINE
5
131
100
AcDbEntity
8
0
100
AcDbPolyline
90
4
70
1
43
0.0
10
4.3999999016523361
20
11.349999746307731
10
2.799999937415123
20
11.349999746307731
10
2.799999937415123
20
9.7999997809529305
10
4.3999999016523361
20
9.7999997809529305
0
LWPOLYLINE
5
132
100
AcDbEntity
8
0
100
AcDbPolyline
90
4
70
1
43
0.0
10
43.31159141280316
20
8.1991049590918337
10
14.828502617178298
20
8.1991049590918337
10
14.828502617178296
20
2.6770589789600052
10
43.31159141280316
20
2.6770589789600052
0
ENDSEC
0
SECTION
2
OBJECTS
0
DICTIONARY
5
C
100
AcDbDictionary
3
ACAD_GROUP
350
D
3
ACAD_MLINESTYLE
350
17
0
DICTIONARY
5
D
100
AcDbDictionary
0
DICTIONARY
5
1A
330
C
100
AcDbDictionary
0
DICTIONARY
5
17
100
AcDbDictionary
0
ENDSEC
0
EOF
