  0
SECTION
  2
HEADER
  9
$ACADVER
  1
AC1021
  9
$ACADMAINTVER
 70
    25
  9
$DWGCODEPAGE
  3
ANSI_1252
  9
$LASTSAVEDBY
  1
quangvuz
  9
$INSBASE
 10
0.0
 20
0.0
 30
0.0
  9
$EXTMIN
 10
0.0950845999999999
 20
0.0799263999999997
 30
0.0
  9
$EXTMAX
 10
309.658
 20
123.905
 30
0.0
  9
$LIMMIN
 10
0.0
 20
0.0
  9
$LIMMAX
 10
12.0
 20
9.0
  9
$ORTHOMODE
 70
     0
  9
$REGENMODE
 70
     1
  9
$FILLMODE
 70
     0
  9
$QTEXTMODE
 70
     0
  9
$MIRRTEXT
 70
     1
  9
$LTSCALE
 40
1.0
  9
$ATTMODE
 70
     1
  9
$TEXTSIZE
 40
0.2
  9
$TRACEWID
 40
0.05
  9
$TEXTSTYLE
  7
Standard
  9
$CLAYER
  8
0
  9
$CELTYPE
  6
ByBlock
  9
$CECOLOR
 62
   256
  9
$CELTSCALE
 40
1.0
  9
$DISPSILH
 70
     0
  9
$DIMSCALE
 40
1.0
  9
$DIMASZ
 40
0.18
  9
$DIMEXO
 40
0.0625
  9
$DIMDLI
 40
0.38
  9
$DIMRND
 40
0.0
  9
$DIMDLE
 40
0.0
  9
$DIMEXE
 40
0.18
  9
$DIMTP
 40
0.0
  9
$DIMTM
 40
0.0
  9
$DIMTXT
 40
0.18
  9
$DIMCEN
 40
0.09
  9
$DIMTSZ
 40
0.0
  9
$DIMTOL
 70
     0
  9
$DIMLIM
 70
     0
  9
$DIMTIH
 70
     1
  9
$DIMTOH
 70
     1
  9
$DIMSE1
 70
     0
  9
$DIMSE2
 70
     0
  9
$DIMTAD
 70
     0
  9
$DIMZIN
 70
     0
  9
$DIMBLK
  1

  9
$DIMASO
 70
     1
  9
$DIMSHO
 70
     1
  9
$DIMPOST
  1

  9
$DIMAPOST
  1

  9
$DIMALT
 70
     0
  9
$DIMALTD
 70
     2
  9
$DIMALTF
 40
25.4
  9
$DIMLFAC
 40
1.0
  9
$DIMTOFL
 70
     0
  9
$DIMTVP
 40
0.0
  9
$DIMTIX
 70
     0
  9
$DIMSOXD
 70
     0
  9
$DIMSAH
 70
     0
  9
$DIMBLK1
  1

  9
$DIMBLK2
  1

  9
$DIMSTYLE
  2
Standard
  9
$DIMCLRD
 70
     0
  9
$DIMCLRE
 70
     0
  9
$DIMCLRT
 70
     0
  9
$DIMTFAC
 40
1.0
  9
$DIMGAP
 40
0.09
  9
$DIMJUST
 70
     0
  9
$DIMSD1
 70
     0
  9
$DIMSD2
 70
     0
  9
$DIMTOLJ
 70
     1
  9
$DIMTZIN
 70
     0
  9
$DIMALTZ
 70
     0
  9
$DIMALTTZ
 70
     0
  9
$DIMUPT
 70
     0
  9
$DIMDEC
 70
     4
  9
$DIMTDEC
 70
     4
  9
$DIMALTU
 70
     2
  9
$DIMALTTD
 70
     2
  9
$DIMTXSTY
  7
Standard
  9
$DIMAUNIT
 70
     0
  9
$DIMADEC
 70
     0
  9
$DIMALTRND
 40
0.0
  9
$DIMAZIN
 70
     0
  9
$DIMDSEP
 70
    46
  9
$DIMATFIT
 70
     3
  9
$DIMFRAC
 70
     0
  9
$DIMLDRBLK
  1

  9
$DIMLUNIT
 70
     2
  9
$DIMLWD
 70
    -2
  9
$DIMLWE
 70
    -2
  9
$DIMTMOVE
 70
     2
  9
$DIMFXL
 40
1.0
  9
$DIMFXLON
 70
     0
  9
$DIMJOGANG
 40
0.7853981633974483
  9
$DIMTFILL
 70
     0
  9
$DIMTFILLCLR
 70
     0
  9
$DIMARCSYM
 70
     0
  9
$DIMLTYPE
  6

  9
$DIMLTEX1
  6

  9
$DIMLTEX2
  6

  9
$LUNITS
 70
     2
  9
$LUPREC
 70
     4
  9
$SKETCHINC
 40
0.1
  9
$FILLETRAD
 40
0.5
  9
$AUNITS
 70
     0
  9
$AUPREC
 70
     0
  9
$MENU
  1
.
  9
$ELEVATION
 40
0.0
  9
$PELEVATION
 40
0.0
  9
$THICKNESS
 40
0.0
  9
$LIMCHECK
 70
     0
  9
$CHAMFERA
 40
0.0
  9
$CHAMFERB
 40
0.0
  9
$CHAMFERC
 40
0.0
  9
$CHAMFERD
 40
0.0
  9
$SKPOLY
 70
     0
  9
$TDCREATE
 40
2458421.514513924
  9
$TDUCREATE
 40
2458421.222847257
  9
$TDUPDATE
 40
2458421.54684066
  9
$TDUUPDATE
 40
2458421.255173993
  9
$TDINDWG
 40
0.0000000694
  9
$TDUSRTIMER
 40
0.0001806944
  9
$USRTIMER
 70
     1
  9
$ANGBASE
 50
0.0
  9
$ANGDIR
 70
     0
  9
$PDMODE
 70
     0
  9
$PDSIZE
 40
0.0
  9
$PLINEWID
 40
0.0
  9
$SPLFRAME
 70
     1
  9
$SPLINETYPE
 70
     6
  9
$SPLINESEGS
 70
     8
  9
$HANDSEED
  5
66E
  9
$SURFTAB1
 70
     6
  9
$SURFTAB2
 70
     6
  9
$SURFTYPE
 70
     6
  9
$SURFU
 70
     6
  9
$SURFV
 70
     6
  9
$UCSBASE
  2

  9
$UCSNAME
  2

  9
$UCSORG
 10
0.0
 20
0.0
 30
0.0
  9
$UCSXDIR
 10
1.0
 20
0.0
 30
0.0
  9
$UCSYDIR
 10
0.0
 20
1.0
 30
0.0
  9
$UCSORTHOREF
  2

  9
$UCSORTHOVIEW
 70
     0
  9
$UCSORGTOP
 10
0.0
 20
0.0
 30
0.0
  9
$UCSORGBOTTOM
 10
0.0
 20
0.0
 30
0.0
  9
$UCSORGLEFT
 10
0.0
 20
0.0
 30
0.0
  9
$UCSORGRIGHT
 10
0.0
 20
0.0
 30
0.0
  9
$UCSORGFRONT
 10
0.0
 20
0.0
 30
0.0
  9
$UCSORGBACK
 10
0.0
 20
0.0
 30
0.0
  9
$PUCSBASE
  2

  9
$PUCSNAME
  2

  9
$PUCSORG
 10
0.0
 20
0.0
 30
0.0
  9
$PUCSXDIR
 10
1.0
 20
0.0
 30
0.0
  9
$PUCSYDIR
 10
0.0
 20
1.0
 30
0.0
  9
$PUCSORTHOREF
  2

  9
$PUCSORTHOVIEW
 70
     0
  9
$PUCSORGTOP
 10
0.0
 20
0.0
 30
0.0
  9
$PUCSORGBOTTOM
 10
0.0
 20
0.0
 30
0.0
  9
$PUCSORGLEFT
 10
0.0
 20
0.0
 30
0.0
  9
$PUCSORGRIGHT
 10
0.0
 20
0.0
 30
0.0
  9
$PUCSORGFRONT
 10
0.0
 20
0.0
 30
0.0
  9
$PUCSORGBACK
 10
0.0
 20
0.0
 30
0.0
  9
$USERI1
 70
     0
  9
$USERI2
 70
     0
  9
$USERI3
 70
     0
  9
$USERI4
 70
     0
  9
$USERI5
 70
     0
  9
$USERR1
 40
0.0
  9
$USERR2
 40
0.0
  9
$USERR3
 40
0.0
  9
$USERR4
 40
0.0
  9
$USERR5
 40
0.0
  9
$WORLDVIEW
 70
     1
  9
$SHADEDGE
 70
     3
  9
$SHADEDIF
 70
    70
  9
$TILEMODE
 70
     1
  9
$MAXACTVP
 70
    64
  9
$PINSBASE
 10
0.0
 20
0.0
 30
0.0
  9
$PLIMCHECK
 70
     0
  9
$PEXTMIN
 10
1.000000000000000E+20
 20
1.000000000000000E+20
 30
1.000000000000000E+20
  9
$PEXTMAX
 10
-1.000000000000000E+20
 20
-1.000000000000000E+20
 30
-1.000000000000000E+20
  9
$PLIMMIN
 10
0.0
 20
0.0
  9
$PLIMMAX
 10
0.0
 20
0.0
  9
$UNITMODE
 70
     0
  9
$VISRETAIN
 70
     1
  9
$PLINEGEN
 70
     0
  9
$PSLTSCALE
 70
     1
  9
$TREEDEPTH
 70
  3020
  9
$CMLSTYLE
  2
Standard
  9
$CMLJUST
 70
     0
  9
$CMLSCALE
 40
1.0
  9
$PROXYGRAPHICS
 70
     1
  9
$MEASUREMENT
 70
     0
  9
$CELWEIGHT
370
    -1
  9
$ENDCAPS
280
     0
  9
$JOINSTYLE
280
     0
  9
$LWDISPLAY
290
     0
  9
$INSUNITS
 70
     0
  9
$HYPERLINKBASE
  1

  9
$STYLESHEET
  1

  9
$XEDIT
290
     1
  9
$CEPSNTYPE
380
     0
  9
$PSTYLEMODE
290
     1
  9
$FINGERPRINTGUID
  2
{7f104073-d231-4ff6-b3ce-71a68fec7b86}
  9
$VERSIONGUID
  2
{FAEB1C32-E019-11D5-929B-00C0DF256EC4}
  9
$EXTNAMES
290
     1
  9
$PSVPSCALE
 40
0.0
  9
$OLESTARTUP
290
     0
  9
$SORTENTS
280
   127
  9
$INDEXCTL
280
     0
  9
$HIDETEXT
280
     1
  9
$XCLIPFRAME
290
     0
  9
$HALOGAP
280
     0
  9
$OBSCOLOR
 70
   257
  9
$OBSLTYPE
280
     0
  9
$INTERSECTIONDISPLAY
280
     0
  9
$INTERSECTIONCOLOR
 70
   257
  9
$DIMASSOC
280
     2
  9
$PROJECTNAME
  1

  9
$CAMERADISPLAY
290
     0
  9
$LENSLENGTH
 40
50.0
  9
$CAMERAHEIGHT
 40
0.0
  9
$STEPSPERSEC
 40
2.0
  9
$STEPSIZE
 40
6.0
  9
$3DDWFPREC
 40
2.0
  9
$PSOLWIDTH
 40
0.25
  9
$PSOLHEIGHT
 40
4.0
  9
$LOFTANG1
 40
1.570796326794897
  9
$LOFTANG2
 40
1.570796326794897
  9
$LOFTMAG1
 40
0.0
  9
$LOFTMAG2
 40
0.0
  9
$LOFTPARAM
 70
     7
  9
$LOFTNORMALS
280
     1
  9
$LATITUDE
 40
37.795
  9
$LONGITUDE
 40
-122.394
  9
$NORTHDIRECTION
 40
0.0
  9
$TIMEZONE
 70
 -8000
  9
$LIGHTGLYPHDISPLAY
280
     1
  9
$TILEMODELIGHTSYNCH
280
     1
  9
$SOLIDHIST
280
     0
  9
$SHOWHIST
280
     1
  9
$DWFFRAME
280
     2
  9
$DGNFRAME
280
     2
  9
$REALWORLDSCALE
290
     1
  9
$INTERFERECOLOR
 62
   256
  9
$CSHADOW
280
     0
  9
$SHADOWPLANELOCATION
 40
0.0
  0
ENDSEC
  0
SECTION
  2
CLASSES
  0
CLASS
  1
ACDBDICTIONARYWDFLT
  2
AcDbDictionaryWithDefault
  3
ObjectDBX Classes
 90
        0
 91
        4
280
     0
281
     0
  0
CLASS
  1
MATERIAL
  2
AcDbMaterial
  3
ObjectDBX Classes
 90
     1153
 91
        4
280
     0
281
     0
  0
CLASS
  1
SCALE
  2
AcDbScale
  3
ObjectDBX Classes
 90
     1153
 91
        4
280
     0
281
     0
  0
CLASS
  1
VISUALSTYLE
  2
AcDbVisualStyle
  3
ObjectDBX Classes
 90
     4095
 91
        4
280
     0
281
     0
  0
CLASS
  1
TABLESTYLE
  2
AcDbTableStyle
  3
ObjectDBX Classes
 90
     4095
 91
        4
280
     0
281
     0
  0
CLASS
  1
MLEADERSTYLE
  2
AcDbMLeaderStyle
  3
ACDB_MLEADERSTYLE_CLASS
 90
     4095
 91
        4
280
     0
281
     0
  0
CLASS
  1
DICTIONARYVAR
  2
AcDbDictionaryVar
  3
ObjectDBX Classes
 90
        0
 91
        4
280
     0
281
     0
  0
CLASS
  1
CELLSTYLEMAP
  2
AcDbCellStyleMap
  3
ObjectDBX Classes
 90
     1152
 91
        4
280
     0
281
     0
  0
ENDSEC
  0
SECTION
  2
TABLES
  0
TABLE
  2
VPORT
  5
8
330
0
100
AcDbSymbolTable
 70
     1
  0
VPORT
  5
26
330
8
100
AcDbSymbolTableRecord
100
AcDbViewportTableRecord
  2
*Active
 70
     0
 10
0.0
 20
0.0
 11
1.0
 21
1.0
 12
92.08230429207823
 22
60.16701923187981
 13
0.0
 23
0.0
 14
0.5
 24
0.5
 15
0.5
 25
0.5
 16
0.0
 26
0.0
 36
1.0
 17
0.0
 27
0.0
 37
0.0
 40
182.5615569297226
 41
1.769230769230769
 42
50.0
 43
0.0
 44
0.0
 50
0.0
 51
0.0
 71
    16
 72
   100
 73
     1
 74
     3
 75
     0
 76
     0
 77
     0
 78
     0
281
     0
 65
     1
110
0.0
120
0.0
130
0.0
111
1.0
121
0.0
131
0.0
112
0.0
122
1.0
132
0.0
 79
     0
146
0.0
348
1B2
 60
     3
 61
     5
292
     1
282
     1
141
0.0
142
0.0
 63
   250
  0
ENDTAB
  0
TABLE
  2
LTYPE
  5
5
330
0
100
AcDbSymbolTable
 70
     1
  0
LTYPE
  5
14
330
5
100
AcDbSymbolTableRecord
100
AcDbLinetypeTableRecord
  2
ByBlock
 70
     0
  3

 72
    65
 73
     0
 40
0.0
  0
LTYPE
  5
15
330
5
100
AcDbSymbolTableRecord
100
AcDbLinetypeTableRecord
  2
ByLayer
 70
     0
  3

 72
    65
 73
     0
 40
0.0
  0
LTYPE
  5
16
330
5
100
AcDbSymbolTableRecord
100
AcDbLinetypeTableRecord
  2
Continuous
 70
     0
  3
Solid line
 72
    65
 73
     0
 40
0.0
  0
ENDTAB
  0
TABLE
  2
LAYER
  5
2
330
0
100
AcDbSymbolTable
 70
     1
  0
LAYER
  5
10
330
2
100
AcDbSymbolTableRecord
100
AcDbLayerTableRecord
  2
0
 70
     0
 62
     7
  6
Continuous
370
    -3
390
F
347
24
  0
ENDTAB
  0
TABLE
  2
STYLE
  5
3
330
0
100
AcDbSymbolTable
 70
     1
  0
STYLE
  5
11
330
3
100
AcDbSymbolTableRecord
100
AcDbTextStyleTableRecord
  2
Standard
 70
     0
 40
0.0
 41
1.0
 50
0.0
 71
     0
 42
0.2
  3
txt
  4

  0
ENDTAB
  0
TABLE
  2
VIEW
  5
6
330
0
100
AcDbSymbolTable
 70
     0
  0
ENDTAB
  0
TABLE
  2
UCS
  5
7
330
0
100
AcDbSymbolTable
 70
     0
  0
ENDTAB
  0
TABLE
  2
APPID
  5
9
330
0
100
AcDbSymbolTable
 70
     2
  0
APPID
  5
12
330
9
100
AcDbSymbolTableRecord
100
AcDbRegAppTableRecord
  2
ACAD
 70
     0
  0
APPID
  5
66C
330
9
100
AcDbSymbolTableRecord
100
AcDbRegAppTableRecord
  2
ACAD_MLEADERVER
 70
     0
  0
ENDTAB
  0
TABLE
  2
DIMSTYLE
  5
A
330
0
100
AcDbSymbolTable
 70
     1
100
AcDbDimStyleTable
  0
DIMSTYLE
105
25
330
A
100
AcDbSymbolTableRecord
100
AcDbDimStyleTableRecord
  2
Standard
 70
     0
178
     0
340
11
  0
ENDTAB
  0
TABLE
  2
BLOCK_RECORD
  5
1
330
0
100
AcDbSymbolTable
 70
     0
  0
BLOCK_RECORD
  5
1D
330
1
100
AcDbSymbolTableRecord
100
AcDbBlockTableRecord
  2
*Model_Space
340
1E
 70
     0
280
     1
281
     0
  0
BLOCK_RECORD
  5
1B
330
1
100
AcDbSymbolTableRecord
100
AcDbBlockTableRecord
  2
*Paper_Space
340
1C
 70
     0
280
     1
281
     0
  0
ENDTAB
  0
ENDSEC
  0
SECTION
  2
BLOCKS
  0
BLOCK
  5
1A9
330
1D
100
AcDbEntity
  8
0
100
AcDbBlockBegin
  2
*Model_Space
 70
     0
 10
0.0
 20
0.0
 30
0.0
  3
*Model_Space
  1

  0
ENDBLK
  5
1AA
330
1D
100
AcDbEntity
  8
0
100
AcDbBlockEnd
  0
BLOCK
  5
1AB
330
1B
100
AcDbEntity
 67
     1
  8
0
100
AcDbBlockBegin
  2
*Paper_Space
 70
     0
 10
0.0
 20
0.0
 30
0.0
  3
*Paper_Space
  1

  0
ENDBLK
  5
1AC
330
1B
100
AcDbEntity
 67
     1
  8
0
100
AcDbBlockEnd
  0
ENDSEC
  0
SECTION
  2
ENTITIES
  0
LINE
  5
27
330
1D
100
AcDbEntity
  8
0
 62
     0
100
AcDbLine
 10
0.0950846
 20
123.905
 30
0.0
 11
309.658
 21
123.905
 31
0.0
  0
LINE
  5
28
330
1D
100
AcDbEntity
  8
0
 62
     0
100
AcDbLine
 10
309.658
 20
123.905
 30
0.0
 11
309.658
 21
0.0799264
 31
0.0
  0
LINE
  5
29
330
1D
100
AcDbEntity
  8
0
 62
     0
100
AcDbLine
 10
309.658
 20
0.0799264
 30
0.0
 11
0.0950846
 21
0.0799264
 31
0.0
  0
LINE
  5
2A
330
1D
100
AcDbEntity
  8
0
 62
     0
100
AcDbLine
 10
0.0950846
 20
0.0799264
 30
0.0
 11
0.0950846
 21
123.905
 31
0.0
  0
LINE
  5
2B
330
1D
100
AcDbEntity
  8
0
 62
     0
100
AcDbLine
 10
255.032
 20
16.6054
 30
0.0
 11
269.032
 21
16.6054
 31
0.0
  0
LINE
  5
2F
330
1D
100
AcDbEntity
  8
0
 62
     0
100
AcDbLine
 10
274.082
 20
16.6054
 30
0.0
 11
288.082
 21
16.6054
 31
0.0
  0
LINE
  5
33
330
1D
100
AcDbEntity
  8
0
 62
     0
100
AcDbLine
 10
293.132
 20
16.6054
 30
0.0
 11
307.132
 21
16.6054
 31
0.0
  0
LINE
  5
37
330
1D
100
AcDbEntity
  8
0
 62
     0
100
AcDbLine
 10
79.412
 20
20.818
 30
0.0
 11
82.7126
 21
20.818
 31
0.0
  0
LINE
  5
38
330
1D
100
AcDbEntity
  8
0
 62
     0
100
AcDbLine
 10
82.7126
 20
20.818
 30
0.0
 11
82.7126
 21
6.61871
 31
0.0
  0
LINE
  5
39
330
1D
100
AcDbEntity
  8
0
 62
     0
100
AcDbLine
 10
82.7126
 20
6.61871
 30
0.0
 11
79.412
 21
6.61871
 31
0.0
  0
LINE
  5
3A
330
1D
100
AcDbEntity
  8
0
 62
     0
100
AcDbLine
 10
79.412
 20
6.61871
 30
0.0
 11
79.412
 21
20.818
 31
0.0
  0
LINE
  5
3B
330
1D
100
AcDbEntity
  8
0
 62
     0
100
AcDbLine
 10
179.412
 20
20.818
 30
0.0
 11
182.713
 21
20.818
 31
0.0
  0
LINE
  5
3C
330
1D
100
AcDbEntity
  8
0
 62
     0
100
AcDbLine
 10
182.713
 20
20.818
 30
0.0
 11
182.713
 21
6.61871
 31
0.0
  0
LINE
  5
3D
330
1D
100
AcDbEntity
  8
0
 62
     0
100
AcDbLine
 10
182.713
 20
6.61871
 30
0.0
 11
179.412
 21
6.61871
 31
0.0
  0
LINE
  5
3E
330
1D
100
AcDbEntity
  8
0
 62
     0
100
AcDbLine
 10
179.412
 20
6.61871
 30
0.0
 11
179.412
 21
20.818
 31
0.0
  0
LINE
  5
3F
330
1D
100
AcDbEntity
  8
0
 62
     0
100
AcDbLine
 10
5.00091
 20
21.3679
 30
0.0
 11
19.0004
 21
21.3679
 31
0.0
  0
LINE
  5
43
330
1D
100
AcDbEntity
  8
0
 62
     0
100
AcDbLine
 10
28.8134
 20
21.3679
 30
0.0
 11
42.8128
 21
21.3679
 31
0.0
  0
LINE
  5
47
330
1D
100
AcDbEntity
  8
0
 62
     0
100
AcDbLine
 10
52.626
 20
21.3679
 30
0.0
 11
66.6253
 21
21.3679
 31
0.0
  0
LINE
  5
4B
330
1D
100
AcDbEntity
  8
0
 62
     0
100
AcDbLine
 10
124.062
 20
21.3679
 30
0.0
 11
138.063
 21
21.3679
 31
0.0
  0
LINE
  5
4F
330
1D
100
AcDbEntity
  8
0
 62
     0
100
AcDbLine
 10
193.12
 20
21.3679
 30
0.0
 11
207.119
 21
21.3679
 31
0.0
  0
LINE
  5
53
330
1D
100
AcDbEntity
  8
0
 62
     0
100
AcDbLine
 10
212.17
 20
21.3679
 30
0.0
 11
226.169
 21
21.3679
 31
0.0
  0
LINE
  5
57
330
1D
100
AcDbEntity
  8
0
 62
     0
100
AcDbLine
 10
231.22
 20
21.3679
 30
0.0
 11
245.219
 21
21.3679
 31
0.0
  0
LINE
  5
5B
330
1D
100
AcDbEntity
  8
0
 62
     0
100
AcDbLine
 10
274.082
 20
35.6553
 30
0.0
 11
288.082
 21
35.6553
 31
0.0
  0
LINE
  5
5F
330
1D
100
AcDbEntity
  8
0
 62
     0
100
AcDbLine
 10
7.97609
 20
39.8681
 30
0.0
 11
11.2751
 21
39.8681
 31
0.0
  0
LINE
  5
60
330
1D
100
AcDbEntity
  8
0
 62
     0
100
AcDbLine
 10
11.2751
 20
39.8681
 30
0.0
 11
11.2751
 21
25.6687
 31
0.0
  0
LINE
  5
61
330
1D
100
AcDbEntity
  8
0
 62
     0
100
AcDbLine
 10
11.2751
 20
25.6687
 30
0.0
 11
7.97609
 21
25.6687
 31
0.0
  0
LINE
  5
62
330
1D
100
AcDbEntity
  8
0
 62
     0
100
AcDbLine
 10
7.97609
 20
25.6687
 30
0.0
 11
7.97609
 21
39.8681
 31
0.0
  0
LINE
  5
63
330
1D
100
AcDbEntity
  8
0
 62
     0
100
AcDbLine
 10
31.7762
 20
39.8681
 30
0.0
 11
35.0752
 21
39.8681
 31
0.0
  0
LINE
  5
64
330
1D
100
AcDbEntity
  8
0
 62
     0
100
AcDbLine
 10
35.0752
 20
39.8681
 30
0.0
 11
35.0752
 21
25.6687
 31
0.0
  0
LINE
  5
65
330
1D
100
AcDbEntity
  8
0
 62
     0
100
AcDbLine
 10
35.0752
 20
25.6687
 30
0.0
 11
31.7762
 21
25.6687
 31
0.0
  0
LINE
  5
66
330
1D
100
AcDbEntity
  8
0
 62
     0
100
AcDbLine
 10
31.7762
 20
25.6687
 30
0.0
 11
31.7762
 21
39.8681
 31
0.0
  0
LINE
  5
67
330
1D
100
AcDbEntity
  8
0
 62
     0
100
AcDbLine
 10
14.5259
 20
40.4178
 30
0.0
 11
28.5254
 21
40.4178
 31
0.0
  0
LINE
  5
6B
330
1D
100
AcDbEntity
  8
0
 62
     0
100
AcDbLine
 10
45.4822
 20
40.4178
 30
0.0
 11
59.4815
 21
40.4178
 31
0.0
  0
LINE
  5
6F
330
1D
100
AcDbEntity
  8
0
 62
     0
100
AcDbLine
 10
64.5322
 20
40.4178
 30
0.0
 11
78.5315
 21
40.4178
 31
0.0
  0
LINE
  5
73
330
1D
100
AcDbEntity
  8
0
 62
     0
100
AcDbLine
 10
83.5822
 20
40.4178
 30
0.0
 11
97.5815
 21
40.4178
 31
0.0
  0
LINE
  5
77
330
1D
100
AcDbEntity
  8
0
 62
     0
100
AcDbLine
 10
102.632
 20
40.4178
 30
0.0
 11
116.632
 21
40.4178
 31
0.0
  0
LINE
  5
7B
330
1D
100
AcDbEntity
  8
0
 62
     0
100
AcDbLine
 10
121.682
 20
40.4178
 30
0.0
 11
135.682
 21
40.4178
 31
0.0
  0
LINE
  5
7F
330
1D
100
AcDbEntity
  8
0
 62
     0
100
AcDbLine
 10
140.732
 20
40.4178
 30
0.0
 11
154.732
 21
40.4178
 31
0.0
  0
LINE
  5
83
330
1D
100
AcDbEntity
  8
0
 62
     0
100
AcDbLine
 10
159.782
 20
40.4178
 30
0.0
 11
173.782
 21
40.4178
 31
0.0
  0
LINE
  5
87
330
1D
100
AcDbEntity
  8
0
 62
     0
100
AcDbLine
 10
178.832
 20
40.4178
 30
0.0
 11
192.832
 21
40.4178
 31
0.0
  0
LINE
  5
8B
330
1D
100
AcDbEntity
  8
0
 62
     0
100
AcDbLine
 10
197.882
 20
40.4178
 30
0.0
 11
211.882
 21
40.4178
 31
0.0
  0
LINE
  5
8F
330
1D
100
AcDbEntity
  8
0
 62
     0
100
AcDbLine
 10
216.932
 20
40.4178
 30
0.0
 11
230.932
 21
40.4178
 31
0.0
  0
LINE
  5
93
330
1D
100
AcDbEntity
  8
0
 62
     0
100
AcDbLine
 10
243.126
 20
40.4178
 30
0.0
 11
257.125
 21
40.4178
 31
0.0
  0
LINE
  5
97
330
1D
100
AcDbEntity
  8
0
 62
     0
100
AcDbLine
 10
250.862
 20
58.9181
 30
0.0
 11
254.161
 21
58.9181
 31
0.0
  0
LINE
  5
98
330
1D
100
AcDbEntity
  8
0
 62
     0
100
AcDbLine
 10
254.161
 20
58.9181
 30
0.0
 11
254.161
 21
44.7188
 31
0.0
  0
LINE
  5
99
330
1D
100
AcDbEntity
  8
0
 62
     0
100
AcDbLine
 10
254.161
 20
44.7188
 30
0.0
 11
250.862
 21
44.7188
 31
0.0
  0
LINE
  5
9A
330
1D
100
AcDbEntity
  8
0
 62
     0
100
AcDbLine
 10
250.862
 20
44.7188
 30
0.0
 11
250.862
 21
58.9181
 31
0.0
  0
LINE
  5
9B
330
1D
100
AcDbEntity
  8
0
 62
     0
100
AcDbLine
 10
274.662
 20
58.9181
 30
0.0
 11
277.963
 21
58.9181
 31
0.0
  0
LINE
  5
9C
330
1D
100
AcDbEntity
  8
0
 62
     0
100
AcDbLine
 10
277.963
 20
58.9181
 30
0.0
 11
277.963
 21
44.7188
 31
0.0
  0
LINE
  5
9D
330
1D
100
AcDbEntity
  8
0
 62
     0
100
AcDbLine
 10
277.963
 20
44.7188
 30
0.0
 11
274.662
 21
44.7188
 31
0.0
  0
LINE
  5
9E
330
1D
100
AcDbEntity
  8
0
 62
     0
100
AcDbLine
 10
274.662
 20
44.7188
 30
0.0
 11
274.662
 21
58.9181
 31
0.0
  0
LINE
  5
9F
330
1D
100
AcDbEntity
  8
0
 62
     0
100
AcDbLine
 10
9.76341
 20
59.4678
 30
0.0
 11
23.7629
 21
59.4678
 31
0.0
  0
LINE
  5
A3
330
1D
100
AcDbEntity
  8
0
 62
     0
100
AcDbLine
 10
35.9572
 20
59.4678
 30
0.0
 11
49.9565
 21
59.4678
 31
0.0
  0
LINE
  5
A7
330
1D
100
AcDbEntity
  8
0
 62
     0
100
AcDbLine
 10
55.0072
 20
59.4678
 30
0.0
 11
69.0065
 21
59.4678
 31
0.0
  0
LINE
  5
AB
330
1D
100
AcDbEntity
  8
0
 62
     0
100
AcDbLine
 10
74.0572
 20
59.4678
 30
0.0
 11
88.0565
 21
59.4678
 31
0.0
  0
LINE
  5
AF
330
1D
100
AcDbEntity
  8
0
 62
     0
100
AcDbLine
 10
93.1072
 20
59.4678
 30
0.0
 11
107.107
 21
59.4678
 31
0.0
  0
LINE
  5
B3
330
1D
100
AcDbEntity
  8
0
 62
     0
100
AcDbLine
 10
112.157
 20
59.4678
 30
0.0
 11
126.157
 21
59.4678
 31
0.0
  0
LINE
  5
B7
330
1D
100
AcDbEntity
  8
0
 62
     0
100
AcDbLine
 10
131.207
 20
59.4678
 30
0.0
 11
145.207
 21
59.4678
 31
0.0
  0
LINE
  5
BB
330
1D
100
AcDbEntity
  8
0
 62
     0
100
AcDbLine
 10
150.257
 20
59.4678
 30
0.0
 11
164.257
 21
59.4678
 31
0.0
  0
LINE
  5
BF
330
1D
100
AcDbEntity
  8
0
 62
     0
100
AcDbLine
 10
169.307
 20
59.4678
 30
0.0
 11
183.307
 21
59.4678
 31
0.0
  0
LINE
  5
C3
330
1D
100
AcDbEntity
  8
0
 62
     0
100
AcDbLine
 10
188.357
 20
59.4678
 30
0.0
 11
202.357
 21
59.4678
 31
0.0
  0
LINE
  5
C7
330
1D
100
AcDbEntity
  8
0
 62
     0
100
AcDbLine
 10
207.407
 20
59.4678
 30
0.0
 11
221.407
 21
59.4678
 31
0.0
  0
LINE
  5
CB
330
1D
100
AcDbEntity
  8
0
 62
     0
100
AcDbLine
 10
226.457
 20
59.4678
 30
0.0
 11
240.457
 21
59.4678
 31
0.0
  0
LINE
  5
CF
330
1D
100
AcDbEntity
  8
0
 62
     0
100
AcDbLine
 10
257.413
 20
59.4678
 30
0.0
 11
271.413
 21
59.4678
 31
0.0
  0
LINE
  5
D3
330
1D
100
AcDbEntity
  8
0
 62
     0
100
AcDbLine
 10
7.38216
 20
78.5178
 30
0.0
 11
21.3817
 21
78.5178
 31
0.0
  0
LINE
  5
D7
330
1D
100
AcDbEntity
  8
0
 62
     0
100
AcDbLine
 10
31.1947
 20
78.5178
 30
0.0
 11
45.194
 21
78.5178
 31
0.0
  0
LINE
  5
DB
330
1D
100
AcDbEntity
  8
0
 62
     0
100
AcDbLine
 10
50.2447
 20
78.5178
 30
0.0
 11
64.244
 21
78.5178
 31
0.0
  0
LINE
  5
DF
330
1D
100
AcDbEntity
  8
0
 62
     0
100
AcDbLine
 10
69.2947
 20
78.5178
 30
0.0
 11
83.294
 21
78.5178
 31
0.0
  0
LINE
  5
E3
330
1D
100
AcDbEntity
  8
0
 62
     0
100
AcDbLine
 10
88.3447
 20
78.5178
 30
0.0
 11
102.344
 21
78.5178
 31
0.0
  0
LINE
  5
E7
330
1D
100
AcDbEntity
  8
0
 62
     0
100
AcDbLine
 10
107.395
 20
78.5178
 30
0.0
 11
121.394
 21
78.5178
 31
0.0
  0
LINE
  5
EB
330
1D
100
AcDbEntity
  8
0
 62
     0
100
AcDbLine
 10
126.445
 20
78.5178
 30
0.0
 11
140.444
 21
78.5178
 31
0.0
  0
LINE
  5
EF
330
1D
100
AcDbEntity
  8
0
 62
     0
100
AcDbLine
 10
145.495
 20
78.5178
 30
0.0
 11
159.494
 21
78.5178
 31
0.0
  0
LINE
  5
F3
330
1D
100
AcDbEntity
  8
0
 62
     0
100
AcDbLine
 10
164.545
 20
78.5178
 30
0.0
 11
178.544
 21
78.5178
 31
0.0
  0
LINE
  5
F7
330
1D
100
AcDbEntity
  8
0
 62
     0
100
AcDbLine
 10
183.595
 20
78.5178
 30
0.0
 11
197.594
 21
78.5178
 31
0.0
  0
LINE
  5
FB
330
1D
100
AcDbEntity
  8
0
 62
     0
100
AcDbLine
 10
202.645
 20
78.5178
 30
0.0
 11
216.644
 21
78.5178
 31
0.0
  0
LINE
  5
FF
330
1D
100
AcDbEntity
  8
0
 62
     0
100
AcDbLine
 10
221.695
 20
78.5178
 30
0.0
 11
235.694
 21
78.5178
 31
0.0
  0
LINE
  5
103
330
1D
100
AcDbEntity
  8
0
 62
     0
100
AcDbLine
 10
240.745
 20
78.5178
 30
0.0
 11
254.744
 21
78.5178
 31
0.0
  0
LINE
  5
107
330
1D
100
AcDbEntity
  8
0
 62
     0
100
AcDbLine
 10
264.557
 20
78.5178
 30
0.0
 11
278.557
 21
78.5178
 31
0.0
  0
LINE
  5
10B
330
1D
100
AcDbEntity
  8
0
 62
     0
100
AcDbLine
 10
253.243
 20
97.0181
 30
0.0
 11
256.545
 21
97.0181
 31
0.0
  0
LINE
  5
10C
330
1D
100
AcDbEntity
  8
0
 62
     0
100
AcDbLine
 10
256.545
 20
97.0181
 30
0.0
 11
256.545
 21
82.8188
 31
0.0
  0
LINE
  5
10D
330
1D
100
AcDbEntity
  8
0
 62
     0
100
AcDbLine
 10
256.545
 20
82.8188
 30
0.0
 11
253.243
 21
82.8188
 31
0.0
  0
LINE
  5
10E
330
1D
100
AcDbEntity
  8
0
 62
     0
100
AcDbLine
 10
253.243
 20
82.8188
 30
0.0
 11
253.243
 21
97.0181
 31
0.0
  0
LINE
  5
10F
330
1D
100
AcDbEntity
  8
0
 62
     0
100
AcDbLine
 10
277.045
 20
97.0181
 30
0.0
 11
280.345
 21
97.0181
 31
0.0
  0
LINE
  5
110
330
1D
100
AcDbEntity
  8
0
 62
     0
100
AcDbLine
 10
280.345
 20
97.0181
 30
0.0
 11
280.345
 21
82.8188
 31
0.0
  0
LINE
  5
111
330
1D
100
AcDbEntity
  8
0
 62
     0
100
AcDbLine
 10
280.345
 20
82.8188
 30
0.0
 11
277.045
 21
82.8188
 31
0.0
  0
LINE
  5
112
330
1D
100
AcDbEntity
  8
0
 62
     0
100
AcDbLine
 10
277.045
 20
82.8188
 30
0.0
 11
277.045
 21
97.0181
 31
0.0
  0
LINE
  5
113
330
1D
100
AcDbEntity
  8
0
 62
     0
100
AcDbLine
 10
2.61965
 20
97.5678
 30
0.0
 11
16.6192
 21
97.5678
 31
0.0
  0
LINE
  5
117
330
1D
100
AcDbEntity
  8
0
 62
     0
100
AcDbLine
 10
21.6697
 20
97.5678
 30
0.0
 11
35.669
 21
97.5678
 31
0.0
  0
LINE
  5
11B
330
1D
100
AcDbEntity
  8
0
 62
     0
100
AcDbLine
 10
40.7197
 20
97.5678
 30
0.0
 11
54.719
 21
97.5678
 31
0.0
  0
LINE
  5
11F
330
1D
100
AcDbEntity
  8
0
 62
     0
100
AcDbLine
 10
59.7697
 20
97.5678
 30
0.0
 11
73.769
 21
97.5678
 31
0.0
  0
LINE
  5
123
330
1D
100
AcDbEntity
  8
0
 62
     0
100
AcDbLine
 10
78.8197
 20
97.5678
 30
0.0
 11
92.819
 21
97.5678
 31
0.0
  0
LINE
  5
127
330
1D
100
AcDbEntity
  8
0
 62
     0
100
AcDbLine
 10
97.8683
 20
97.5678
 30
0.0
 11
111.869
 21
97.5678
 31
0.0
  0
LINE
  5
12B
330
1D
100
AcDbEntity
  8
0
 62
     0
100
AcDbLine
 10
116.918
 20
97.5678
 30
0.0
 11
130.919
 21
97.5678
 31
0.0
  0
LINE
  5
12F
330
1D
100
AcDbEntity
  8
0
 62
     0
100
AcDbLine
 10
135.97
 20
97.5678
 30
0.0
 11
149.969
 21
97.5678
 31
0.0
  0
LINE
  5
133
330
1D
100
AcDbEntity
  8
0
 62
     0
100
AcDbLine
 10
155.02
 20
97.5678
 30
0.0
 11
169.019
 21
97.5678
 31
0.0
  0
LINE
  5
137
330
1D
100
AcDbEntity
  8
0
 62
     0
100
AcDbLine
 10
174.07
 20
97.5678
 30
0.0
 11
188.069
 21
97.5678
 31
0.0
  0
LINE
  5
13B
330
1D
100
AcDbEntity
  8
0
 62
     0
100
AcDbLine
 10
193.12
 20
97.5678
 30
0.0
 11
207.119
 21
97.5678
 31
0.0
  0
LINE
  5
13F
330
1D
100
AcDbEntity
  8
0
 62
     0
100
AcDbLine
 10
212.17
 20
97.5678
 30
0.0
 11
226.169
 21
97.5678
 31
0.0
  0
LINE
  5
143
330
1D
100
AcDbEntity
  8
0
 62
     0
100
AcDbLine
 10
231.22
 20
97.5678
 30
0.0
 11
245.219
 21
97.5678
 31
0.0
  0
LINE
  5
147
330
1D
100
AcDbEntity
  8
0
 62
     0
100
AcDbLine
 10
259.795
 20
97.5678
 30
0.0
 11
273.794
 21
97.5678
 31
0.0
  0
LINE
  5
14B
330
1D
100
AcDbEntity
  8
0
 62
     0
100
AcDbLine
 10
2.61965
 20
121.38
 30
0.0
 11
16.6192
 21
121.38
 31
0.0
  0
LINE
  5
14F
330
1D
100
AcDbEntity
  8
0
 62
     0
100
AcDbLine
 10
26.4322
 20
121.38
 30
0.0
 11
40.4315
 21
121.38
 31
0.0
  0
LINE
  5
153
330
1D
100
AcDbEntity
  8
0
 62
     0
100
AcDbLine
 10
45.4822
 20
121.38
 30
0.0
 11
59.4815
 21
121.38
 31
0.0
  0
LINE
  5
157
330
1D
100
AcDbEntity
  8
0
 62
     0
100
AcDbLine
 10
64.5322
 20
121.38
 30
0.0
 11
78.5315
 21
121.38
 31
0.0
  0
LINE
  5
15B
330
1D
100
AcDbEntity
  8
0
 62
     0
100
AcDbLine
 10
83.5822
 20
121.38
 30
0.0
 11
97.5815
 21
121.38
 31
0.0
  0
LINE
  5
15F
330
1D
100
AcDbEntity
  8
0
 62
     0
100
AcDbLine
 10
107.395
 20
121.38
 30
0.0
 11
121.394
 21
121.38
 31
0.0
  0
LINE
  5
163
330
1D
100
AcDbEntity
  8
0
 62
     0
100
AcDbLine
 10
126.445
 20
121.38
 30
0.0
 11
140.444
 21
121.38
 31
0.0
  0
LINE
  5
167
330
1D
100
AcDbEntity
  8
0
 62
     0
100
AcDbLine
 10
145.495
 20
121.38
 30
0.0
 11
159.494
 21
121.38
 31
0.0
  0
LINE
  5
16B
330
1D
100
AcDbEntity
  8
0
 62
     0
100
AcDbLine
 10
164.545
 20
121.38
 30
0.0
 11
178.544
 21
121.38
 31
0.0
  0
LINE
  5
16F
330
1D
100
AcDbEntity
  8
0
 62
     0
100
AcDbLine
 10
188.357
 20
121.38
 30
0.0
 11
202.357
 21
121.38
 31
0.0
  0
LINE
  5
173
330
1D
100
AcDbEntity
  8
0
 62
     0
100
AcDbLine
 10
207.407
 20
121.38
 30
0.0
 11
221.407
 21
121.38
 31
0.0
  0
LINE
  5
177
330
1D
100
AcDbEntity
  8
0
 62
     0
100
AcDbLine
 10
226.457
 20
121.38
 30
0.0
 11
240.457
 21
121.38
 31
0.0
  0
LINE
  5
17B
330
1D
100
AcDbEntity
  8
0
 62
     0
100
AcDbLine
 10
245.507
 20
121.38
 30
0.0
 11
259.507
 21
121.38
 31
0.0
  0
LINE
  5
17F
330
1D
100
AcDbEntity
  8
0
 62
     0
100
AcDbLine
 10
274.082
 20
121.38
 30
0.0
 11
288.082
 21
121.38
 31
0.0
  0
LINE
  5
183
330
1D
100
AcDbEntity
  8
0
 62
     0
100
AcDbLine
 10
293.132
 20
121.38
 30
0.0
 11
307.132
 21
121.38
 31
0.0
  0
CIRCLE
  5
1CE
330
1D
100
AcDbEntity
  8
0
  6
ByBlock
100
AcDbCircle
 10
9.619425
 20
114.3805
 30
0.0
 40
2.0
  0
CIRCLE
  5
1D1
330
1D
100
AcDbEntity
  8
0
  6
ByBlock
100
AcDbCircle
 10
12.159425
 20
119.4605
 30
0.0
 40
0.75
  0
CIRCLE
  5
1D4
330
1D
100
AcDbEntity
  8
0
  6
ByBlock
100
AcDbCircle
 10
5.809425
 20
116.9205
 30
0.0
 40
0.75
  0
CIRCLE
  5
1D5
330
1D
100
AcDbEntity
  8
0
  6
ByBlock
100
AcDbCircle
 10
4.539425
 20
114.3805
 30
0.0
 40
0.8500000000000001
  0
CIRCLE
  5
1D6
330
1D
100
AcDbEntity
  8
0
  6
ByBlock
100
AcDbCircle
 10
14.699425
 20
114.3805
 30
0.0
 40
0.75
  0
CIRCLE
  5
1D9
330
1D
100
AcDbEntity
  8
0
  6
ByBlock
100
AcDbCircle
 10
10.889425
 20
109.3005
 30
0.0
 40
0.5
  0
CIRCLE
  5
1DB
330
1D
100
AcDbEntity
  8
0
  6
ByBlock
100
AcDbCircle
 10
8.349424999999997
 20
109.3005
 30
0.0
 40
0.5
  0
LINE
  5
1DC
330
1D
100
AcDbEntity
  8
0
 62
     0
100
AcDbLine
 10
26.4322
 20
121.38
 30
0.0
 11
40.43175
 21
121.38
 31
0.0
  0
CIRCLE
  5
1DD
330
1D
100
AcDbEntity
  8
0
  6
ByBlock
100
AcDbCircle
 10
33.431975
 20
114.3805
 30
0.0
 40
2.0
  0
CIRCLE
  5
1DE
330
1D
100
AcDbEntity
  8
0
  6
ByBlock
100
AcDbCircle
 10
35.971975
 20
119.4605
 30
0.0
 40
0.75
  0
CIRCLE
  5
1DF
330
1D
100
AcDbEntity
  8
0
  6
ByBlock
100
AcDbCircle
 10
29.621975
 20
116.9205
 30
0.0
 40
0.75
  0
CIRCLE
  5
1E0
330
1D
100
AcDbEntity
  8
0
  6
ByBlock
100
AcDbCircle
 10
28.351975
 20
114.3805
 30
0.0
 40
0.8500000000000001
  0
CIRCLE
  5
1E1
330
1D
100
AcDbEntity
  8
0
  6
ByBlock
100
AcDbCircle
 10
38.511975
 20
114.3805
 30
0.0
 40
0.75
  0
CIRCLE
  5
1E2
330
1D
100
AcDbEntity
  8
0
  6
ByBlock
100
AcDbCircle
 10
34.701975
 20
109.3005
 30
0.0
 40
0.5
  0
CIRCLE
  5
1E3
330
1D
100
AcDbEntity
  8
0
  6
ByBlock
100
AcDbCircle
 10
32.161975
 20
109.3005
 30
0.0
 40
0.5
  0
LINE
  5
1E4
330
1D
100
AcDbEntity
  8
0
 62
     0
100
AcDbLine
 10
45.4822
 20
121.38
 30
0.0
 11
59.48175
 21
121.38
 31
0.0
  0
CIRCLE
  5
1E5
330
1D
100
AcDbEntity
  8
0
  6
ByBlock
100
AcDbCircle
 10
52.481975
 20
114.3805
 30
0.0
 40
2.0
  0
CIRCLE
  5
1E6
330
1D
100
AcDbEntity
  8
0
  6
ByBlock
100
AcDbCircle
 10
55.021975
 20
119.4605
 30
0.0
 40
0.75
  0
CIRCLE
  5
1E7
330
1D
100
AcDbEntity
  8
0
  6
ByBlock
100
AcDbCircle
 10
48.671975
 20
116.9205
 30
0.0
 40
0.75
  0
CIRCLE
  5
1E8
330
1D
100
AcDbEntity
  8
0
  6
ByBlock
100
AcDbCircle
 10
47.401975
 20
114.3805
 30
0.0
 40
0.8500000000000001
  0
CIRCLE
  5
1E9
330
1D
100
AcDbEntity
  8
0
  6
ByBlock
100
AcDbCircle
 10
57.561975
 20
114.3805
 30
0.0
 40
0.75
  0
CIRCLE
  5
1EA
330
1D
100
AcDbEntity
  8
0
  6
ByBlock
100
AcDbCircle
 10
53.75197499999999
 20
109.3005
 30
0.0
 40
0.5
  0
CIRCLE
  5
1EB
330
1D
100
AcDbEntity
  8
0
  6
ByBlock
100
AcDbCircle
 10
51.211975
 20
109.3005
 30
0.0
 40
0.5
  0
LINE
  5
1EC
330
1D
100
AcDbEntity
  8
0
 62
     0
100
AcDbLine
 10
64.5322
 20
121.38
 30
0.0
 11
78.53175
 21
121.38
 31
0.0
  0
CIRCLE
  5
1ED
330
1D
100
AcDbEntity
  8
0
  6
ByBlock
100
AcDbCircle
 10
71.531975
 20
114.3805
 30
0.0
 40
2.0
  0
CIRCLE
  5
1EE
330
1D
100
AcDbEntity
  8
0
  6
ByBlock
100
AcDbCircle
 10
74.07197500000001
 20
119.4605
 30
0.0
 40
0.75
  0
CIRCLE
  5
1EF
330
1D
100
AcDbEntity
  8
0
  6
ByBlock
100
AcDbCircle
 10
67.721975
 20
116.9205
 30
0.0
 40
0.75
  0
CIRCLE
  5
1F0
330
1D
100
AcDbEntity
  8
0
  6
ByBlock
100
AcDbCircle
 10
66.451975
 20
114.3805
 30
0.0
 40
0.8500000000000001
  0
CIRCLE
  5
1F1
330
1D
100
AcDbEntity
  8
0
  6
ByBlock
100
AcDbCircle
 10
76.611975
 20
114.3805
 30
0.0
 40
0.75
  0
CIRCLE
  5
1F2
330
1D
100
AcDbEntity
  8
0
  6
ByBlock
100
AcDbCircle
 10
72.801975
 20
109.3005
 30
0.0
 40
0.5
  0
CIRCLE
  5
1F3
330
1D
100
AcDbEntity
  8
0
  6
ByBlock
100
AcDbCircle
 10
70.261975
 20
109.3005
 30
0.0
 40
0.5
  0
LINE
  5
1F4
330
1D
100
AcDbEntity
  8
0
 62
     0
100
AcDbLine
 10
83.5822
 20
121.38
 30
0.0
 11
97.58175
 21
121.38
 31
0.0
  0
CIRCLE
  5
1F5
330
1D
100
AcDbEntity
  8
0
  6
ByBlock
100
AcDbCircle
 10
90.581975
 20
114.3805
 30
0.0
 40
2.0
  0
CIRCLE
  5
1F6
330
1D
100
AcDbEntity
  8
0
  6
ByBlock
100
AcDbCircle
 10
93.12197499999999
 20
119.4605
 30
0.0
 40
0.75
  0
CIRCLE
  5
1F7
330
1D
100
AcDbEntity
  8
0
  6
ByBlock
100
AcDbCircle
 10
86.771975
 20
116.9205
 30
0.0
 40
0.75
  0
CIRCLE
  5
1F8
330
1D
100
AcDbEntity
  8
0
  6
ByBlock
100
AcDbCircle
 10
85.50197499999999
 20
114.3805
 30
0.0
 40
0.8500000000000001
  0
CIRCLE
  5
1F9
330
1D
100
AcDbEntity
  8
0
  6
ByBlock
100
AcDbCircle
 10
95.66197499999998
 20
114.3805
 30
0.0
 40
0.75
  0
CIRCLE
  5
1FA
330
1D
100
AcDbEntity
  8
0
  6
ByBlock
100
AcDbCircle
 10
91.851975
 20
109.3005
 30
0.0
 40
0.5
  0
CIRCLE
  5
1FB
330
1D
100
AcDbEntity
  8
0
  6
ByBlock
100
AcDbCircle
 10
89.31197499999999
 20
109.3005
 30
0.0
 40
0.5
  0
LINE
  5
203
330
1D
100
AcDbEntity
  8
0
 62
     0
100
AcDbLine
 10
107.395
 20
121.38
 30
0.0
 11
121.3943
 21
121.38
 31
0.0
  0
LINE
  5
204
330
1D
100
AcDbEntity
  8
0
 62
     0
100
AcDbLine
 10
126.445
 20
121.38
 30
0.0
 11
140.4443
 21
121.38
 31
0.0
  0
LINE
  5
205
330
1D
100
AcDbEntity
  8
0
 62
     0
100
AcDbLine
 10
145.495
 20
121.38
 30
0.0
 11
159.4943
 21
121.38
 31
0.0
  0
LINE
  5
206
330
1D
100
AcDbEntity
  8
0
 62
     0
100
AcDbLine
 10
164.545
 20
121.38
 30
0.0
 11
178.5443
 21
121.38
 31
0.0
  0
LINE
  5
207
330
1D
100
AcDbEntity
  8
0
 62
     0
100
AcDbLine
 10
107.395
 20
121.38
 30
0.0
 11
121.39455
 21
121.38
 31
0.0
  0
CIRCLE
  5
208
330
1D
100
AcDbEntity
  8
0
  6
ByBlock
100
AcDbCircle
 10
114.394775
 20
114.3805
 30
0.0
 40
2.0
  0
CIRCLE
  5
209
330
1D
100
AcDbEntity
  8
0
  6
ByBlock
100
AcDbCircle
 10
116.934775
 20
119.4605
 30
0.0
 40
0.75
  0
CIRCLE
  5
20A
330
1D
100
AcDbEntity
  8
0
  6
ByBlock
100
AcDbCircle
 10
110.584775
 20
116.9205
 30
0.0
 40
0.75
  0
CIRCLE
  5
20B
330
1D
100
AcDbEntity
  8
0
  6
ByBlock
100
AcDbCircle
 10
109.314775
 20
114.3805
 30
0.0
 40
0.8500000000000001
  0
CIRCLE
  5
20C
330
1D
100
AcDbEntity
  8
0
  6
ByBlock
100
AcDbCircle
 10
119.474775
 20
114.3805
 30
0.0
 40
0.75
  0
CIRCLE
  5
20D
330
1D
100
AcDbEntity
  8
0
  6
ByBlock
100
AcDbCircle
 10
115.664775
 20
109.3005
 30
0.0
 40
0.5
  0
CIRCLE
  5
20E
330
1D
100
AcDbEntity
  8
0
  6
ByBlock
100
AcDbCircle
 10
113.124775
 20
109.3005
 30
0.0
 40
0.5
  0
LINE
  5
20F
330
1D
100
AcDbEntity
  8
0
 62
     0
100
AcDbLine
 10
126.445
 20
121.38
 30
0.0
 11
140.44455
 21
121.38
 31
0.0
  0
CIRCLE
  5
210
330
1D
100
AcDbEntity
  8
0
  6
ByBlock
100
AcDbCircle
 10
133.444775
 20
114.3805
 30
0.0
 40
2.0
  0
CIRCLE
  5
211
330
1D
100
AcDbEntity
  8
0
  6
ByBlock
100
AcDbCircle
 10
135.984775
 20
119.4605
 30
0.0
 40
0.75
  0
CIRCLE
  5
212
330
1D
100
AcDbEntity
  8
0
  6
ByBlock
100
AcDbCircle
 10
129.634775
 20
116.9205
 30
0.0
 40
0.75
  0
CIRCLE
  5
213
330
1D
100
AcDbEntity
  8
0
  6
ByBlock
100
AcDbCircle
 10
128.364775
 20
114.3805
 30
0.0
 40
0.8500000000000001
  0
CIRCLE
  5
214
330
1D
100
AcDbEntity
  8
0
  6
ByBlock
100
AcDbCircle
 10
138.524775
 20
114.3805
 30
0.0
 40
0.75
  0
CIRCLE
  5
215
330
1D
100
AcDbEntity
  8
0
  6
ByBlock
100
AcDbCircle
 10
134.714775
 20
109.3005
 30
0.0
 40
0.5
  0
CIRCLE
  5
216
330
1D
100
AcDbEntity
  8
0
  6
ByBlock
100
AcDbCircle
 10
132.174775
 20
109.3005
 30
0.0
 40
0.5
  0
LINE
  5
217
330
1D
100
AcDbEntity
  8
0
 62
     0
100
AcDbLine
 10
145.495
 20
121.38
 30
0.0
 11
159.49455
 21
121.38
 31
0.0
  0
CIRCLE
  5
218
330
1D
100
AcDbEntity
  8
0
  6
ByBlock
100
AcDbCircle
 10
152.494775
 20
114.3805
 30
0.0
 40
2.0
  0
CIRCLE
  5
219
330
1D
100
AcDbEntity
  8
0
  6
ByBlock
100
AcDbCircle
 10
155.034775
 20
119.4605
 30
0.0
 40
0.75
  0
CIRCLE
  5
21A
330
1D
100
AcDbEntity
  8
0
  6
ByBlock
100
AcDbCircle
 10
148.684775
 20
116.9205
 30
0.0
 40
0.75
  0
CIRCLE
  5
21B
330
1D
100
AcDbEntity
  8
0
  6
ByBlock
100
AcDbCircle
 10
147.414775
 20
114.3805
 30
0.0
 40
0.8500000000000001
  0
CIRCLE
  5
21C
330
1D
100
AcDbEntity
  8
0
  6
ByBlock
100
AcDbCircle
 10
157.574775
 20
114.3805
 30
0.0
 40
0.75
  0
CIRCLE
  5
21D
330
1D
100
AcDbEntity
  8
0
  6
ByBlock
100
AcDbCircle
 10
153.764775
 20
109.3005
 30
0.0
 40
0.5
  0
CIRCLE
  5
21E
330
1D
100
AcDbEntity
  8
0
  6
ByBlock
100
AcDbCircle
 10
151.224775
 20
109.3005
 30
0.0
 40
0.5
  0
LINE
  5
21F
330
1D
100
AcDbEntity
  8
0
 62
     0
100
AcDbLine
 10
164.545
 20
121.38
 30
0.0
 11
178.54455
 21
121.38
 31
0.0
  0
CIRCLE
  5
220
330
1D
100
AcDbEntity
  8
0
  6
ByBlock
100
AcDbCircle
 10
171.544775
 20
114.3805
 30
0.0
 40
2.0
  0
CIRCLE
  5
221
330
1D
100
AcDbEntity
  8
0
  6
ByBlock
100
AcDbCircle
 10
174.084775
 20
119.4605
 30
0.0
 40
0.75
  0
CIRCLE
  5
222
330
1D
100
AcDbEntity
  8
0
  6
ByBlock
100
AcDbCircle
 10
167.734775
 20
116.9205
 30
0.0
 40
0.75
  0
CIRCLE
  5
223
330
1D
100
AcDbEntity
  8
0
  6
ByBlock
100
AcDbCircle
 10
166.464775
 20
114.3805
 30
0.0
 40
0.8500000000000001
  0
CIRCLE
  5
224
330
1D
100
AcDbEntity
  8
0
  6
ByBlock
100
AcDbCircle
 10
176.624775
 20
114.3805
 30
0.0
 40
0.75
  0
CIRCLE
  5
225
330
1D
100
AcDbEntity
  8
0
  6
ByBlock
100
AcDbCircle
 10
172.814775
 20
109.3005
 30
0.0
 40
0.5
  0
CIRCLE
  5
226
330
1D
100
AcDbEntity
  8
0
  6
ByBlock
100
AcDbCircle
 10
170.274775
 20
109.3005
 30
0.0
 40
0.5
  0
LINE
  5
227
330
1D
100
AcDbEntity
  8
0
 62
     0
100
AcDbLine
 10
188.357
 20
121.38
 30
0.0
 11
202.3563
 21
121.38
 31
0.0
  0
LINE
  5
228
330
1D
100
AcDbEntity
  8
0
 62
     0
100
AcDbLine
 10
207.407
 20
121.38
 30
0.0
 11
221.4063
 21
121.38
 31
0.0
  0
LINE
  5
229
330
1D
100
AcDbEntity
  8
0
 62
     0
100
AcDbLine
 10
226.457
 20
121.38
 30
0.0
 11
240.4563
 21
121.38
 31
0.0
  0
LINE
  5
22A
330
1D
100
AcDbEntity
  8
0
 62
     0
100
AcDbLine
 10
245.507
 20
121.38
 30
0.0
 11
259.5063
 21
121.38
 31
0.0
  0
LINE
  5
22B
330
1D
100
AcDbEntity
  8
0
 62
     0
100
AcDbLine
 10
188.357
 20
121.38
 30
0.0
 11
202.35655
 21
121.38
 31
0.0
  0
CIRCLE
  5
22C
330
1D
100
AcDbEntity
  8
0
  6
ByBlock
100
AcDbCircle
 10
195.356775
 20
114.3805
 30
0.0
 40
2.0
  0
CIRCLE
  5
22D
330
1D
100
AcDbEntity
  8
0
  6
ByBlock
100
AcDbCircle
 10
197.896775
 20
119.4605
 30
0.0
 40
0.75
  0
CIRCLE
  5
22E
330
1D
100
AcDbEntity
  8
0
  6
ByBlock
100
AcDbCircle
 10
191.546775
 20
116.9205
 30
0.0
 40
0.75
  0
CIRCLE
  5
22F
330
1D
100
AcDbEntity
  8
0
  6
ByBlock
100
AcDbCircle
 10
190.276775
 20
114.3805
 30
0.0
 40
0.8500000000000001
  0
CIRCLE
  5
230
330
1D
100
AcDbEntity
  8
0
  6
ByBlock
100
AcDbCircle
 10
200.436775
 20
114.3805
 30
0.0
 40
0.75
  0
CIRCLE
  5
231
330
1D
100
AcDbEntity
  8
0
  6
ByBlock
100
AcDbCircle
 10
196.626775
 20
109.3005
 30
0.0
 40
0.5
  0
CIRCLE
  5
232
330
1D
100
AcDbEntity
  8
0
  6
ByBlock
100
AcDbCircle
 10
194.086775
 20
109.3005
 30
0.0
 40
0.5
  0
LINE
  5
233
330
1D
100
AcDbEntity
  8
0
 62
     0
100
AcDbLine
 10
207.407
 20
121.38
 30
0.0
 11
221.40655
 21
121.38
 31
0.0
  0
CIRCLE
  5
234
330
1D
100
AcDbEntity
  8
0
  6
ByBlock
100
AcDbCircle
 10
214.406775
 20
114.3805
 30
0.0
 40
2.0
  0
CIRCLE
  5
235
330
1D
100
AcDbEntity
  8
0
  6
ByBlock
100
AcDbCircle
 10
216.946775
 20
119.4605
 30
0.0
 40
0.75
  0
CIRCLE
  5
236
330
1D
100
AcDbEntity
  8
0
  6
ByBlock
100
AcDbCircle
 10
210.596775
 20
116.9205
 30
0.0
 40
0.75
  0
CIRCLE
  5
237
330
1D
100
AcDbEntity
  8
0
  6
ByBlock
100
AcDbCircle
 10
209.326775
 20
114.3805
 30
0.0
 40
0.8500000000000001
  0
CIRCLE
  5
238
330
1D
100
AcDbEntity
  8
0
  6
ByBlock
100
AcDbCircle
 10
219.486775
 20
114.3805
 30
0.0
 40
0.75
  0
CIRCLE
  5
239
330
1D
100
AcDbEntity
  8
0
  6
ByBlock
100
AcDbCircle
 10
215.676775
 20
109.3005
 30
0.0
 40
0.5
  0
CIRCLE
  5
23A
330
1D
100
AcDbEntity
  8
0
  6
ByBlock
100
AcDbCircle
 10
213.136775
 20
109.3005
 30
0.0
 40
0.5
  0
LINE
  5
23B
330
1D
100
AcDbEntity
  8
0
 62
     0
100
AcDbLine
 10
226.457
 20
121.38
 30
0.0
 11
240.45655
 21
121.38
 31
0.0
  0
CIRCLE
  5
23C
330
1D
100
AcDbEntity
  8
0
  6
ByBlock
100
AcDbCircle
 10
233.456775
 20
114.3805
 30
0.0
 40
2.0
  0
CIRCLE
  5
23D
330
1D
100
AcDbEntity
  8
0
  6
ByBlock
100
AcDbCircle
 10
235.996775
 20
119.4605
 30
0.0
 40
0.75
  0
CIRCLE
  5
23E
330
1D
100
AcDbEntity
  8
0
  6
ByBlock
100
AcDbCircle
 10
229.646775
 20
116.9205
 30
0.0
 40
0.75
  0
CIRCLE
  5
23F
330
1D
100
AcDbEntity
  8
0
  6
ByBlock
100
AcDbCircle
 10
228.376775
 20
114.3805
 30
0.0
 40
0.8500000000000001
  0
CIRCLE
  5
240
330
1D
100
AcDbEntity
  8
0
  6
ByBlock
100
AcDbCircle
 10
238.536775
 20
114.3805
 30
0.0
 40
0.75
  0
CIRCLE
  5
241
330
1D
100
AcDbEntity
  8
0
  6
ByBlock
100
AcDbCircle
 10
234.726775
 20
109.3005
 30
0.0
 40
0.5
  0
CIRCLE
  5
242
330
1D
100
AcDbEntity
  8
0
  6
ByBlock
100
AcDbCircle
 10
232.186775
 20
109.3005
 30
0.0
 40
0.5
  0
LINE
  5
243
330
1D
100
AcDbEntity
  8
0
 62
     0
100
AcDbLine
 10
245.507
 20
121.38
 30
0.0
 11
259.50655
 21
121.38
 31
0.0
  0
CIRCLE
  5
244
330
1D
100
AcDbEntity
  8
0
  6
ByBlock
100
AcDbCircle
 10
252.506775
 20
114.3805
 30
0.0
 40
2.0
  0
CIRCLE
  5
245
330
1D
100
AcDbEntity
  8
0
  6
ByBlock
100
AcDbCircle
 10
255.046775
 20
119.4605
 30
0.0
 40
0.75
  0
CIRCLE
  5
246
330
1D
100
AcDbEntity
  8
0
  6
ByBlock
100
AcDbCircle
 10
248.696775
 20
116.9205
 30
0.0
 40
0.75
  0
CIRCLE
  5
247
330
1D
100
AcDbEntity
  8
0
  6
ByBlock
100
AcDbCircle
 10
247.426775
 20
114.3805
 30
0.0
 40
0.8500000000000001
  0
CIRCLE
  5
248
330
1D
100
AcDbEntity
  8
0
  6
ByBlock
100
AcDbCircle
 10
257.586775
 20
114.3805
 30
0.0
 40
0.75
  0
CIRCLE
  5
249
330
1D
100
AcDbEntity
  8
0
  6
ByBlock
100
AcDbCircle
 10
253.776775
 20
109.3005
 30
0.0
 40
0.5
  0
CIRCLE
  5
24A
330
1D
100
AcDbEntity
  8
0
  6
ByBlock
100
AcDbCircle
 10
251.236775
 20
109.3005
 30
0.0
 40
0.5
  0
LINE
  5
24B
330
1D
100
AcDbEntity
  8
0
 62
     0
100
AcDbLine
 10
2.61965
 20
97.5678
 30
0.0
 11
16.61895
 21
97.5678
 31
0.0
  0
LINE
  5
24C
330
1D
100
AcDbEntity
  8
0
 62
     0
100
AcDbLine
 10
21.66965
 20
97.5678
 30
0.0
 11
35.66895
 21
97.5678
 31
0.0
  0
LINE
  5
24D
330
1D
100
AcDbEntity
  8
0
 62
     0
100
AcDbLine
 10
40.71965
 20
97.5678
 30
0.0
 11
54.71894999999999
 21
97.5678
 31
0.0
  0
LINE
  5
24E
330
1D
100
AcDbEntity
  8
0
 62
     0
100
AcDbLine
 10
59.76965
 20
97.5678
 30
0.0
 11
73.76895
 21
97.5678
 31
0.0
  0
LINE
  5
24F
330
1D
100
AcDbEntity
  8
0
 62
     0
100
AcDbLine
 10
2.61965
 20
97.5678
 30
0.0
 11
16.6192
 21
97.5678
 31
0.0
  0
CIRCLE
  5
250
330
1D
100
AcDbEntity
  8
0
  6
ByBlock
100
AcDbCircle
 10
9.619425
 20
90.56830000000001
 30
0.0
 40
2.0
  0
CIRCLE
  5
251
330
1D
100
AcDbEntity
  8
0
  6
ByBlock
100
AcDbCircle
 10
12.159425
 20
95.6483
 30
0.0
 40
0.75
  0
CIRCLE
  5
252
330
1D
100
AcDbEntity
  8
0
  6
ByBlock
100
AcDbCircle
 10
5.809425000000001
 20
93.10830000000001
 30
0.0
 40
0.75
  0
CIRCLE
  5
253
330
1D
100
AcDbEntity
  8
0
  6
ByBlock
100
AcDbCircle
 10
4.539425000000001
 20
90.56830000000001
 30
0.0
 40
0.8500000000000001
  0
CIRCLE
  5
254
330
1D
100
AcDbEntity
  8
0
  6
ByBlock
100
AcDbCircle
 10
14.699425
 20
90.56830000000001
 30
0.0
 40
0.75
  0
CIRCLE
  5
255
330
1D
100
AcDbEntity
  8
0
  6
ByBlock
100
AcDbCircle
 10
10.889425
 20
85.48830000000001
 30
0.0
 40
0.5
  0
CIRCLE
  5
256
330
1D
100
AcDbEntity
  8
0
  6
ByBlock
100
AcDbCircle
 10
8.349424999999997
 20
85.48830000000001
 30
0.0
 40
0.5
  0
LINE
  5
257
330
1D
100
AcDbEntity
  8
0
 62
     0
100
AcDbLine
 10
21.66965
 20
97.5678
 30
0.0
 11
35.6692
 21
97.5678
 31
0.0
  0
CIRCLE
  5
258
330
1D
100
AcDbEntity
  8
0
  6
ByBlock
100
AcDbCircle
 10
28.669425
 20
90.56830000000001
 30
0.0
 40
2.0
  0
CIRCLE
  5
259
330
1D
100
AcDbEntity
  8
0
  6
ByBlock
100
AcDbCircle
 10
31.209425
 20
95.6483
 30
0.0
 40
0.75
  0
CIRCLE
  5
25A
330
1D
100
AcDbEntity
  8
0
  6
ByBlock
100
AcDbCircle
 10
24.85942499999999
 20
93.10830000000001
 30
0.0
 40
0.75
  0
CIRCLE
  5
25B
330
1D
100
AcDbEntity
  8
0
  6
ByBlock
100
AcDbCircle
 10
23.589425
 20
90.56830000000001
 30
0.0
 40
0.8500000000000001
  0
CIRCLE
  5
25C
330
1D
100
AcDbEntity
  8
0
  6
ByBlock
100
AcDbCircle
 10
33.749425
 20
90.56830000000001
 30
0.0
 40
0.75
  0
CIRCLE
  5
25D
330
1D
100
AcDbEntity
  8
0
  6
ByBlock
100
AcDbCircle
 10
29.93942499999999
 20
85.48830000000001
 30
0.0
 40
0.5
  0
CIRCLE
  5
25E
330
1D
100
AcDbEntity
  8
0
  6
ByBlock
100
AcDbCircle
 10
27.39942499999999
 20
85.48830000000001
 30
0.0
 40
0.5
  0
LINE
  5
25F
330
1D
100
AcDbEntity
  8
0
 62
     0
100
AcDbLine
 10
40.71965
 20
97.5678
 30
0.0
 11
54.7192
 21
97.5678
 31
0.0
  0
CIRCLE
  5
260
330
1D
100
AcDbEntity
  8
0
  6
ByBlock
100
AcDbCircle
 10
47.719425
 20
90.56830000000001
 30
0.0
 40
2.0
  0
CIRCLE
  5
261
330
1D
100
AcDbEntity
  8
0
  6
ByBlock
100
AcDbCircle
 10
50.25942500000001
 20
95.6483
 30
0.0
 40
0.75
  0
CIRCLE
  5
262
330
1D
100
AcDbEntity
  8
0
  6
ByBlock
100
AcDbCircle
 10
43.909425
 20
93.10830000000001
 30
0.0
 40
0.75
  0
CIRCLE
  5
263
330
1D
100
AcDbEntity
  8
0
  6
ByBlock
100
AcDbCircle
 10
42.639425
 20
90.56830000000001
 30
0.0
 40
0.8500000000000001
  0
CIRCLE
  5
264
330
1D
100
AcDbEntity
  8
0
  6
ByBlock
100
AcDbCircle
 10
52.799425
 20
90.56830000000001
 30
0.0
 40
0.75
  0
CIRCLE
  5
265
330
1D
100
AcDbEntity
  8
0
  6
ByBlock
100
AcDbCircle
 10
48.989425
 20
85.48830000000001
 30
0.0
 40
0.5
  0
CIRCLE
  5
266
330
1D
100
AcDbEntity
  8
0
  6
ByBlock
100
AcDbCircle
 10
46.44942500000001
 20
85.48830000000001
 30
0.0
 40
0.5
  0
LINE
  5
267
330
1D
100
AcDbEntity
  8
0
 62
     0
100
AcDbLine
 10
59.76965
 20
97.5678
 30
0.0
 11
73.7692
 21
97.5678
 31
0.0
  0
CIRCLE
  5
268
330
1D
100
AcDbEntity
  8
0
  6
ByBlock
100
AcDbCircle
 10
66.769425
 20
90.56830000000001
 30
0.0
 40
2.0
  0
CIRCLE
  5
269
330
1D
100
AcDbEntity
  8
0
  6
ByBlock
100
AcDbCircle
 10
69.30942499999999
 20
95.6483
 30
0.0
 40
0.75
  0
CIRCLE
  5
26A
330
1D
100
AcDbEntity
  8
0
  6
ByBlock
100
AcDbCircle
 10
62.959425
 20
93.10830000000001
 30
0.0
 40
0.75
  0
CIRCLE
  5
26B
330
1D
100
AcDbEntity
  8
0
  6
ByBlock
100
AcDbCircle
 10
61.68942499999999
 20
90.56830000000001
 30
0.0
 40
0.8500000000000001
  0
CIRCLE
  5
26C
330
1D
100
AcDbEntity
  8
0
  6
ByBlock
100
AcDbCircle
 10
71.84942499999998
 20
90.56830000000001
 30
0.0
 40
0.75
  0
CIRCLE
  5
26D
330
1D
100
AcDbEntity
  8
0
  6
ByBlock
100
AcDbCircle
 10
68.039425
 20
85.48830000000001
 30
0.0
 40
0.5
  0
CIRCLE
  5
26E
330
1D
100
AcDbEntity
  8
0
  6
ByBlock
100
AcDbCircle
 10
65.49942499999999
 20
85.48830000000001
 30
0.0
 40
0.5
  0
LINE
  5
26F
330
1D
100
AcDbEntity
  8
0
 62
     0
100
AcDbLine
 10
78.8197
 20
97.5678
 30
0.0
 11
92.81899999999999
 21
97.5678
 31
0.0
  0
LINE
  5
270
330
1D
100
AcDbEntity
  8
0
 62
     0
100
AcDbLine
 10
97.8697
 20
97.5678
 30
0.0
 11
111.869
 21
97.5678
 31
0.0
  0
LINE
  5
271
330
1D
100
AcDbEntity
  8
0
 62
     0
100
AcDbLine
 10
116.9197
 20
97.5678
 30
0.0
 11
130.919
 21
97.5678
 31
0.0
  0
LINE
  5
272
330
1D
100
AcDbEntity
  8
0
 62
     0
100
AcDbLine
 10
135.9697
 20
97.5678
 30
0.0
 11
149.969
 21
97.5678
 31
0.0
  0
LINE
  5
273
330
1D
100
AcDbEntity
  8
0
 62
     0
100
AcDbLine
 10
78.8197
 20
97.5678
 30
0.0
 11
92.81925
 21
97.5678
 31
0.0
  0
CIRCLE
  5
274
330
1D
100
AcDbEntity
  8
0
  6
ByBlock
100
AcDbCircle
 10
85.819475
 20
90.56830000000001
 30
0.0
 40
2.0
  0
CIRCLE
  5
275
330
1D
100
AcDbEntity
  8
0
  6
ByBlock
100
AcDbCircle
 10
88.359475
 20
95.6483
 30
0.0
 40
0.75
  0
CIRCLE
  5
276
330
1D
100
AcDbEntity
  8
0
  6
ByBlock
100
AcDbCircle
 10
82.009475
 20
93.10830000000001
 30
0.0
 40
0.75
  0
CIRCLE
  5
277
330
1D
100
AcDbEntity
  8
0
  6
ByBlock
100
AcDbCircle
 10
80.739475
 20
90.56830000000001
 30
0.0
 40
0.8500000000000001
  0
CIRCLE
  5
278
330
1D
100
AcDbEntity
  8
0
  6
ByBlock
100
AcDbCircle
 10
90.899475
 20
90.56830000000001
 30
0.0
 40
0.75
  0
CIRCLE
  5
279
330
1D
100
AcDbEntity
  8
0
  6
ByBlock
100
AcDbCircle
 10
87.089475
 20
85.48830000000001
 30
0.0
 40
0.5
  0
CIRCLE
  5
27A
330
1D
100
AcDbEntity
  8
0
  6
ByBlock
100
AcDbCircle
 10
84.549475
 20
85.48830000000001
 30
0.0
 40
0.5
  0
LINE
  5
27B
330
1D
100
AcDbEntity
  8
0
 62
     0
100
AcDbLine
 10
97.8697
 20
97.5678
 30
0.0
 11
111.86925
 21
97.5678
 31
0.0
  0
CIRCLE
  5
27C
330
1D
100
AcDbEntity
  8
0
  6
ByBlock
100
AcDbCircle
 10
104.869475
 20
90.56830000000001
 30
0.0
 40
2.0
  0
CIRCLE
  5
27D
330
1D
100
AcDbEntity
  8
0
  6
ByBlock
100
AcDbCircle
 10
107.409475
 20
95.6483
 30
0.0
 40
0.75
  0
CIRCLE
  5
27E
330
1D
100
AcDbEntity
  8
0
  6
ByBlock
100
AcDbCircle
 10
101.059475
 20
93.10830000000001
 30
0.0
 40
0.75
  0
CIRCLE
  5
27F
330
1D
100
AcDbEntity
  8
0
  6
ByBlock
100
AcDbCircle
 10
99.789475
 20
90.56830000000001
 30
0.0
 40
0.8500000000000001
  0
CIRCLE
  5
280
330
1D
100
AcDbEntity
  8
0
  6
ByBlock
100
AcDbCircle
 10
109.949475
 20
90.56830000000001
 30
0.0
 40
0.75
  0
CIRCLE
  5
281
330
1D
100
AcDbEntity
  8
0
  6
ByBlock
100
AcDbCircle
 10
106.139475
 20
85.48830000000001
 30
0.0
 40
0.5
  0
CIRCLE
  5
282
330
1D
100
AcDbEntity
  8
0
  6
ByBlock
100
AcDbCircle
 10
103.599475
 20
85.48830000000001
 30
0.0
 40
0.5
  0
LINE
  5
283
330
1D
100
AcDbEntity
  8
0
 62
     0
100
AcDbLine
 10
116.9197
 20
97.5678
 30
0.0
 11
130.91925
 21
97.5678
 31
0.0
  0
CIRCLE
  5
284
330
1D
100
AcDbEntity
  8
0
  6
ByBlock
100
AcDbCircle
 10
123.919475
 20
90.56830000000001
 30
0.0
 40
2.0
  0
CIRCLE
  5
285
330
1D
100
AcDbEntity
  8
0
  6
ByBlock
100
AcDbCircle
 10
126.459475
 20
95.6483
 30
0.0
 40
0.75
  0
CIRCLE
  5
286
330
1D
100
AcDbEntity
  8
0
  6
ByBlock
100
AcDbCircle
 10
120.109475
 20
93.10830000000001
 30
0.0
 40
0.75
  0
CIRCLE
  5
287
330
1D
100
AcDbEntity
  8
0
  6
ByBlock
100
AcDbCircle
 10
118.839475
 20
90.56830000000001
 30
0.0
 40
0.8500000000000001
  0
CIRCLE
  5
288
330
1D
100
AcDbEntity
  8
0
  6
ByBlock
100
AcDbCircle
 10
128.999475
 20
90.56830000000001
 30
0.0
 40
0.75
  0
CIRCLE
  5
289
330
1D
100
AcDbEntity
  8
0
  6
ByBlock
100
AcDbCircle
 10
125.189475
 20
85.48830000000001
 30
0.0
 40
0.5
  0
CIRCLE
  5
28A
330
1D
100
AcDbEntity
  8
0
  6
ByBlock
100
AcDbCircle
 10
122.649475
 20
85.48830000000001
 30
0.0
 40
0.5
  0
LINE
  5
28B
330
1D
100
AcDbEntity
  8
0
 62
     0
100
AcDbLine
 10
135.9697
 20
97.5678
 30
0.0
 11
149.96925
 21
97.5678
 31
0.0
  0
CIRCLE
  5
28C
330
1D
100
AcDbEntity
  8
0
  6
ByBlock
100
AcDbCircle
 10
142.969475
 20
90.56830000000001
 30
0.0
 40
2.0
  0
CIRCLE
  5
28D
330
1D
100
AcDbEntity
  8
0
  6
ByBlock
100
AcDbCircle
 10
145.509475
 20
95.6483
 30
0.0
 40
0.75
  0
CIRCLE
  5
28E
330
1D
100
AcDbEntity
  8
0
  6
ByBlock
100
AcDbCircle
 10
139.159475
 20
93.10830000000001
 30
0.0
 40
0.75
  0
CIRCLE
  5
28F
330
1D
100
AcDbEntity
  8
0
  6
ByBlock
100
AcDbCircle
 10
137.889475
 20
90.56830000000001
 30
0.0
 40
0.8500000000000001
  0
CIRCLE
  5
290
330
1D
100
AcDbEntity
  8
0
  6
ByBlock
100
AcDbCircle
 10
148.049475
 20
90.56830000000001
 30
0.0
 40
0.75
  0
CIRCLE
  5
291
330
1D
100
AcDbEntity
  8
0
  6
ByBlock
100
AcDbCircle
 10
144.239475
 20
85.48830000000001
 30
0.0
 40
0.5
  0
CIRCLE
  5
292
330
1D
100
AcDbEntity
  8
0
  6
ByBlock
100
AcDbCircle
 10
141.699475
 20
85.48830000000001
 30
0.0
 40
0.5
  0
LINE
  5
293
330
1D
100
AcDbEntity
  8
0
 62
     0
100
AcDbLine
 10
155.02
 20
97.5678
 30
0.0
 11
169.0193
 21
97.5678
 31
0.0
  0
LINE
  5
294
330
1D
100
AcDbEntity
  8
0
 62
     0
100
AcDbLine
 10
174.07
 20
97.5678
 30
0.0
 11
188.0693
 21
97.5678
 31
0.0
  0
LINE
  5
295
330
1D
100
AcDbEntity
  8
0
 62
     0
100
AcDbLine
 10
193.12
 20
97.5678
 30
0.0
 11
207.1193
 21
97.5678
 31
0.0
  0
LINE
  5
296
330
1D
100
AcDbEntity
  8
0
 62
     0
100
AcDbLine
 10
212.17
 20
97.5678
 30
0.0
 11
226.1693
 21
97.5678
 31
0.0
  0
LINE
  5
297
330
1D
100
AcDbEntity
  8
0
 62
     0
100
AcDbLine
 10
155.02
 20
97.5678
 30
0.0
 11
169.01955
 21
97.5678
 31
0.0
  0
CIRCLE
  5
298
330
1D
100
AcDbEntity
  8
0
  6
ByBlock
100
AcDbCircle
 10
162.019775
 20
90.56830000000001
 30
0.0
 40
2.0
  0
CIRCLE
  5
299
330
1D
100
AcDbEntity
  8
0
  6
ByBlock
100
AcDbCircle
 10
164.559775
 20
95.6483
 30
0.0
 40
0.75
  0
CIRCLE
  5
29A
330
1D
100
AcDbEntity
  8
0
  6
ByBlock
100
AcDbCircle
 10
158.209775
 20
93.10830000000001
 30
0.0
 40
0.75
  0
CIRCLE
  5
29B
330
1D
100
AcDbEntity
  8
0
  6
ByBlock
100
AcDbCircle
 10
156.939775
 20
90.56830000000001
 30
0.0
 40
0.8500000000000001
  0
CIRCLE
  5
29C
330
1D
100
AcDbEntity
  8
0
  6
ByBlock
100
AcDbCircle
 10
167.099775
 20
90.56830000000001
 30
0.0
 40
0.75
  0
CIRCLE
  5
29D
330
1D
100
AcDbEntity
  8
0
  6
ByBlock
100
AcDbCircle
 10
163.289775
 20
85.48830000000001
 30
0.0
 40
0.5
  0
CIRCLE
  5
29E
330
1D
100
AcDbEntity
  8
0
  6
ByBlock
100
AcDbCircle
 10
160.749775
 20
85.48830000000001
 30
0.0
 40
0.5
  0
LINE
  5
29F
330
1D
100
AcDbEntity
  8
0
 62
     0
100
AcDbLine
 10
174.07
 20
97.5678
 30
0.0
 11
188.06955
 21
97.5678
 31
0.0
  0
CIRCLE
  5
2A0
330
1D
100
AcDbEntity
  8
0
  6
ByBlock
100
AcDbCircle
 10
181.069775
 20
90.56830000000001
 30
0.0
 40
2.0
  0
CIRCLE
  5
2A1
330
1D
100
AcDbEntity
  8
0
  6
ByBlock
100
AcDbCircle
 10
183.609775
 20
95.6483
 30
0.0
 40
0.75
  0
CIRCLE
  5
2A2
330
1D
100
AcDbEntity
  8
0
  6
ByBlock
100
AcDbCircle
 10
177.259775
 20
93.10830000000001
 30
0.0
 40
0.75
  0
CIRCLE
  5
2A3
330
1D
100
AcDbEntity
  8
0
  6
ByBlock
100
AcDbCircle
 10
175.989775
 20
90.56830000000001
 30
0.0
 40
0.8500000000000001
  0
CIRCLE
  5
2A4
330
1D
100
AcDbEntity
  8
0
  6
ByBlock
100
AcDbCircle
 10
186.149775
 20
90.56830000000001
 30
0.0
 40
0.75
  0
CIRCLE
  5
2A5
330
1D
100
AcDbEntity
  8
0
  6
ByBlock
100
AcDbCircle
 10
182.339775
 20
85.48830000000001
 30
0.0
 40
0.5
  0
CIRCLE
  5
2A6
330
1D
100
AcDbEntity
  8
0
  6
ByBlock
100
AcDbCircle
 10
179.799775
 20
85.48830000000001
 30
0.0
 40
0.5
  0
LINE
  5
2A7
330
1D
100
AcDbEntity
  8
0
 62
     0
100
AcDbLine
 10
193.12
 20
97.5678
 30
0.0
 11
207.11955
 21
97.5678
 31
0.0
  0
CIRCLE
  5
2A8
330
1D
100
AcDbEntity
  8
0
  6
ByBlock
100
AcDbCircle
 10
200.119775
 20
90.56830000000001
 30
0.0
 40
2.0
  0
CIRCLE
  5
2A9
330
1D
100
AcDbEntity
  8
0
  6
ByBlock
100
AcDbCircle
 10
202.659775
 20
95.6483
 30
0.0
 40
0.75
  0
CIRCLE
  5
2AA
330
1D
100
AcDbEntity
  8
0
  6
ByBlock
100
AcDbCircle
 10
196.309775
 20
93.10830000000001
 30
0.0
 40
0.75
  0
CIRCLE
  5
2AB
330
1D
100
AcDbEntity
  8
0
  6
ByBlock
100
AcDbCircle
 10
195.039775
 20
90.56830000000001
 30
0.0
 40
0.8500000000000001
  0
CIRCLE
  5
2AC
330
1D
100
AcDbEntity
  8
0
  6
ByBlock
100
AcDbCircle
 10
205.199775
 20
90.56830000000001
 30
0.0
 40
0.75
  0
CIRCLE
  5
2AD
330
1D
100
AcDbEntity
  8
0
  6
ByBlock
100
AcDbCircle
 10
201.389775
 20
85.48830000000001
 30
0.0
 40
0.5
  0
CIRCLE
  5
2AE
330
1D
100
AcDbEntity
  8
0
  6
ByBlock
100
AcDbCircle
 10
198.849775
 20
85.48830000000001
 30
0.0
 40
0.5
  0
LINE
  5
2AF
330
1D
100
AcDbEntity
  8
0
 62
     0
100
AcDbLine
 10
212.17
 20
97.5678
 30
0.0
 11
226.16955
 21
97.5678
 31
0.0
  0
CIRCLE
  5
2B0
330
1D
100
AcDbEntity
  8
0
  6
ByBlock
100
AcDbCircle
 10
219.169775
 20
90.56830000000001
 30
0.0
 40
2.0
  0
CIRCLE
  5
2B1
330
1D
100
AcDbEntity
  8
0
  6
ByBlock
100
AcDbCircle
 10
221.709775
 20
95.6483
 30
0.0
 40
0.75
  0
CIRCLE
  5
2B2
330
1D
100
AcDbEntity
  8
0
  6
ByBlock
100
AcDbCircle
 10
215.359775
 20
93.10830000000001
 30
0.0
 40
0.75
  0
CIRCLE
  5
2B3
330
1D
100
AcDbEntity
  8
0
  6
ByBlock
100
AcDbCircle
 10
214.089775
 20
90.56830000000001
 30
0.0
 40
0.8500000000000001
  0
CIRCLE
  5
2B4
330
1D
100
AcDbEntity
  8
0
  6
ByBlock
100
AcDbCircle
 10
224.249775
 20
90.56830000000001
 30
0.0
 40
0.75
  0
CIRCLE
  5
2B5
330
1D
100
AcDbEntity
  8
0
  6
ByBlock
100
AcDbCircle
 10
220.439775
 20
85.48830000000001
 30
0.0
 40
0.5
  0
CIRCLE
  5
2B6
330
1D
100
AcDbEntity
  8
0
  6
ByBlock
100
AcDbCircle
 10
217.899775
 20
85.48830000000001
 30
0.0
 40
0.5
  0
CIRCLE
  5
2B7
330
1D
100
AcDbEntity
  8
0
  6
ByBlock
100
AcDbCircle
 10
281.081775
 20
114.3805
 30
0.0
 40
2.0
  0
CIRCLE
  5
2B8
330
1D
100
AcDbEntity
  8
0
  6
ByBlock
100
AcDbCircle
 10
283.621775
 20
119.4605
 30
0.0
 40
0.75
  0
CIRCLE
  5
2B9
330
1D
100
AcDbEntity
  8
0
  6
ByBlock
100
AcDbCircle
 10
277.271775
 20
116.9205
 30
0.0
 40
0.75
  0
CIRCLE
  5
2BA
330
1D
100
AcDbEntity
  8
0
  6
ByBlock
100
AcDbCircle
 10
276.001775
 20
114.3805
 30
0.0
 40
0.8500000000000001
  0
CIRCLE
  5
2BB
330
1D
100
AcDbEntity
  8
0
  6
ByBlock
100
AcDbCircle
 10
286.161775
 20
114.3805
 30
0.0
 40
0.75
  0
CIRCLE
  5
2BC
330
1D
100
AcDbEntity
  8
0
  6
ByBlock
100
AcDbCircle
 10
282.351775
 20
109.3005
 30
0.0
 40
0.5
  0
CIRCLE
  5
2BD
330
1D
100
AcDbEntity
  8
0
  6
ByBlock
100
AcDbCircle
 10
279.811775
 20
109.3005
 30
0.0
 40
0.5
  0
CIRCLE
  5
2BE
330
1D
100
AcDbEntity
  8
0
  6
ByBlock
100
AcDbCircle
 10
300.131775
 20
114.3805
 30
0.0
 40
2.0
  0
CIRCLE
  5
2BF
330
1D
100
AcDbEntity
  8
0
  6
ByBlock
100
AcDbCircle
 10
302.671775
 20
119.4605
 30
0.0
 40
0.75
  0
CIRCLE
  5
2C0
330
1D
100
AcDbEntity
  8
0
  6
ByBlock
100
AcDbCircle
 10
296.321775
 20
116.9205
 30
0.0
 40
0.75
  0
CIRCLE
  5
2C1
330
1D
100
AcDbEntity
  8
0
  6
ByBlock
100
AcDbCircle
 10
295.051775
 20
114.3805
 30
0.0
 40
0.8500000000000001
  0
CIRCLE
  5
2C2
330
1D
100
AcDbEntity
  8
0
  6
ByBlock
100
AcDbCircle
 10
305.211775
 20
114.3805
 30
0.0
 40
0.75
  0
CIRCLE
  5
2C3
330
1D
100
AcDbEntity
  8
0
  6
ByBlock
100
AcDbCircle
 10
301.401775
 20
109.3005
 30
0.0
 40
0.5
  0
CIRCLE
  5
2C4
330
1D
100
AcDbEntity
  8
0
  6
ByBlock
100
AcDbCircle
 10
298.861775
 20
109.3005
 30
0.0
 40
0.5
  0
LINE
  5
2C5
330
1D
100
AcDbEntity
  8
0
 62
     0
100
AcDbLine
 10
274.082
 20
121.38
 30
0.0
 11
288.081
 21
121.38
 31
0.0
  0
LINE
  5
2C6
330
1D
100
AcDbEntity
  8
0
 62
     0
100
AcDbLine
 10
293.1319999999999
 20
121.38
 30
0.0
 11
307.131
 21
121.38
 31
0.0
  0
LINE
  5
2C7
330
1D
100
AcDbEntity
  8
0
 62
     0
100
AcDbLine
 10
274.082
 20
121.38
 30
0.0
 11
288.0813
 21
121.38
 31
0.0
  0
LINE
  5
2C8
330
1D
100
AcDbEntity
  8
0
 62
     0
100
AcDbLine
 10
293.132
 20
121.38
 30
0.0
 11
307.1313
 21
121.38
 31
0.0
  0
LINE
  5
2C9
330
1D
100
AcDbEntity
  8
0
 62
     0
100
AcDbLine
 10
274.082
 20
121.38
 30
0.0
 11
288.08155
 21
121.38
 31
0.0
  0
LINE
  5
2CA
330
1D
100
AcDbEntity
  8
0
 62
     0
100
AcDbLine
 10
293.132
 20
121.38
 30
0.0
 11
307.13155
 21
121.38
 31
0.0
  0
CIRCLE
  5
2CB
330
1D
100
AcDbEntity
  8
0
  6
ByBlock
100
AcDbCircle
 10
238.219775
 20
90.56830000000001
 30
0.0
 40
2.0
  0
CIRCLE
  5
2CC
330
1D
100
AcDbEntity
  8
0
  6
ByBlock
100
AcDbCircle
 10
240.759775
 20
95.6483
 30
0.0
 40
0.75
  0
CIRCLE
  5
2CD
330
1D
100
AcDbEntity
  8
0
  6
ByBlock
100
AcDbCircle
 10
234.409775
 20
93.10830000000001
 30
0.0
 40
0.75
  0
CIRCLE
  5
2CE
330
1D
100
AcDbEntity
  8
0
  6
ByBlock
100
AcDbCircle
 10
233.139775
 20
90.56830000000001
 30
0.0
 40
0.8500000000000001
  0
CIRCLE
  5
2CF
330
1D
100
AcDbEntity
  8
0
  6
ByBlock
100
AcDbCircle
 10
243.299775
 20
90.56830000000001
 30
0.0
 40
0.75
  0
CIRCLE
  5
2D0
330
1D
100
AcDbEntity
  8
0
  6
ByBlock
100
AcDbCircle
 10
239.489775
 20
85.48830000000001
 30
0.0
 40
0.5
  0
CIRCLE
  5
2D1
330
1D
100
AcDbEntity
  8
0
  6
ByBlock
100
AcDbCircle
 10
236.949775
 20
85.48830000000001
 30
0.0
 40
0.5
  0
CIRCLE
  5
2D2
330
1D
100
AcDbEntity
  8
0
  6
ByBlock
100
AcDbCircle
 10
266.794775
 20
90.56830000000001
 30
0.0
 40
2.0
  0
CIRCLE
  5
2D3
330
1D
100
AcDbEntity
  8
0
  6
ByBlock
100
AcDbCircle
 10
269.334775
 20
95.6483
 30
0.0
 40
0.75
  0
CIRCLE
  5
2D4
330
1D
100
AcDbEntity
  8
0
  6
ByBlock
100
AcDbCircle
 10
262.984775
 20
93.10830000000001
 30
0.0
 40
0.75
  0
CIRCLE
  5
2D5
330
1D
100
AcDbEntity
  8
0
  6
ByBlock
100
AcDbCircle
 10
261.714775
 20
90.56830000000001
 30
0.0
 40
0.8500000000000001
  0
CIRCLE
  5
2D6
330
1D
100
AcDbEntity
  8
0
  6
ByBlock
100
AcDbCircle
 10
271.874775
 20
90.56830000000001
 30
0.0
 40
0.75
  0
CIRCLE
  5
2D7
330
1D
100
AcDbEntity
  8
0
  6
ByBlock
100
AcDbCircle
 10
268.0647749999999
 20
85.48830000000001
 30
0.0
 40
0.5
  0
CIRCLE
  5
2D8
330
1D
100
AcDbEntity
  8
0
  6
ByBlock
100
AcDbCircle
 10
265.524775
 20
85.48830000000001
 30
0.0
 40
0.5
  0
LINE
  5
2D9
330
1D
100
AcDbEntity
  8
0
 62
     0
100
AcDbLine
 10
231.22
 20
97.5678
 30
0.0
 11
245.219
 21
97.5678
 31
0.0
  0
LINE
  5
2DB
330
1D
100
AcDbEntity
  8
0
 62
     0
100
AcDbLine
 10
231.22
 20
97.5678
 30
0.0
 11
245.2193
 21
97.5678
 31
0.0
  0
LINE
  5
2DD
330
1D
100
AcDbEntity
  8
0
 62
     0
100
AcDbLine
 10
231.22
 20
97.5678
 30
0.0
 11
245.21955
 21
97.5678
 31
0.0
  0
LINE
  5
2DE
330
1D
100
AcDbEntity
  8
0
 62
     0
100
AcDbLine
 10
259.795
 20
97.5678
 30
0.0
 11
273.79455
 21
97.5678
 31
0.0
  0
LINE
  5
44A
330
1D
100
AcDbEntity
  8
0
 62
     0
100
AcDbLine
 10
31.19475
 20
78.5178
 30
0.0
 11
45.19405
 21
78.5178
 31
0.0
  0
LINE
  5
44B
330
1D
100
AcDbEntity
  8
0
 62
     0
100
AcDbLine
 10
50.24475000000001
 20
78.5178
 30
0.0
 11
64.24405
 21
78.5178
 31
0.0
  0
LINE
  5
44C
330
1D
100
AcDbEntity
  8
0
 62
     0
100
AcDbLine
 10
69.29475000000001
 20
78.5178
 30
0.0
 11
83.29405000000001
 21
78.5178
 31
0.0
  0
LINE
  5
44D
330
1D
100
AcDbEntity
  8
0
 62
     0
100
AcDbLine
 10
88.34475
 20
78.5178
 30
0.0
 11
102.34405
 21
78.5178
 31
0.0
  0
LINE
  5
44E
330
1D
100
AcDbEntity
  8
0
 62
     0
100
AcDbLine
 10
107.39335
 20
78.5178
 30
0.0
 11
121.39405
 21
78.5178
 31
0.0
  0
LINE
  5
44F
330
1D
100
AcDbEntity
  8
0
 62
     0
100
AcDbLine
 10
126.44305
 20
78.5178
 30
0.0
 11
140.44405
 21
78.5178
 31
0.0
  0
LINE
  5
450
330
1D
100
AcDbEntity
  8
0
 62
     0
100
AcDbLine
 10
145.49505
 20
78.5178
 30
0.0
 11
159.49405
 21
78.5178
 31
0.0
  0
LINE
  5
451
330
1D
100
AcDbEntity
  8
0
 62
     0
100
AcDbLine
 10
164.54505
 20
78.5178
 30
0.0
 11
178.54405
 21
78.5178
 31
0.0
  0
LINE
  5
452
330
1D
100
AcDbEntity
  8
0
 62
     0
100
AcDbLine
 10
183.59505
 20
78.5178
 30
0.0
 11
197.59405
 21
78.5178
 31
0.0
  0
LINE
  5
453
330
1D
100
AcDbEntity
  8
0
 62
     0
100
AcDbLine
 10
202.64505
 20
78.5178
 30
0.0
 11
216.64405
 21
78.5178
 31
0.0
  0
LINE
  5
454
330
1D
100
AcDbEntity
  8
0
 62
     0
100
AcDbLine
 10
221.69505
 20
78.5178
 30
0.0
 11
235.69405
 21
78.5178
 31
0.0
  0
LINE
  5
455
330
1D
100
AcDbEntity
  8
0
 62
     0
100
AcDbLine
 10
240.74505
 20
78.5178
 30
0.0
 11
254.74405
 21
78.5178
 31
0.0
  0
LINE
  5
456
330
1D
100
AcDbEntity
  8
0
 62
     0
100
AcDbLine
 10
31.1947
 20
78.5178
 30
0.0
 11
45.194
 21
78.5178
 31
0.0
  0
LINE
  5
457
330
1D
100
AcDbEntity
  8
0
 62
     0
100
AcDbLine
 10
50.24470000000001
 20
78.5178
 30
0.0
 11
64.244
 21
78.5178
 31
0.0
  0
LINE
  5
458
330
1D
100
AcDbEntity
  8
0
 62
     0
100
AcDbLine
 10
69.2947
 20
78.5178
 30
0.0
 11
83.29400000000001
 21
78.5178
 31
0.0
  0
LINE
  5
459
330
1D
100
AcDbEntity
  8
0
 62
     0
100
AcDbLine
 10
31.1947
 20
78.5178
 30
0.0
 11
45.19425
 21
78.5178
 31
0.0
  0
CIRCLE
  5
45A
330
1D
100
AcDbEntity
  8
0
  6
ByBlock
100
AcDbCircle
 10
38.194475
 20
71.5183
 30
0.0
 40
2.0
  0
CIRCLE
  5
45B
330
1D
100
AcDbEntity
  8
0
  6
ByBlock
100
AcDbCircle
 10
40.734475
 20
76.5983
 30
0.0
 40
0.75
  0
CIRCLE
  5
45C
330
1D
100
AcDbEntity
  8
0
  6
ByBlock
100
AcDbCircle
 10
34.38447499999999
 20
74.0583
 30
0.0
 40
0.75
  0
CIRCLE
  5
45D
330
1D
100
AcDbEntity
  8
0
  6
ByBlock
100
AcDbCircle
 10
33.114475
 20
71.5183
 30
0.0
 40
0.8500000000000001
  0
CIRCLE
  5
45E
330
1D
100
AcDbEntity
  8
0
  6
ByBlock
100
AcDbCircle
 10
43.274475
 20
71.5183
 30
0.0
 40
0.75
  0
CIRCLE
  5
45F
330
1D
100
AcDbEntity
  8
0
  6
ByBlock
100
AcDbCircle
 10
39.46447499999999
 20
66.4383
 30
0.0
 40
0.5
  0
CIRCLE
  5
460
330
1D
100
AcDbEntity
  8
0
  6
ByBlock
100
AcDbCircle
 10
36.924475
 20
66.4383
 30
0.0
 40
0.5
  0
LINE
  5
461
330
1D
100
AcDbEntity
  8
0
 62
     0
100
AcDbLine
 10
50.24470000000001
 20
78.5178
 30
0.0
 11
64.24425000000001
 21
78.5178
 31
0.0
  0
CIRCLE
  5
462
330
1D
100
AcDbEntity
  8
0
  6
ByBlock
100
AcDbCircle
 10
57.24447500000001
 20
71.5183
 30
0.0
 40
2.0
  0
CIRCLE
  5
463
330
1D
100
AcDbEntity
  8
0
  6
ByBlock
100
AcDbCircle
 10
59.78447500000001
 20
76.5983
 30
0.0
 40
0.75
  0
CIRCLE
  5
464
330
1D
100
AcDbEntity
  8
0
  6
ByBlock
100
AcDbCircle
 10
53.43447500000001
 20
74.0583
 30
0.0
 40
0.75
  0
CIRCLE
  5
465
330
1D
100
AcDbEntity
  8
0
  6
ByBlock
100
AcDbCircle
 10
52.16447500000001
 20
71.5183
 30
0.0
 40
0.8500000000000001
  0
CIRCLE
  5
466
330
1D
100
AcDbEntity
  8
0
  6
ByBlock
100
AcDbCircle
 10
62.32447500000001
 20
71.5183
 30
0.0
 40
0.75
  0
CIRCLE
  5
467
330
1D
100
AcDbEntity
  8
0
  6
ByBlock
100
AcDbCircle
 10
58.514475
 20
66.4383
 30
0.0
 40
0.5
  0
CIRCLE
  5
468
330
1D
100
AcDbEntity
  8
0
  6
ByBlock
100
AcDbCircle
 10
55.97447500000001
 20
66.4383
 30
0.0
 40
0.5
  0
LINE
  5
469
330
1D
100
AcDbEntity
  8
0
 62
     0
100
AcDbLine
 10
69.2947
 20
78.5178
 30
0.0
 11
83.29425
 21
78.5178
 31
0.0
  0
CIRCLE
  5
46A
330
1D
100
AcDbEntity
  8
0
  6
ByBlock
100
AcDbCircle
 10
76.294475
 20
71.5183
 30
0.0
 40
2.0
  0
CIRCLE
  5
46B
330
1D
100
AcDbEntity
  8
0
  6
ByBlock
100
AcDbCircle
 10
78.834475
 20
76.5983
 30
0.0
 40
0.75
  0
CIRCLE
  5
46C
330
1D
100
AcDbEntity
  8
0
  6
ByBlock
100
AcDbCircle
 10
72.484475
 20
74.0583
 30
0.0
 40
0.75
  0
CIRCLE
  5
46D
330
1D
100
AcDbEntity
  8
0
  6
ByBlock
100
AcDbCircle
 10
71.214475
 20
71.5183
 30
0.0
 40
0.8500000000000001
  0
CIRCLE
  5
46E
330
1D
100
AcDbEntity
  8
0
  6
ByBlock
100
AcDbCircle
 10
81.37447499999999
 20
71.5183
 30
0.0
 40
0.75
  0
CIRCLE
  5
46F
330
1D
100
AcDbEntity
  8
0
  6
ByBlock
100
AcDbCircle
 10
77.564475
 20
66.4383
 30
0.0
 40
0.5
  0
CIRCLE
  5
470
330
1D
100
AcDbEntity
  8
0
  6
ByBlock
100
AcDbCircle
 10
75.024475
 20
66.4383
 30
0.0
 40
0.5
  0
LINE
  5
471
330
1D
100
AcDbEntity
  8
0
 62
     0
100
AcDbLine
 10
88.34475
 20
78.5178
 30
0.0
 11
102.34405
 21
78.5178
 31
0.0
  0
LINE
  5
472
330
1D
100
AcDbEntity
  8
0
 62
     0
100
AcDbLine
 10
107.39475
 20
78.5178
 30
0.0
 11
121.39405
 21
78.5178
 31
0.0
  0
LINE
  5
473
330
1D
100
AcDbEntity
  8
0
 62
     0
100
AcDbLine
 10
126.44475
 20
78.5178
 30
0.0
 11
140.44405
 21
78.5178
 31
0.0
  0
LINE
  5
474
330
1D
100
AcDbEntity
  8
0
 62
     0
100
AcDbLine
 10
145.49475
 20
78.5178
 30
0.0
 11
159.49405
 21
78.5178
 31
0.0
  0
LINE
  5
475
330
1D
100
AcDbEntity
  8
0
 62
     0
100
AcDbLine
 10
88.34475
 20
78.5178
 30
0.0
 11
102.3443
 21
78.5178
 31
0.0
  0
CIRCLE
  5
476
330
1D
100
AcDbEntity
  8
0
  6
ByBlock
100
AcDbCircle
 10
95.344525
 20
71.5183
 30
0.0
 40
2.0
  0
CIRCLE
  5
477
330
1D
100
AcDbEntity
  8
0
  6
ByBlock
100
AcDbCircle
 10
97.88452500000001
 20
76.5983
 30
0.0
 40
0.75
  0
CIRCLE
  5
478
330
1D
100
AcDbEntity
  8
0
  6
ByBlock
100
AcDbCircle
 10
91.534525
 20
74.0583
 30
0.0
 40
0.75
  0
CIRCLE
  5
479
330
1D
100
AcDbEntity
  8
0
  6
ByBlock
100
AcDbCircle
 10
90.264525
 20
71.5183
 30
0.0
 40
0.8500000000000001
  0
CIRCLE
  5
47A
330
1D
100
AcDbEntity
  8
0
  6
ByBlock
100
AcDbCircle
 10
100.424525
 20
71.5183
 30
0.0
 40
0.75
  0
CIRCLE
  5
47B
330
1D
100
AcDbEntity
  8
0
  6
ByBlock
100
AcDbCircle
 10
96.614525
 20
66.4383
 30
0.0
 40
0.5
  0
CIRCLE
  5
47C
330
1D
100
AcDbEntity
  8
0
  6
ByBlock
100
AcDbCircle
 10
94.07452500000001
 20
66.4383
 30
0.0
 40
0.5
  0
LINE
  5
47D
330
1D
100
AcDbEntity
  8
0
 62
     0
100
AcDbLine
 10
107.39475
 20
78.5178
 30
0.0
 11
121.3943
 21
78.5178
 31
0.0
  0
CIRCLE
  5
47E
330
1D
100
AcDbEntity
  8
0
  6
ByBlock
100
AcDbCircle
 10
114.394525
 20
71.5183
 30
0.0
 40
2.0
  0
CIRCLE
  5
47F
330
1D
100
AcDbEntity
  8
0
  6
ByBlock
100
AcDbCircle
 10
116.934525
 20
76.5983
 30
0.0
 40
0.75
  0
CIRCLE
  5
480
330
1D
100
AcDbEntity
  8
0
  6
ByBlock
100
AcDbCircle
 10
110.584525
 20
74.0583
 30
0.0
 40
0.75
  0
CIRCLE
  5
481
330
1D
100
AcDbEntity
  8
0
  6
ByBlock
100
AcDbCircle
 10
109.314525
 20
71.5183
 30
0.0
 40
0.8500000000000001
  0
CIRCLE
  5
482
330
1D
100
AcDbEntity
  8
0
  6
ByBlock
100
AcDbCircle
 10
119.474525
 20
71.5183
 30
0.0
 40
0.75
  0
CIRCLE
  5
483
330
1D
100
AcDbEntity
  8
0
  6
ByBlock
100
AcDbCircle
 10
115.664525
 20
66.4383
 30
0.0
 40
0.5
  0
CIRCLE
  5
484
330
1D
100
AcDbEntity
  8
0
  6
ByBlock
100
AcDbCircle
 10
113.124525
 20
66.4383
 30
0.0
 40
0.5
  0
LINE
  5
485
330
1D
100
AcDbEntity
  8
0
 62
     0
100
AcDbLine
 10
126.44475
 20
78.5178
 30
0.0
 11
140.4443
 21
78.5178
 31
0.0
  0
CIRCLE
  5
486
330
1D
100
AcDbEntity
  8
0
  6
ByBlock
100
AcDbCircle
 10
133.444525
 20
71.5183
 30
0.0
 40
2.0
  0
CIRCLE
  5
487
330
1D
100
AcDbEntity
  8
0
  6
ByBlock
100
AcDbCircle
 10
135.984525
 20
76.5983
 30
0.0
 40
0.75
  0
CIRCLE
  5
488
330
1D
100
AcDbEntity
  8
0
  6
ByBlock
100
AcDbCircle
 10
129.634525
 20
74.0583
 30
0.0
 40
0.75
  0
CIRCLE
  5
489
330
1D
100
AcDbEntity
  8
0
  6
ByBlock
100
AcDbCircle
 10
128.364525
 20
71.5183
 30
0.0
 40
0.8500000000000001
  0
CIRCLE
  5
48A
330
1D
100
AcDbEntity
  8
0
  6
ByBlock
100
AcDbCircle
 10
138.524525
 20
71.5183
 30
0.0
 40
0.75
  0
CIRCLE
  5
48B
330
1D
100
AcDbEntity
  8
0
  6
ByBlock
100
AcDbCircle
 10
134.714525
 20
66.4383
 30
0.0
 40
0.5
  0
CIRCLE
  5
48C
330
1D
100
AcDbEntity
  8
0
  6
ByBlock
100
AcDbCircle
 10
132.174525
 20
66.4383
 30
0.0
 40
0.5
  0
LINE
  5
48D
330
1D
100
AcDbEntity
  8
0
 62
     0
100
AcDbLine
 10
145.49475
 20
78.5178
 30
0.0
 11
159.4943
 21
78.5178
 31
0.0
  0
CIRCLE
  5
48E
330
1D
100
AcDbEntity
  8
0
  6
ByBlock
100
AcDbCircle
 10
152.494525
 20
71.5183
 30
0.0
 40
2.0
  0
CIRCLE
  5
48F
330
1D
100
AcDbEntity
  8
0
  6
ByBlock
100
AcDbCircle
 10
155.034525
 20
76.5983
 30
0.0
 40
0.75
  0
CIRCLE
  5
490
330
1D
100
AcDbEntity
  8
0
  6
ByBlock
100
AcDbCircle
 10
148.684525
 20
74.0583
 30
0.0
 40
0.75
  0
CIRCLE
  5
491
330
1D
100
AcDbEntity
  8
0
  6
ByBlock
100
AcDbCircle
 10
147.414525
 20
71.5183
 30
0.0
 40
0.8500000000000001
  0
CIRCLE
  5
492
330
1D
100
AcDbEntity
  8
0
  6
ByBlock
100
AcDbCircle
 10
157.574525
 20
71.5183
 30
0.0
 40
0.75
  0
CIRCLE
  5
493
330
1D
100
AcDbEntity
  8
0
  6
ByBlock
100
AcDbCircle
 10
153.764525
 20
66.4383
 30
0.0
 40
0.5
  0
CIRCLE
  5
494
330
1D
100
AcDbEntity
  8
0
  6
ByBlock
100
AcDbCircle
 10
151.224525
 20
66.4383
 30
0.0
 40
0.5
  0
LINE
  5
495
330
1D
100
AcDbEntity
  8
0
 62
     0
100
AcDbLine
 10
164.54505
 20
78.5178
 30
0.0
 11
178.54435
 21
78.5178
 31
0.0
  0
LINE
  5
496
330
1D
100
AcDbEntity
  8
0
 62
     0
100
AcDbLine
 10
183.59505
 20
78.5178
 30
0.0
 11
197.59435
 21
78.5178
 31
0.0
  0
LINE
  5
497
330
1D
100
AcDbEntity
  8
0
 62
     0
100
AcDbLine
 10
202.64505
 20
78.5178
 30
0.0
 11
216.64435
 21
78.5178
 31
0.0
  0
LINE
  5
498
330
1D
100
AcDbEntity
  8
0
 62
     0
100
AcDbLine
 10
221.69505
 20
78.5178
 30
0.0
 11
235.69435
 21
78.5178
 31
0.0
  0
LINE
  5
499
330
1D
100
AcDbEntity
  8
0
 62
     0
100
AcDbLine
 10
164.54505
 20
78.5178
 30
0.0
 11
178.5446
 21
78.5178
 31
0.0
  0
CIRCLE
  5
49A
330
1D
100
AcDbEntity
  8
0
  6
ByBlock
100
AcDbCircle
 10
171.544825
 20
71.5183
 30
0.0
 40
2.0
  0
CIRCLE
  5
49B
330
1D
100
AcDbEntity
  8
0
  6
ByBlock
100
AcDbCircle
 10
174.084825
 20
76.5983
 30
0.0
 40
0.75
  0
CIRCLE
  5
49C
330
1D
100
AcDbEntity
  8
0
  6
ByBlock
100
AcDbCircle
 10
167.734825
 20
74.0583
 30
0.0
 40
0.75
  0
CIRCLE
  5
49D
330
1D
100
AcDbEntity
  8
0
  6
ByBlock
100
AcDbCircle
 10
166.464825
 20
71.5183
 30
0.0
 40
0.8500000000000001
  0
CIRCLE
  5
49E
330
1D
100
AcDbEntity
  8
0
  6
ByBlock
100
AcDbCircle
 10
176.624825
 20
71.5183
 30
0.0
 40
0.75
  0
CIRCLE
  5
49F
330
1D
100
AcDbEntity
  8
0
  6
ByBlock
100
AcDbCircle
 10
172.814825
 20
66.4383
 30
0.0
 40
0.5
  0
CIRCLE
  5
4A0
330
1D
100
AcDbEntity
  8
0
  6
ByBlock
100
AcDbCircle
 10
170.274825
 20
66.4383
 30
0.0
 40
0.5
  0
LINE
  5
4A1
330
1D
100
AcDbEntity
  8
0
 62
     0
100
AcDbLine
 10
183.59505
 20
78.5178
 30
0.0
 11
197.5946
 21
78.5178
 31
0.0
  0
CIRCLE
  5
4A2
330
1D
100
AcDbEntity
  8
0
  6
ByBlock
100
AcDbCircle
 10
190.594825
 20
71.5183
 30
0.0
 40
2.0
  0
CIRCLE
  5
4A3
330
1D
100
AcDbEntity
  8
0
  6
ByBlock
100
AcDbCircle
 10
193.134825
 20
76.5983
 30
0.0
 40
0.75
  0
CIRCLE
  5
4A4
330
1D
100
AcDbEntity
  8
0
  6
ByBlock
100
AcDbCircle
 10
186.784825
 20
74.0583
 30
0.0
 40
0.75
  0
CIRCLE
  5
4A5
330
1D
100
AcDbEntity
  8
0
  6
ByBlock
100
AcDbCircle
 10
185.514825
 20
71.5183
 30
0.0
 40
0.8500000000000001
  0
CIRCLE
  5
4A6
330
1D
100
AcDbEntity
  8
0
  6
ByBlock
100
AcDbCircle
 10
195.674825
 20
71.5183
 30
0.0
 40
0.75
  0
CIRCLE
  5
4A7
330
1D
100
AcDbEntity
  8
0
  6
ByBlock
100
AcDbCircle
 10
191.864825
 20
66.4383
 30
0.0
 40
0.5
  0
CIRCLE
  5
4A8
330
1D
100
AcDbEntity
  8
0
  6
ByBlock
100
AcDbCircle
 10
189.324825
 20
66.4383
 30
0.0
 40
0.5
  0
LINE
  5
4A9
330
1D
100
AcDbEntity
  8
0
 62
     0
100
AcDbLine
 10
202.64505
 20
78.5178
 30
0.0
 11
216.6446
 21
78.5178
 31
0.0
  0
CIRCLE
  5
4AA
330
1D
100
AcDbEntity
  8
0
  6
ByBlock
100
AcDbCircle
 10
209.644825
 20
71.5183
 30
0.0
 40
2.0
  0
CIRCLE
  5
4AB
330
1D
100
AcDbEntity
  8
0
  6
ByBlock
100
AcDbCircle
 10
212.184825
 20
76.5983
 30
0.0
 40
0.75
  0
CIRCLE
  5
4AC
330
1D
100
AcDbEntity
  8
0
  6
ByBlock
100
AcDbCircle
 10
205.834825
 20
74.0583
 30
0.0
 40
0.75
  0
CIRCLE
  5
4AD
330
1D
100
AcDbEntity
  8
0
  6
ByBlock
100
AcDbCircle
 10
204.564825
 20
71.5183
 30
0.0
 40
0.8500000000000001
  0
CIRCLE
  5
4AE
330
1D
100
AcDbEntity
  8
0
  6
ByBlock
100
AcDbCircle
 10
214.724825
 20
71.5183
 30
0.0
 40
0.75
  0
CIRCLE
  5
4AF
330
1D
100
AcDbEntity
  8
0
  6
ByBlock
100
AcDbCircle
 10
210.914825
 20
66.4383
 30
0.0
 40
0.5
  0
CIRCLE
  5
4B0
330
1D
100
AcDbEntity
  8
0
  6
ByBlock
100
AcDbCircle
 10
208.374825
 20
66.4383
 30
0.0
 40
0.5
  0
LINE
  5
4B1
330
1D
100
AcDbEntity
  8
0
 62
     0
100
AcDbLine
 10
221.69505
 20
78.5178
 30
0.0
 11
235.6946
 21
78.5178
 31
0.0
  0
CIRCLE
  5
4B2
330
1D
100
AcDbEntity
  8
0
  6
ByBlock
100
AcDbCircle
 10
228.694825
 20
71.5183
 30
0.0
 40
2.0
  0
CIRCLE
  5
4B3
330
1D
100
AcDbEntity
  8
0
  6
ByBlock
100
AcDbCircle
 10
231.234825
 20
76.5983
 30
0.0
 40
0.75
  0
CIRCLE
  5
4B4
330
1D
100
AcDbEntity
  8
0
  6
ByBlock
100
AcDbCircle
 10
224.884825
 20
74.0583
 30
0.0
 40
0.75
  0
CIRCLE
  5
4B5
330
1D
100
AcDbEntity
  8
0
  6
ByBlock
100
AcDbCircle
 10
223.614825
 20
71.5183
 30
0.0
 40
0.8500000000000001
  0
CIRCLE
  5
4B6
330
1D
100
AcDbEntity
  8
0
  6
ByBlock
100
AcDbCircle
 10
233.774825
 20
71.5183
 30
0.0
 40
0.75
  0
CIRCLE
  5
4B7
330
1D
100
AcDbEntity
  8
0
  6
ByBlock
100
AcDbCircle
 10
229.964825
 20
66.4383
 30
0.0
 40
0.5
  0
CIRCLE
  5
4B8
330
1D
100
AcDbEntity
  8
0
  6
ByBlock
100
AcDbCircle
 10
227.424825
 20
66.4383
 30
0.0
 40
0.5
  0
CIRCLE
  5
4B9
330
1D
100
AcDbEntity
  8
0
  6
ByBlock
100
AcDbCircle
 10
247.744825
 20
71.5183
 30
0.0
 40
2.0
  0
CIRCLE
  5
4BA
330
1D
100
AcDbEntity
  8
0
  6
ByBlock
100
AcDbCircle
 10
250.284825
 20
76.5983
 30
0.0
 40
0.75
  0
CIRCLE
  5
4BB
330
1D
100
AcDbEntity
  8
0
  6
ByBlock
100
AcDbCircle
 10
243.934825
 20
74.0583
 30
0.0
 40
0.75
  0
CIRCLE
  5
4BC
330
1D
100
AcDbEntity
  8
0
  6
ByBlock
100
AcDbCircle
 10
242.664825
 20
71.5183
 30
0.0
 40
0.8500000000000001
  0
CIRCLE
  5
4BD
330
1D
100
AcDbEntity
  8
0
  6
ByBlock
100
AcDbCircle
 10
252.824825
 20
71.5183
 30
0.0
 40
0.75
  0
CIRCLE
  5
4BE
330
1D
100
AcDbEntity
  8
0
  6
ByBlock
100
AcDbCircle
 10
249.014825
 20
66.4383
 30
0.0
 40
0.5
  0
CIRCLE
  5
4BF
330
1D
100
AcDbEntity
  8
0
  6
ByBlock
100
AcDbCircle
 10
246.474825
 20
66.4383
 30
0.0
 40
0.5
  0
LINE
  5
4C0
330
1D
100
AcDbEntity
  8
0
 62
     0
100
AcDbLine
 10
240.74505
 20
78.5178
 30
0.0
 11
254.74405
 21
78.5178
 31
0.0
  0
LINE
  5
4C1
330
1D
100
AcDbEntity
  8
0
 62
     0
100
AcDbLine
 10
240.74505
 20
78.5178
 30
0.0
 11
254.74435
 21
78.5178
 31
0.0
  0
LINE
  5
4C2
330
1D
100
AcDbEntity
  8
0
 62
     0
100
AcDbLine
 10
240.74505
 20
78.5178
 30
0.0
 11
254.7446
 21
78.5178
 31
0.0
  0
LINE
  5
4C3
330
1D
100
AcDbEntity
  8
0
 62
     0
100
AcDbLine
 10
35.95725
 20
59.4678
 30
0.0
 11
49.95655
 21
59.4678
 31
0.0
  0
LINE
  5
4C4
330
1D
100
AcDbEntity
  8
0
 62
     0
100
AcDbLine
 10
55.00725000000001
 20
59.4678
 30
0.0
 11
69.00655
 21
59.4678
 31
0.0
  0
LINE
  5
4C5
330
1D
100
AcDbEntity
  8
0
 62
     0
100
AcDbLine
 10
74.05725000000001
 20
59.4678
 30
0.0
 11
88.05655000000002
 21
59.4678
 31
0.0
  0
LINE
  5
4C6
330
1D
100
AcDbEntity
  8
0
 62
     0
100
AcDbLine
 10
93.10725
 20
59.4678
 30
0.0
 11
107.10655
 21
59.4678
 31
0.0
  0
LINE
  5
4C7
330
1D
100
AcDbEntity
  8
0
 62
     0
100
AcDbLine
 10
112.15585
 20
59.4678
 30
0.0
 11
126.15655
 21
59.4678
 31
0.0
  0
LINE
  5
4C8
330
1D
100
AcDbEntity
  8
0
 62
     0
100
AcDbLine
 10
131.20555
 20
59.4678
 30
0.0
 11
145.20655
 21
59.4678
 31
0.0
  0
LINE
  5
4C9
330
1D
100
AcDbEntity
  8
0
 62
     0
100
AcDbLine
 10
150.25755
 20
59.4678
 30
0.0
 11
164.25655
 21
59.4678
 31
0.0
  0
LINE
  5
4CA
330
1D
100
AcDbEntity
  8
0
 62
     0
100
AcDbLine
 10
169.30755
 20
59.4678
 30
0.0
 11
183.30655
 21
59.4678
 31
0.0
  0
LINE
  5
4CB
330
1D
100
AcDbEntity
  8
0
 62
     0
100
AcDbLine
 10
188.35755
 20
59.4678
 30
0.0
 11
202.35655
 21
59.4678
 31
0.0
  0
LINE
  5
4CC
330
1D
100
AcDbEntity
  8
0
 62
     0
100
AcDbLine
 10
207.40755
 20
59.4678
 30
0.0
 11
221.40655
 21
59.4678
 31
0.0
  0
LINE
  5
4CD
330
1D
100
AcDbEntity
  8
0
 62
     0
100
AcDbLine
 10
226.45755
 20
59.4678
 30
0.0
 11
240.45655
 21
59.4678
 31
0.0
  0
LINE
  5
4CF
330
1D
100
AcDbEntity
  8
0
 62
     0
100
AcDbLine
 10
35.9572
 20
59.4678
 30
0.0
 11
49.9565
 21
59.4678
 31
0.0
  0
LINE
  5
4D0
330
1D
100
AcDbEntity
  8
0
 62
     0
100
AcDbLine
 10
55.0072
 20
59.4678
 30
0.0
 11
69.00649999999999
 21
59.4678
 31
0.0
  0
LINE
  5
4D1
330
1D
100
AcDbEntity
  8
0
 62
     0
100
AcDbLine
 10
74.0572
 20
59.4678
 30
0.0
 11
88.0565
 21
59.4678
 31
0.0
  0
LINE
  5
4D2
330
1D
100
AcDbEntity
  8
0
 62
     0
100
AcDbLine
 10
35.9572
 20
59.4678
 30
0.0
 11
49.95675
 21
59.4678
 31
0.0
  0
CIRCLE
  5
4D3
330
1D
100
AcDbEntity
  8
0
  6
ByBlock
100
AcDbCircle
 10
42.956975
 20
52.4683
 30
0.0
 40
2.0
  0
CIRCLE
  5
4D4
330
1D
100
AcDbEntity
  8
0
  6
ByBlock
100
AcDbCircle
 10
45.496975
 20
57.5483
 30
0.0
 40
0.75
  0
CIRCLE
  5
4D5
330
1D
100
AcDbEntity
  8
0
  6
ByBlock
100
AcDbCircle
 10
39.146975
 20
55.00830000000001
 30
0.0
 40
0.75
  0
CIRCLE
  5
4D6
330
1D
100
AcDbEntity
  8
0
  6
ByBlock
100
AcDbCircle
 10
37.876975
 20
52.4683
 30
0.0
 40
0.8500000000000001
  0
CIRCLE
  5
4D7
330
1D
100
AcDbEntity
  8
0
  6
ByBlock
100
AcDbCircle
 10
48.036975
 20
52.4683
 30
0.0
 40
0.75
  0
CIRCLE
  5
4D8
330
1D
100
AcDbEntity
  8
0
  6
ByBlock
100
AcDbCircle
 10
44.226975
 20
47.3883
 30
0.0
 40
0.5
  0
CIRCLE
  5
4D9
330
1D
100
AcDbEntity
  8
0
  6
ByBlock
100
AcDbCircle
 10
41.686975
 20
47.3883
 30
0.0
 40
0.5
  0
LINE
  5
4DA
330
1D
100
AcDbEntity
  8
0
 62
     0
100
AcDbLine
 10
55.0072
 20
59.4678
 30
0.0
 11
69.00675000000001
 21
59.4678
 31
0.0
  0
CIRCLE
  5
4DB
330
1D
100
AcDbEntity
  8
0
  6
ByBlock
100
AcDbCircle
 10
62.006975
 20
52.4683
 30
0.0
 40
2.0
  0
CIRCLE
  5
4DC
330
1D
100
AcDbEntity
  8
0
  6
ByBlock
100
AcDbCircle
 10
64.546975
 20
57.5483
 30
0.0
 40
0.75
  0
CIRCLE
  5
4DD
330
1D
100
AcDbEntity
  8
0
  6
ByBlock
100
AcDbCircle
 10
58.196975
 20
55.00830000000001
 30
0.0
 40
0.75
  0
CIRCLE
  5
4DE
330
1D
100
AcDbEntity
  8
0
  6
ByBlock
100
AcDbCircle
 10
56.92697500000001
 20
52.4683
 30
0.0
 40
0.8500000000000001
  0
CIRCLE
  5
4DF
330
1D
100
AcDbEntity
  8
0
  6
ByBlock
100
AcDbCircle
 10
67.086975
 20
52.4683
 30
0.0
 40
0.75
  0
CIRCLE
  5
4E0
330
1D
100
AcDbEntity
  8
0
  6
ByBlock
100
AcDbCircle
 10
63.276975
 20
47.3883
 30
0.0
 40
0.5
  0
CIRCLE
  5
4E1
330
1D
100
AcDbEntity
  8
0
  6
ByBlock
100
AcDbCircle
 10
60.73697500000001
 20
47.3883
 30
0.0
 40
0.5
  0
LINE
  5
4E2
330
1D
100
AcDbEntity
  8
0
 62
     0
100
AcDbLine
 10
74.0572
 20
59.4678
 30
0.0
 11
88.05675
 21
59.4678
 31
0.0
  0
CIRCLE
  5
4E3
330
1D
100
AcDbEntity
  8
0
  6
ByBlock
100
AcDbCircle
 10
81.056975
 20
52.4683
 30
0.0
 40
2.0
  0
CIRCLE
  5
4E4
330
1D
100
AcDbEntity
  8
0
  6
ByBlock
100
AcDbCircle
 10
83.59697499999999
 20
57.5483
 30
0.0
 40
0.75
  0
CIRCLE
  5
4E5
330
1D
100
AcDbEntity
  8
0
  6
ByBlock
100
AcDbCircle
 10
77.24697499999999
 20
55.00830000000001
 30
0.0
 40
0.75
  0
CIRCLE
  5
4E6
330
1D
100
AcDbEntity
  8
0
  6
ByBlock
100
AcDbCircle
 10
75.97697499999998
 20
52.4683
 30
0.0
 40
0.8500000000000001
  0
CIRCLE
  5
4E7
330
1D
100
AcDbEntity
  8
0
  6
ByBlock
100
AcDbCircle
 10
86.13697499999998
 20
52.4683
 30
0.0
 40
0.75
  0
CIRCLE
  5
4E8
330
1D
100
AcDbEntity
  8
0
  6
ByBlock
100
AcDbCircle
 10
82.326975
 20
47.3883
 30
0.0
 40
0.5
  0
CIRCLE
  5
4E9
330
1D
100
AcDbEntity
  8
0
  6
ByBlock
100
AcDbCircle
 10
79.78697499999998
 20
47.3883
 30
0.0
 40
0.5
  0
LINE
  5
4EA
330
1D
100
AcDbEntity
  8
0
 62
     0
100
AcDbLine
 10
93.10725
 20
59.4678
 30
0.0
 11
107.10655
 21
59.4678
 31
0.0
  0
LINE
  5
4EB
330
1D
100
AcDbEntity
  8
0
 62
     0
100
AcDbLine
 10
112.15725
 20
59.4678
 30
0.0
 11
126.15655
 21
59.4678
 31
0.0
  0
LINE
  5
4EC
330
1D
100
AcDbEntity
  8
0
 62
     0
100
AcDbLine
 10
131.20725
 20
59.4678
 30
0.0
 11
145.20655
 21
59.4678
 31
0.0
  0
LINE
  5
4ED
330
1D
100
AcDbEntity
  8
0
 62
     0
100
AcDbLine
 10
150.25725
 20
59.4678
 30
0.0
 11
164.25655
 21
59.4678
 31
0.0
  0
LINE
  5
4EE
330
1D
100
AcDbEntity
  8
0
 62
     0
100
AcDbLine
 10
93.10725
 20
59.4678
 30
0.0
 11
107.1068
 21
59.4678
 31
0.0
  0
CIRCLE
  5
4EF
330
1D
100
AcDbEntity
  8
0
  6
ByBlock
100
AcDbCircle
 10
100.107025
 20
52.4683
 30
0.0
 40
2.0
  0
CIRCLE
  5
4F0
330
1D
100
AcDbEntity
  8
0
  6
ByBlock
100
AcDbCircle
 10
102.647025
 20
57.5483
 30
0.0
 40
0.75
  0
CIRCLE
  5
4F1
330
1D
100
AcDbEntity
  8
0
  6
ByBlock
100
AcDbCircle
 10
96.29702499999999
 20
55.00830000000001
 30
0.0
 40
0.75
  0
CIRCLE
  5
4F2
330
1D
100
AcDbEntity
  8
0
  6
ByBlock
100
AcDbCircle
 10
95.02702500000001
 20
52.4683
 30
0.0
 40
0.8500000000000001
  0
CIRCLE
  5
4F3
330
1D
100
AcDbEntity
  8
0
  6
ByBlock
100
AcDbCircle
 10
105.187025
 20
52.4683
 30
0.0
 40
0.75
  0
CIRCLE
  5
4F4
330
1D
100
AcDbEntity
  8
0
  6
ByBlock
100
AcDbCircle
 10
101.377025
 20
47.3883
 30
0.0
 40
0.5
  0
CIRCLE
  5
4F5
330
1D
100
AcDbEntity
  8
0
  6
ByBlock
100
AcDbCircle
 10
98.83702500000001
 20
47.3883
 30
0.0
 40
0.5
  0
LINE
  5
4F6
330
1D
100
AcDbEntity
  8
0
 62
     0
100
AcDbLine
 10
112.15725
 20
59.4678
 30
0.0
 11
126.1568
 21
59.4678
 31
0.0
  0
CIRCLE
  5
4F7
330
1D
100
AcDbEntity
  8
0
  6
ByBlock
100
AcDbCircle
 10
119.157025
 20
52.4683
 30
0.0
 40
2.0
  0
CIRCLE
  5
4F8
330
1D
100
AcDbEntity
  8
0
  6
ByBlock
100
AcDbCircle
 10
121.697025
 20
57.5483
 30
0.0
 40
0.75
  0
CIRCLE
  5
4F9
330
1D
100
AcDbEntity
  8
0
  6
ByBlock
100
AcDbCircle
 10
115.347025
 20
55.00830000000001
 30
0.0
 40
0.75
  0
CIRCLE
  5
4FA
330
1D
100
AcDbEntity
  8
0
  6
ByBlock
100
AcDbCircle
 10
114.077025
 20
52.4683
 30
0.0
 40
0.8500000000000001
  0
CIRCLE
  5
4FB
330
1D
100
AcDbEntity
  8
0
  6
ByBlock
100
AcDbCircle
 10
124.237025
 20
52.4683
 30
0.0
 40
0.75
  0
CIRCLE
  5
4FC
330
1D
100
AcDbEntity
  8
0
  6
ByBlock
100
AcDbCircle
 10
120.427025
 20
47.3883
 30
0.0
 40
0.5
  0
CIRCLE
  5
4FD
330
1D
100
AcDbEntity
  8
0
  6
ByBlock
100
AcDbCircle
 10
117.887025
 20
47.3883
 30
0.0
 40
0.5
  0
LINE
  5
4FE
330
1D
100
AcDbEntity
  8
0
 62
     0
100
AcDbLine
 10
131.20725
 20
59.4678
 30
0.0
 11
145.2068
 21
59.4678
 31
0.0
  0
CIRCLE
  5
4FF
330
1D
100
AcDbEntity
  8
0
  6
ByBlock
100
AcDbCircle
 10
138.207025
 20
52.4683
 30
0.0
 40
2.0
  0
CIRCLE
  5
500
330
1D
100
AcDbEntity
  8
0
  6
ByBlock
100
AcDbCircle
 10
140.747025
 20
57.5483
 30
0.0
 40
0.75
  0
CIRCLE
  5
501
330
1D
100
AcDbEntity
  8
0
  6
ByBlock
100
AcDbCircle
 10
134.397025
 20
55.00830000000001
 30
0.0
 40
0.75
  0
CIRCLE
  5
502
330
1D
100
AcDbEntity
  8
0
  6
ByBlock
100
AcDbCircle
 10
133.127025
 20
52.4683
 30
0.0
 40
0.8500000000000001
  0
CIRCLE
  5
503
330
1D
100
AcDbEntity
  8
0
  6
ByBlock
100
AcDbCircle
 10
143.287025
 20
52.4683
 30
0.0
 40
0.75
  0
CIRCLE
  5
504
330
1D
100
AcDbEntity
  8
0
  6
ByBlock
100
AcDbCircle
 10
139.477025
 20
47.3883
 30
0.0
 40
0.5
  0
CIRCLE
  5
505
330
1D
100
AcDbEntity
  8
0
  6
ByBlock
100
AcDbCircle
 10
136.937025
 20
47.3883
 30
0.0
 40
0.5
  0
LINE
  5
506
330
1D
100
AcDbEntity
  8
0
 62
     0
100
AcDbLine
 10
150.25725
 20
59.4678
 30
0.0
 11
164.2568
 21
59.4678
 31
0.0
  0
CIRCLE
  5
507
330
1D
100
AcDbEntity
  8
0
  6
ByBlock
100
AcDbCircle
 10
157.257025
 20
52.4683
 30
0.0
 40
2.0
  0
CIRCLE
  5
508
330
1D
100
AcDbEntity
  8
0
  6
ByBlock
100
AcDbCircle
 10
159.797025
 20
57.5483
 30
0.0
 40
0.75
  0
CIRCLE
  5
509
330
1D
100
AcDbEntity
  8
0
  6
ByBlock
100
AcDbCircle
 10
153.447025
 20
55.00830000000001
 30
0.0
 40
0.75
  0
CIRCLE
  5
50A
330
1D
100
AcDbEntity
  8
0
  6
ByBlock
100
AcDbCircle
 10
152.177025
 20
52.4683
 30
0.0
 40
0.8500000000000001
  0
CIRCLE
  5
50B
330
1D
100
AcDbEntity
  8
0
  6
ByBlock
100
AcDbCircle
 10
162.337025
 20
52.4683
 30
0.0
 40
0.75
  0
CIRCLE
  5
50C
330
1D
100
AcDbEntity
  8
0
  6
ByBlock
100
AcDbCircle
 10
158.527025
 20
47.3883
 30
0.0
 40
0.5
  0
CIRCLE
  5
50D
330
1D
100
AcDbEntity
  8
0
  6
ByBlock
100
AcDbCircle
 10
155.987025
 20
47.3883
 30
0.0
 40
0.5
  0
LINE
  5
50E
330
1D
100
AcDbEntity
  8
0
 62
     0
100
AcDbLine
 10
169.30755
 20
59.4678
 30
0.0
 11
183.30685
 21
59.4678
 31
0.0
  0
LINE
  5
50F
330
1D
100
AcDbEntity
  8
0
 62
     0
100
AcDbLine
 10
188.35755
 20
59.4678
 30
0.0
 11
202.35685
 21
59.4678
 31
0.0
  0
LINE
  5
510
330
1D
100
AcDbEntity
  8
0
 62
     0
100
AcDbLine
 10
207.40755
 20
59.4678
 30
0.0
 11
221.40685
 21
59.4678
 31
0.0
  0
LINE
  5
511
330
1D
100
AcDbEntity
  8
0
 62
     0
100
AcDbLine
 10
226.45755
 20
59.4678
 30
0.0
 11
240.45685
 21
59.4678
 31
0.0
  0
LINE
  5
512
330
1D
100
AcDbEntity
  8
0
 62
     0
100
AcDbLine
 10
169.30755
 20
59.4678
 30
0.0
 11
183.3071
 21
59.4678
 31
0.0
  0
CIRCLE
  5
513
330
1D
100
AcDbEntity
  8
0
  6
ByBlock
100
AcDbCircle
 10
176.307325
 20
52.4683
 30
0.0
 40
2.0
  0
CIRCLE
  5
514
330
1D
100
AcDbEntity
  8
0
  6
ByBlock
100
AcDbCircle
 10
178.847325
 20
57.5483
 30
0.0
 40
0.75
  0
CIRCLE
  5
515
330
1D
100
AcDbEntity
  8
0
  6
ByBlock
100
AcDbCircle
 10
172.497325
 20
55.00830000000001
 30
0.0
 40
0.75
  0
CIRCLE
  5
516
330
1D
100
AcDbEntity
  8
0
  6
ByBlock
100
AcDbCircle
 10
171.227325
 20
52.4683
 30
0.0
 40
0.8500000000000001
  0
CIRCLE
  5
517
330
1D
100
AcDbEntity
  8
0
  6
ByBlock
100
AcDbCircle
 10
181.387325
 20
52.4683
 30
0.0
 40
0.75
  0
CIRCLE
  5
518
330
1D
100
AcDbEntity
  8
0
  6
ByBlock
100
AcDbCircle
 10
177.577325
 20
47.3883
 30
0.0
 40
0.5
  0
CIRCLE
  5
519
330
1D
100
AcDbEntity
  8
0
  6
ByBlock
100
AcDbCircle
 10
175.037325
 20
47.3883
 30
0.0
 40
0.5
  0
LINE
  5
51A
330
1D
100
AcDbEntity
  8
0
 62
     0
100
AcDbLine
 10
188.35755
 20
59.4678
 30
0.0
 11
202.3571
 21
59.4678
 31
0.0
  0
CIRCLE
  5
51B
330
1D
100
AcDbEntity
  8
0
  6
ByBlock
100
AcDbCircle
 10
195.357325
 20
52.4683
 30
0.0
 40
2.0
  0
CIRCLE
  5
51C
330
1D
100
AcDbEntity
  8
0
  6
ByBlock
100
AcDbCircle
 10
197.897325
 20
57.5483
 30
0.0
 40
0.75
  0
CIRCLE
  5
51D
330
1D
100
AcDbEntity
  8
0
  6
ByBlock
100
AcDbCircle
 10
191.547325
 20
55.00830000000001
 30
0.0
 40
0.75
  0
CIRCLE
  5
51E
330
1D
100
AcDbEntity
  8
0
  6
ByBlock
100
AcDbCircle
 10
190.277325
 20
52.4683
 30
0.0
 40
0.8500000000000001
  0
CIRCLE
  5
51F
330
1D
100
AcDbEntity
  8
0
  6
ByBlock
100
AcDbCircle
 10
200.437325
 20
52.4683
 30
0.0
 40
0.75
  0
CIRCLE
  5
520
330
1D
100
AcDbEntity
  8
0
  6
ByBlock
100
AcDbCircle
 10
196.627325
 20
47.3883
 30
0.0
 40
0.5
  0
CIRCLE
  5
521
330
1D
100
AcDbEntity
  8
0
  6
ByBlock
100
AcDbCircle
 10
194.087325
 20
47.3883
 30
0.0
 40
0.5
  0
LINE
  5
522
330
1D
100
AcDbEntity
  8
0
 62
     0
100
AcDbLine
 10
207.40755
 20
59.4678
 30
0.0
 11
221.4071
 21
59.4678
 31
0.0
  0
CIRCLE
  5
523
330
1D
100
AcDbEntity
  8
0
  6
ByBlock
100
AcDbCircle
 10
214.407325
 20
52.4683
 30
0.0
 40
2.0
  0
CIRCLE
  5
524
330
1D
100
AcDbEntity
  8
0
  6
ByBlock
100
AcDbCircle
 10
216.947325
 20
57.5483
 30
0.0
 40
0.75
  0
CIRCLE
  5
525
330
1D
100
AcDbEntity
  8
0
  6
ByBlock
100
AcDbCircle
 10
210.597325
 20
55.00830000000001
 30
0.0
 40
0.75
  0
CIRCLE
  5
526
330
1D
100
AcDbEntity
  8
0
  6
ByBlock
100
AcDbCircle
 10
209.327325
 20
52.4683
 30
0.0
 40
0.8500000000000001
  0
CIRCLE
  5
527
330
1D
100
AcDbEntity
  8
0
  6
ByBlock
100
AcDbCircle
 10
219.487325
 20
52.4683
 30
0.0
 40
0.75
  0
CIRCLE
  5
528
330
1D
100
AcDbEntity
  8
0
  6
ByBlock
100
AcDbCircle
 10
215.677325
 20
47.3883
 30
0.0
 40
0.5
  0
CIRCLE
  5
529
330
1D
100
AcDbEntity
  8
0
  6
ByBlock
100
AcDbCircle
 10
213.137325
 20
47.3883
 30
0.0
 40
0.5
  0
LINE
  5
52A
330
1D
100
AcDbEntity
  8
0
 62
     0
100
AcDbLine
 10
226.45755
 20
59.4678
 30
0.0
 11
240.4571
 21
59.4678
 31
0.0
  0
CIRCLE
  5
52B
330
1D
100
AcDbEntity
  8
0
  6
ByBlock
100
AcDbCircle
 10
233.457325
 20
52.4683
 30
0.0
 40
2.0
  0
CIRCLE
  5
52C
330
1D
100
AcDbEntity
  8
0
  6
ByBlock
100
AcDbCircle
 10
235.997325
 20
57.5483
 30
0.0
 40
0.75
  0
CIRCLE
  5
52D
330
1D
100
AcDbEntity
  8
0
  6
ByBlock
100
AcDbCircle
 10
229.647325
 20
55.00830000000001
 30
0.0
 40
0.75
  0
CIRCLE
  5
52E
330
1D
100
AcDbEntity
  8
0
  6
ByBlock
100
AcDbCircle
 10
228.377325
 20
52.4683
 30
0.0
 40
0.8500000000000001
  0
CIRCLE
  5
52F
330
1D
100
AcDbEntity
  8
0
  6
ByBlock
100
AcDbCircle
 10
238.537325
 20
52.4683
 30
0.0
 40
0.75
  0
CIRCLE
  5
530
330
1D
100
AcDbEntity
  8
0
  6
ByBlock
100
AcDbCircle
 10
234.727325
 20
47.3883
 30
0.0
 40
0.5
  0
CIRCLE
  5
531
330
1D
100
AcDbEntity
  8
0
  6
ByBlock
100
AcDbCircle
 10
232.187325
 20
47.3883
 30
0.0
 40
0.5
  0
CIRCLE
  5
532
330
1D
100
AcDbEntity
  8
0
  6
ByBlock
100
AcDbCircle
 10
264.412775
 20
52.4683
 30
0.0
 40
2.0
  0
CIRCLE
  5
533
330
1D
100
AcDbEntity
  8
0
  6
ByBlock
100
AcDbCircle
 10
266.952775
 20
57.5483
 30
0.0
 40
0.75
  0
CIRCLE
  5
534
330
1D
100
AcDbEntity
  8
0
  6
ByBlock
100
AcDbCircle
 10
260.602775
 20
55.00830000000001
 30
0.0
 40
0.75
  0
CIRCLE
  5
535
330
1D
100
AcDbEntity
  8
0
  6
ByBlock
100
AcDbCircle
 10
259.332775
 20
52.4683
 30
0.0
 40
0.8500000000000001
  0
CIRCLE
  5
536
330
1D
100
AcDbEntity
  8
0
  6
ByBlock
100
AcDbCircle
 10
269.492775
 20
52.4683
 30
0.0
 40
0.75
  0
CIRCLE
  5
537
330
1D
100
AcDbEntity
  8
0
  6
ByBlock
100
AcDbCircle
 10
265.682775
 20
47.3883
 30
0.0
 40
0.5
  0
CIRCLE
  5
538
330
1D
100
AcDbEntity
  8
0
  6
ByBlock
100
AcDbCircle
 10
263.142775
 20
47.3883
 30
0.0
 40
0.5
  0
LINE
  5
53B
330
1D
100
AcDbEntity
  8
0
 62
     0
100
AcDbLine
 10
257.413
 20
59.4678
 30
0.0
 11
271.41255
 21
59.4678
 31
0.0
  0
LINE
  5
53C
330
1D
100
AcDbEntity
  8
0
 62
     0
100
AcDbLine
 10
45.4822
 20
40.4178
 30
0.0
 11
59.4815
 21
40.4178
 31
0.0
  0
LINE
  5
53D
330
1D
100
AcDbEntity
  8
0
 62
     0
100
AcDbLine
 10
64.53219999999999
 20
40.4178
 30
0.0
 11
78.5315
 21
40.4178
 31
0.0
  0
LINE
  5
53E
330
1D
100
AcDbEntity
  8
0
 62
     0
100
AcDbLine
 10
83.5822
 20
40.4178
 30
0.0
 11
97.5815
 21
40.4178
 31
0.0
  0
LINE
  5
53F
330
1D
100
AcDbEntity
  8
0
 62
     0
100
AcDbLine
 10
102.6322
 20
40.4178
 30
0.0
 11
116.632
 21
40.4178
 31
0.0
  0
LINE
  5
540
330
1D
100
AcDbEntity
  8
0
 62
     0
100
AcDbLine
 10
121.682
 20
40.4178
 30
0.0
 11
135.682
 21
40.4178
 31
0.0
  0
LINE
  5
541
330
1D
100
AcDbEntity
  8
0
 62
     0
100
AcDbLine
 10
140.732
 20
40.4178
 30
0.0
 11
154.732
 21
40.4178
 31
0.0
  0
LINE
  5
542
330
1D
100
AcDbEntity
  8
0
 62
     0
100
AcDbLine
 10
159.782
 20
40.4178
 30
0.0
 11
173.782
 21
40.4178
 31
0.0
  0
LINE
  5
543
330
1D
100
AcDbEntity
  8
0
 62
     0
100
AcDbLine
 10
178.832
 20
40.4178
 30
0.0
 11
192.832
 21
40.4178
 31
0.0
  0
LINE
  5
544
330
1D
100
AcDbEntity
  8
0
 62
     0
100
AcDbLine
 10
197.882
 20
40.4178
 30
0.0
 11
211.882
 21
40.4178
 31
0.0
  0
LINE
  5
545
330
1D
100
AcDbEntity
  8
0
 62
     0
100
AcDbLine
 10
216.932
 20
40.4178
 30
0.0
 11
230.932
 21
40.4178
 31
0.0
  0
LINE
  5
546
330
1D
100
AcDbEntity
  8
0
 62
     0
100
AcDbLine
 10
45.48225
 20
40.4178
 30
0.0
 11
59.48155
 21
40.4178
 31
0.0
  0
LINE
  5
547
330
1D
100
AcDbEntity
  8
0
 62
     0
100
AcDbLine
 10
64.53225
 20
40.4178
 30
0.0
 11
78.53155000000001
 21
40.4178
 31
0.0
  0
LINE
  5
548
330
1D
100
AcDbEntity
  8
0
 62
     0
100
AcDbLine
 10
83.58225000000002
 20
40.4178
 30
0.0
 11
97.58155000000002
 21
40.4178
 31
0.0
  0
LINE
  5
549
330
1D
100
AcDbEntity
  8
0
 62
     0
100
AcDbLine
 10
102.63225
 20
40.4178
 30
0.0
 11
116.63155
 21
40.4178
 31
0.0
  0
LINE
  5
54A
330
1D
100
AcDbEntity
  8
0
 62
     0
100
AcDbLine
 10
121.68085
 20
40.4178
 30
0.0
 11
135.68155
 21
40.4178
 31
0.0
  0
LINE
  5
54B
330
1D
100
AcDbEntity
  8
0
 62
     0
100
AcDbLine
 10
140.73055
 20
40.4178
 30
0.0
 11
154.73155
 21
40.4178
 31
0.0
  0
LINE
  5
54C
330
1D
100
AcDbEntity
  8
0
 62
     0
100
AcDbLine
 10
159.78255
 20
40.4178
 30
0.0
 11
173.78155
 21
40.4178
 31
0.0
  0
LINE
  5
54D
330
1D
100
AcDbEntity
  8
0
 62
     0
100
AcDbLine
 10
178.83255
 20
40.4178
 30
0.0
 11
192.83155
 21
40.4178
 31
0.0
  0
LINE
  5
54E
330
1D
100
AcDbEntity
  8
0
 62
     0
100
AcDbLine
 10
197.88255
 20
40.4178
 30
0.0
 11
211.88155
 21
40.4178
 31
0.0
  0
LINE
  5
54F
330
1D
100
AcDbEntity
  8
0
 62
     0
100
AcDbLine
 10
216.93255
 20
40.4178
 30
0.0
 11
230.93155
 21
40.4178
 31
0.0
  0
LINE
  5
550
330
1D
100
AcDbEntity
  8
0
 62
     0
100
AcDbLine
 10
45.4822
 20
40.4178
 30
0.0
 11
59.4815
 21
40.4178
 31
0.0
  0
LINE
  5
551
330
1D
100
AcDbEntity
  8
0
 62
     0
100
AcDbLine
 10
64.5322
 20
40.4178
 30
0.0
 11
78.5315
 21
40.4178
 31
0.0
  0
LINE
  5
552
330
1D
100
AcDbEntity
  8
0
 62
     0
100
AcDbLine
 10
83.5822
 20
40.4178
 30
0.0
 11
97.5815
 21
40.4178
 31
0.0
  0
LINE
  5
553
330
1D
100
AcDbEntity
  8
0
 62
     0
100
AcDbLine
 10
45.4822
 20
40.4178
 30
0.0
 11
59.48175
 21
40.4178
 31
0.0
  0
CIRCLE
  5
554
330
1D
100
AcDbEntity
  8
0
  6
ByBlock
100
AcDbCircle
 10
52.481975
 20
33.4183
 30
0.0
 40
2.0
  0
CIRCLE
  5
555
330
1D
100
AcDbEntity
  8
0
  6
ByBlock
100
AcDbCircle
 10
55.021975
 20
38.4983
 30
0.0
 40
0.75
  0
CIRCLE
  5
556
330
1D
100
AcDbEntity
  8
0
  6
ByBlock
100
AcDbCircle
 10
48.671975
 20
35.95830000000001
 30
0.0
 40
0.75
  0
CIRCLE
  5
557
330
1D
100
AcDbEntity
  8
0
  6
ByBlock
100
AcDbCircle
 10
47.401975
 20
33.4183
 30
0.0
 40
0.8500000000000001
  0
CIRCLE
  5
558
330
1D
100
AcDbEntity
  8
0
  6
ByBlock
100
AcDbCircle
 10
57.561975
 20
33.4183
 30
0.0
 40
0.75
  0
CIRCLE
  5
559
330
1D
100
AcDbEntity
  8
0
  6
ByBlock
100
AcDbCircle
 10
53.75197499999999
 20
28.3383
 30
0.0
 40
0.5
  0
CIRCLE
  5
55A
330
1D
100
AcDbEntity
  8
0
  6
ByBlock
100
AcDbCircle
 10
51.211975
 20
28.3383
 30
0.0
 40
0.5
  0
LINE
  5
55B
330
1D
100
AcDbEntity
  8
0
 62
     0
100
AcDbLine
 10
64.5322
 20
40.4178
 30
0.0
 11
78.53175000000002
 21
40.4178
 31
0.0
  0
CIRCLE
  5
55C
330
1D
100
AcDbEntity
  8
0
  6
ByBlock
100
AcDbCircle
 10
71.531975
 20
33.4183
 30
0.0
 40
2.0
  0
CIRCLE
  5
55D
330
1D
100
AcDbEntity
  8
0
  6
ByBlock
100
AcDbCircle
 10
74.07197500000001
 20
38.4983
 30
0.0
 40
0.75
  0
CIRCLE
  5
55E
330
1D
100
AcDbEntity
  8
0
  6
ByBlock
100
AcDbCircle
 10
67.721975
 20
35.95830000000001
 30
0.0
 40
0.75
  0
CIRCLE
  5
55F
330
1D
100
AcDbEntity
  8
0
  6
ByBlock
100
AcDbCircle
 10
66.451975
 20
33.4183
 30
0.0
 40
0.8500000000000001
  0
CIRCLE
  5
560
330
1D
100
AcDbEntity
  8
0
  6
ByBlock
100
AcDbCircle
 10
76.611975
 20
33.4183
 30
0.0
 40
0.75
  0
CIRCLE
  5
561
330
1D
100
AcDbEntity
  8
0
  6
ByBlock
100
AcDbCircle
 10
72.801975
 20
28.3383
 30
0.0
 40
0.5
  0
CIRCLE
  5
562
330
1D
100
AcDbEntity
  8
0
  6
ByBlock
100
AcDbCircle
 10
70.261975
 20
28.3383
 30
0.0
 40
0.5
  0
LINE
  5
563
330
1D
100
AcDbEntity
  8
0
 62
     0
100
AcDbLine
 10
83.5822
 20
40.4178
 30
0.0
 11
97.58175
 21
40.4178
 31
0.0
  0
CIRCLE
  5
564
330
1D
100
AcDbEntity
  8
0
  6
ByBlock
100
AcDbCircle
 10
90.581975
 20
33.4183
 30
0.0
 40
2.0
  0
CIRCLE
  5
565
330
1D
100
AcDbEntity
  8
0
  6
ByBlock
100
AcDbCircle
 10
93.12197499999999
 20
38.4983
 30
0.0
 40
0.75
  0
CIRCLE
  5
566
330
1D
100
AcDbEntity
  8
0
  6
ByBlock
100
AcDbCircle
 10
86.771975
 20
35.95830000000001
 30
0.0
 40
0.75
  0
CIRCLE
  5
567
330
1D
100
AcDbEntity
  8
0
  6
ByBlock
100
AcDbCircle
 10
85.50197499999999
 20
33.4183
 30
0.0
 40
0.8500000000000001
  0
CIRCLE
  5
568
330
1D
100
AcDbEntity
  8
0
  6
ByBlock
100
AcDbCircle
 10
95.66197499999998
 20
33.4183
 30
0.0
 40
0.75
  0
CIRCLE
  5
569
330
1D
100
AcDbEntity
  8
0
  6
ByBlock
100
AcDbCircle
 10
91.85197500000001
 20
28.3383
 30
0.0
 40
0.5
  0
CIRCLE
  5
56A
330
1D
100
AcDbEntity
  8
0
  6
ByBlock
100
AcDbCircle
 10
89.31197499999999
 20
28.3383
 30
0.0
 40
0.5
  0
LINE
  5
56B
330
1D
100
AcDbEntity
  8
0
 62
     0
100
AcDbLine
 10
102.63225
 20
40.4178
 30
0.0
 11
116.63155
 21
40.4178
 31
0.0
  0
LINE
  5
56C
330
1D
100
AcDbEntity
  8
0
 62
     0
100
AcDbLine
 10
121.68225
 20
40.4178
 30
0.0
 11
135.68155
 21
40.4178
 31
0.0
  0
LINE
  5
56D
330
1D
100
AcDbEntity
  8
0
 62
     0
100
AcDbLine
 10
140.73225
 20
40.4178
 30
0.0
 11
154.73155
 21
40.4178
 31
0.0
  0
LINE
  5
56E
330
1D
100
AcDbEntity
  8
0
 62
     0
100
AcDbLine
 10
159.78225
 20
40.4178
 30
0.0
 11
173.78155
 21
40.4178
 31
0.0
  0
LINE
  5
56F
330
1D
100
AcDbEntity
  8
0
 62
     0
100
AcDbLine
 10
102.63225
 20
40.4178
 30
0.0
 11
116.6318
 21
40.4178
 31
0.0
  0
CIRCLE
  5
570
330
1D
100
AcDbEntity
  8
0
  6
ByBlock
100
AcDbCircle
 10
109.632025
 20
33.4183
 30
0.0
 40
2.0
  0
CIRCLE
  5
571
330
1D
100
AcDbEntity
  8
0
  6
ByBlock
100
AcDbCircle
 10
112.172025
 20
38.4983
 30
0.0
 40
0.75
  0
CIRCLE
  5
572
330
1D
100
AcDbEntity
  8
0
  6
ByBlock
100
AcDbCircle
 10
105.822025
 20
35.95830000000001
 30
0.0
 40
0.75
  0
CIRCLE
  5
573
330
1D
100
AcDbEntity
  8
0
  6
ByBlock
100
AcDbCircle
 10
104.552025
 20
33.4183
 30
0.0
 40
0.8500000000000001
  0
CIRCLE
  5
574
330
1D
100
AcDbEntity
  8
0
  6
ByBlock
100
AcDbCircle
 10
114.712025
 20
33.4183
 30
0.0
 40
0.75
  0
CIRCLE
  5
575
330
1D
100
AcDbEntity
  8
0
  6
ByBlock
100
AcDbCircle
 10
110.902025
 20
28.3383
 30
0.0
 40
0.5
  0
CIRCLE
  5
576
330
1D
100
AcDbEntity
  8
0
  6
ByBlock
100
AcDbCircle
 10
108.362025
 20
28.3383
 30
0.0
 40
0.5
  0
LINE
  5
577
330
1D
100
AcDbEntity
  8
0
 62
     0
100
AcDbLine
 10
121.68225
 20
40.4178
 30
0.0
 11
135.6818
 21
40.4178
 31
0.0
  0
CIRCLE
  5
578
330
1D
100
AcDbEntity
  8
0
  6
ByBlock
100
AcDbCircle
 10
128.682025
 20
33.4183
 30
0.0
 40
2.0
  0
CIRCLE
  5
579
330
1D
100
AcDbEntity
  8
0
  6
ByBlock
100
AcDbCircle
 10
131.222025
 20
38.4983
 30
0.0
 40
0.75
  0
CIRCLE
  5
57A
330
1D
100
AcDbEntity
  8
0
  6
ByBlock
100
AcDbCircle
 10
124.872025
 20
35.95830000000001
 30
0.0
 40
0.75
  0
CIRCLE
  5
57B
330
1D
100
AcDbEntity
  8
0
  6
ByBlock
100
AcDbCircle
 10
123.602025
 20
33.4183
 30
0.0
 40
0.8500000000000001
  0
CIRCLE
  5
57C
330
1D
100
AcDbEntity
  8
0
  6
ByBlock
100
AcDbCircle
 10
133.762025
 20
33.4183
 30
0.0
 40
0.75
  0
CIRCLE
  5
57D
330
1D
100
AcDbEntity
  8
0
  6
ByBlock
100
AcDbCircle
 10
129.952025
 20
28.3383
 30
0.0
 40
0.5
  0
CIRCLE
  5
57E
330
1D
100
AcDbEntity
  8
0
  6
ByBlock
100
AcDbCircle
 10
127.412025
 20
28.3383
 30
0.0
 40
0.5
  0
LINE
  5
57F
330
1D
100
AcDbEntity
  8
0
 62
     0
100
AcDbLine
 10
140.73225
 20
40.4178
 30
0.0
 11
154.7318
 21
40.4178
 31
0.0
  0
CIRCLE
  5
580
330
1D
100
AcDbEntity
  8
0
  6
ByBlock
100
AcDbCircle
 10
147.732025
 20
33.4183
 30
0.0
 40
2.0
  0
CIRCLE
  5
581
330
1D
100
AcDbEntity
  8
0
  6
ByBlock
100
AcDbCircle
 10
150.272025
 20
38.4983
 30
0.0
 40
0.75
  0
CIRCLE
  5
582
330
1D
100
AcDbEntity
  8
0
  6
ByBlock
100
AcDbCircle
 10
143.922025
 20
35.95830000000001
 30
0.0
 40
0.75
  0
CIRCLE
  5
583
330
1D
100
AcDbEntity
  8
0
  6
ByBlock
100
AcDbCircle
 10
142.652025
 20
33.4183
 30
0.0
 40
0.8500000000000001
  0
CIRCLE
  5
584
330
1D
100
AcDbEntity
  8
0
  6
ByBlock
100
AcDbCircle
 10
152.812025
 20
33.4183
 30
0.0
 40
0.75
  0
CIRCLE
  5
585
330
1D
100
AcDbEntity
  8
0
  6
ByBlock
100
AcDbCircle
 10
149.002025
 20
28.3383
 30
0.0
 40
0.5
  0
CIRCLE
  5
586
330
1D
100
AcDbEntity
  8
0
  6
ByBlock
100
AcDbCircle
 10
146.462025
 20
28.3383
 30
0.0
 40
0.5
  0
LINE
  5
587
330
1D
100
AcDbEntity
  8
0
 62
     0
100
AcDbLine
 10
159.78225
 20
40.4178
 30
0.0
 11
173.7818
 21
40.4178
 31
0.0
  0
CIRCLE
  5
588
330
1D
100
AcDbEntity
  8
0
  6
ByBlock
100
AcDbCircle
 10
166.782025
 20
33.4183
 30
0.0
 40
2.0
  0
CIRCLE
  5
589
330
1D
100
AcDbEntity
  8
0
  6
ByBlock
100
AcDbCircle
 10
169.322025
 20
38.4983
 30
0.0
 40
0.75
  0
CIRCLE
  5
58A
330
1D
100
AcDbEntity
  8
0
  6
ByBlock
100
AcDbCircle
 10
162.972025
 20
35.95830000000001
 30
0.0
 40
0.75
  0
CIRCLE
  5
58B
330
1D
100
AcDbEntity
  8
0
  6
ByBlock
100
AcDbCircle
 10
161.702025
 20
33.4183
 30
0.0
 40
0.8500000000000001
  0
CIRCLE
  5
58C
330
1D
100
AcDbEntity
  8
0
  6
ByBlock
100
AcDbCircle
 10
171.862025
 20
33.4183
 30
0.0
 40
0.75
  0
CIRCLE
  5
58D
330
1D
100
AcDbEntity
  8
0
  6
ByBlock
100
AcDbCircle
 10
168.052025
 20
28.3383
 30
0.0
 40
0.5
  0
CIRCLE
  5
58E
330
1D
100
AcDbEntity
  8
0
  6
ByBlock
100
AcDbCircle
 10
165.512025
 20
28.3383
 30
0.0
 40
0.5
  0
LINE
  5
58F
330
1D
100
AcDbEntity
  8
0
 62
     0
100
AcDbLine
 10
178.83255
 20
40.4178
 30
0.0
 11
192.83185
 21
40.4178
 31
0.0
  0
LINE
  5
590
330
1D
100
AcDbEntity
  8
0
 62
     0
100
AcDbLine
 10
197.88255
 20
40.4178
 30
0.0
 11
211.88185
 21
40.4178
 31
0.0
  0
LINE
  5
591
330
1D
100
AcDbEntity
  8
0
 62
     0
100
AcDbLine
 10
216.93255
 20
40.4178
 30
0.0
 11
230.93185
 21
40.4178
 31
0.0
  0
LINE
  5
592
330
1D
100
AcDbEntity
  8
0
 62
     0
100
AcDbLine
 10
178.83255
 20
40.4178
 30
0.0
 11
192.8321
 21
40.4178
 31
0.0
  0
CIRCLE
  5
593
330
1D
100
AcDbEntity
  8
0
  6
ByBlock
100
AcDbCircle
 10
185.832325
 20
33.4183
 30
0.0
 40
2.0
  0
CIRCLE
  5
594
330
1D
100
AcDbEntity
  8
0
  6
ByBlock
100
AcDbCircle
 10
188.372325
 20
38.4983
 30
0.0
 40
0.75
  0
CIRCLE
  5
595
330
1D
100
AcDbEntity
  8
0
  6
ByBlock
100
AcDbCircle
 10
182.022325
 20
35.95830000000001
 30
0.0
 40
0.75
  0
CIRCLE
  5
596
330
1D
100
AcDbEntity
  8
0
  6
ByBlock
100
AcDbCircle
 10
180.752325
 20
33.4183
 30
0.0
 40
0.8500000000000001
  0
CIRCLE
  5
597
330
1D
100
AcDbEntity
  8
0
  6
ByBlock
100
AcDbCircle
 10
190.912325
 20
33.4183
 30
0.0
 40
0.75
  0
CIRCLE
  5
598
330
1D
100
AcDbEntity
  8
0
  6
ByBlock
100
AcDbCircle
 10
187.102325
 20
28.3383
 30
0.0
 40
0.5
  0
CIRCLE
  5
599
330
1D
100
AcDbEntity
  8
0
  6
ByBlock
100
AcDbCircle
 10
184.562325
 20
28.3383
 30
0.0
 40
0.5
  0
LINE
  5
59A
330
1D
100
AcDbEntity
  8
0
 62
     0
100
AcDbLine
 10
197.88255
 20
40.4178
 30
0.0
 11
211.8821
 21
40.4178
 31
0.0
  0
CIRCLE
  5
59B
330
1D
100
AcDbEntity
  8
0
  6
ByBlock
100
AcDbCircle
 10
204.882325
 20
33.4183
 30
0.0
 40
2.0
  0
CIRCLE
  5
59C
330
1D
100
AcDbEntity
  8
0
  6
ByBlock
100
AcDbCircle
 10
207.422325
 20
38.4983
 30
0.0
 40
0.75
  0
CIRCLE
  5
59D
330
1D
100
AcDbEntity
  8
0
  6
ByBlock
100
AcDbCircle
 10
201.072325
 20
35.95830000000001
 30
0.0
 40
0.75
  0
CIRCLE
  5
59E
330
1D
100
AcDbEntity
  8
0
  6
ByBlock
100
AcDbCircle
 10
199.802325
 20
33.4183
 30
0.0
 40
0.8500000000000001
  0
CIRCLE
  5
59F
330
1D
100
AcDbEntity
  8
0
  6
ByBlock
100
AcDbCircle
 10
209.962325
 20
33.4183
 30
0.0
 40
0.75
  0
CIRCLE
  5
5A0
330
1D
100
AcDbEntity
  8
0
  6
ByBlock
100
AcDbCircle
 10
206.152325
 20
28.3383
 30
0.0
 40
0.5
  0
CIRCLE
  5
5A1
330
1D
100
AcDbEntity
  8
0
  6
ByBlock
100
AcDbCircle
 10
203.612325
 20
28.3383
 30
0.0
 40
0.5
  0
LINE
  5
5A2
330
1D
100
AcDbEntity
  8
0
 62
     0
100
AcDbLine
 10
216.93255
 20
40.4178
 30
0.0
 11
230.9321
 21
40.4178
 31
0.0
  0
CIRCLE
  5
5A3
330
1D
100
AcDbEntity
  8
0
  6
ByBlock
100
AcDbCircle
 10
223.932325
 20
33.4183
 30
0.0
 40
2.0
  0
CIRCLE
  5
5A4
330
1D
100
AcDbEntity
  8
0
  6
ByBlock
100
AcDbCircle
 10
226.472325
 20
38.4983
 30
0.0
 40
0.75
  0
CIRCLE
  5
5A5
330
1D
100
AcDbEntity
  8
0
  6
ByBlock
100
AcDbCircle
 10
220.122325
 20
35.95830000000001
 30
0.0
 40
0.75
  0
CIRCLE
  5
5A6
330
1D
100
AcDbEntity
  8
0
  6
ByBlock
100
AcDbCircle
 10
218.852325
 20
33.4183
 30
0.0
 40
0.8500000000000001
  0
CIRCLE
  5
5A7
330
1D
100
AcDbEntity
  8
0
  6
ByBlock
100
AcDbCircle
 10
229.012325
 20
33.4183
 30
0.0
 40
0.75
  0
CIRCLE
  5
5A8
330
1D
100
AcDbEntity
  8
0
  6
ByBlock
100
AcDbCircle
 10
225.202325
 20
28.3383
 30
0.0
 40
0.5
  0
CIRCLE
  5
5A9
330
1D
100
AcDbEntity
  8
0
  6
ByBlock
100
AcDbCircle
 10
222.662325
 20
28.3383
 30
0.0
 40
0.5
  0
LINE
  5
5AA
330
1D
100
AcDbEntity
  8
0
 62
     0
100
AcDbLine
 10
193.11945
 20
21.3679
 30
0.0
 11
207.11945
 21
21.3679
 31
0.0
  0
LINE
  5
5AB
330
1D
100
AcDbEntity
  8
0
 62
     0
100
AcDbLine
 10
193.11945
 20
21.3679
 30
0.0
 11
207.11945
 21
21.3679
 31
0.0
  0
LINE
  5
5AC
330
1D
100
AcDbEntity
  8
0
 62
     0
100
AcDbLine
 10
193.12
 20
21.3679
 30
0.0
 11
207.119
 21
21.3679
 31
0.0
  0
LINE
  5
5AD
330
1D
100
AcDbEntity
  8
0
 62
     0
100
AcDbLine
 10
193.12
 20
21.3679
 30
0.0
 11
207.1193
 21
21.3679
 31
0.0
  0
LINE
  5
5AE
330
1D
100
AcDbEntity
  8
0
 62
     0
100
AcDbLine
 10
193.12
 20
21.3679
 30
0.0
 11
207.11955
 21
21.3679
 31
0.0
  0
CIRCLE
  5
5AF
330
1D
100
AcDbEntity
  8
0
  6
ByBlock
100
AcDbCircle
 10
200.119775
 20
14.3684
 30
0.0
 40
2.0
  0
CIRCLE
  5
5B0
330
1D
100
AcDbEntity
  8
0
  6
ByBlock
100
AcDbCircle
 10
202.659775
 20
19.4484
 30
0.0
 40
0.75
  0
CIRCLE
  5
5B1
330
1D
100
AcDbEntity
  8
0
  6
ByBlock
100
AcDbCircle
 10
196.309775
 20
16.90840000000001
 30
0.0
 40
0.75
  0
CIRCLE
  5
5B2
330
1D
100
AcDbEntity
  8
0
  6
ByBlock
100
AcDbCircle
 10
195.039775
 20
14.3684
 30
0.0
 40
0.8500000000000001
  0
CIRCLE
  5
5B3
330
1D
100
AcDbEntity
  8
0
  6
ByBlock
100
AcDbCircle
 10
205.199775
 20
14.3684
 30
0.0
 40
0.75
  0
CIRCLE
  5
5B4
330
1D
100
AcDbEntity
  8
0
  6
ByBlock
100
AcDbCircle
 10
201.389775
 20
9.288400000000003
 30
0.0
 40
0.5
  0
CIRCLE
  5
5B5
330
1D
100
AcDbEntity
  8
0
  6
ByBlock
100
AcDbCircle
 10
198.849775
 20
9.288400000000003
 30
0.0
 40
0.5
  0
LINE
  5
5C2
330
1D
100
AcDbEntity
  8
0
 62
     0
100
AcDbLine
 10
212.16945
 20
21.3679
 30
0.0
 11
226.16945
 21
21.3679
 31
0.0
  0
LINE
  5
5C3
330
1D
100
AcDbEntity
  8
0
 62
     0
100
AcDbLine
 10
212.16945
 20
21.3679
 30
0.0
 11
226.16945
 21
21.3679
 31
0.0
  0
LINE
  5
5C4
330
1D
100
AcDbEntity
  8
0
 62
     0
100
AcDbLine
 10
212.17
 20
21.3679
 30
0.0
 11
226.169
 21
21.3679
 31
0.0
  0
LINE
  5
5C5
330
1D
100
AcDbEntity
  8
0
 62
     0
100
AcDbLine
 10
212.17
 20
21.3679
 30
0.0
 11
226.1693
 21
21.3679
 31
0.0
  0
LINE
  5
5C6
330
1D
100
AcDbEntity
  8
0
 62
     0
100
AcDbLine
 10
212.17
 20
21.3679
 30
0.0
 11
226.16955
 21
21.3679
 31
0.0
  0
CIRCLE
  5
5C7
330
1D
100
AcDbEntity
  8
0
  6
ByBlock
100
AcDbCircle
 10
219.169775
 20
14.3684
 30
0.0
 40
2.0
  0
CIRCLE
  5
5C8
330
1D
100
AcDbEntity
  8
0
  6
ByBlock
100
AcDbCircle
 10
221.709775
 20
19.4484
 30
0.0
 40
0.75
  0
CIRCLE
  5
5C9
330
1D
100
AcDbEntity
  8
0
  6
ByBlock
100
AcDbCircle
 10
215.359775
 20
16.90840000000001
 30
0.0
 40
0.75
  0
CIRCLE
  5
5CA
330
1D
100
AcDbEntity
  8
0
  6
ByBlock
100
AcDbCircle
 10
214.089775
 20
14.3684
 30
0.0
 40
0.8500000000000001
  0
CIRCLE
  5
5CB
330
1D
100
AcDbEntity
  8
0
  6
ByBlock
100
AcDbCircle
 10
224.249775
 20
14.3684
 30
0.0
 40
0.75
  0
CIRCLE
  5
5CC
330
1D
100
AcDbEntity
  8
0
  6
ByBlock
100
AcDbCircle
 10
220.439775
 20
9.288400000000003
 30
0.0
 40
0.5
  0
CIRCLE
  5
5CD
330
1D
100
AcDbEntity
  8
0
  6
ByBlock
100
AcDbCircle
 10
217.899775
 20
9.288400000000003
 30
0.0
 40
0.5
  0
LINE
  5
5CE
330
1D
100
AcDbEntity
  8
0
 62
     0
100
AcDbLine
 10
231.21945
 20
21.3679
 30
0.0
 11
245.21945
 21
21.3679
 31
0.0
  0
LINE
  5
5CF
330
1D
100
AcDbEntity
  8
0
 62
     0
100
AcDbLine
 10
231.21945
 20
21.3679
 30
0.0
 11
245.21945
 21
21.3679
 31
0.0
  0
LINE
  5
5D0
330
1D
100
AcDbEntity
  8
0
 62
     0
100
AcDbLine
 10
231.22
 20
21.3679
 30
0.0
 11
245.219
 21
21.3679
 31
0.0
  0
LINE
  5
5D1
330
1D
100
AcDbEntity
  8
0
 62
     0
100
AcDbLine
 10
231.22
 20
21.3679
 30
0.0
 11
245.2193
 21
21.3679
 31
0.0
  0
LINE
  5
5D2
330
1D
100
AcDbEntity
  8
0
 62
     0
100
AcDbLine
 10
231.22
 20
21.3679
 30
0.0
 11
245.21955
 21
21.3679
 31
0.0
  0
CIRCLE
  5
5D3
330
1D
100
AcDbEntity
  8
0
  6
ByBlock
100
AcDbCircle
 10
238.219775
 20
14.3684
 30
0.0
 40
2.0
  0
CIRCLE
  5
5D4
330
1D
100
AcDbEntity
  8
0
  6
ByBlock
100
AcDbCircle
 10
240.759775
 20
19.4484
 30
0.0
 40
0.75
  0
CIRCLE
  5
5D5
330
1D
100
AcDbEntity
  8
0
  6
ByBlock
100
AcDbCircle
 10
234.409775
 20
16.90840000000001
 30
0.0
 40
0.75
  0
CIRCLE
  5
5D6
330
1D
100
AcDbEntity
  8
0
  6
ByBlock
100
AcDbCircle
 10
233.139775
 20
14.3684
 30
0.0
 40
0.8500000000000001
  0
CIRCLE
  5
5D7
330
1D
100
AcDbEntity
  8
0
  6
ByBlock
100
AcDbCircle
 10
243.299775
 20
14.3684
 30
0.0
 40
0.75
  0
CIRCLE
  5
5D8
330
1D
100
AcDbEntity
  8
0
  6
ByBlock
100
AcDbCircle
 10
239.489775
 20
9.288400000000003
 30
0.0
 40
0.5
  0
CIRCLE
  5
5D9
330
1D
100
AcDbEntity
  8
0
  6
ByBlock
100
AcDbCircle
 10
236.949775
 20
9.288400000000003
 30
0.0
 40
0.5
  0
LINE
  5
5DA
330
1D
100
AcDbEntity
  8
0
 62
     0
100
AcDbLine
 10
243.12545
 20
40.4178
 30
0.0
 11
257.12545
 21
40.4178
 31
0.0
  0
LINE
  5
5DB
330
1D
100
AcDbEntity
  8
0
 62
     0
100
AcDbLine
 10
243.12545
 20
40.4178
 30
0.0
 11
257.12545
 21
40.4178
 31
0.0
  0
LINE
  5
5DC
330
1D
100
AcDbEntity
  8
0
 62
     0
100
AcDbLine
 10
243.126
 20
40.4178
 30
0.0
 11
257.125
 21
40.4178
 31
0.0
  0
LINE
  5
5DD
330
1D
100
AcDbEntity
  8
0
 62
     0
100
AcDbLine
 10
243.126
 20
40.4178
 30
0.0
 11
257.1253
 21
40.4178
 31
0.0
  0
LINE
  5
5DE
330
1D
100
AcDbEntity
  8
0
 62
     0
100
AcDbLine
 10
243.126
 20
40.4178
 30
0.0
 11
257.12555
 21
40.4178
 31
0.0
  0
CIRCLE
  5
5DF
330
1D
100
AcDbEntity
  8
0
  6
ByBlock
100
AcDbCircle
 10
250.125775
 20
33.4183
 30
0.0
 40
2.0
  0
CIRCLE
  5
5E0
330
1D
100
AcDbEntity
  8
0
  6
ByBlock
100
AcDbCircle
 10
252.665775
 20
38.4983
 30
0.0
 40
0.75
  0
CIRCLE
  5
5E1
330
1D
100
AcDbEntity
  8
0
  6
ByBlock
100
AcDbCircle
 10
246.315775
 20
35.95830000000001
 30
0.0
 40
0.75
  0
CIRCLE
  5
5E2
330
1D
100
AcDbEntity
  8
0
  6
ByBlock
100
AcDbCircle
 10
245.045775
 20
33.4183
 30
0.0
 40
0.8500000000000001
  0
CIRCLE
  5
5E3
330
1D
100
AcDbEntity
  8
0
  6
ByBlock
100
AcDbCircle
 10
255.205775
 20
33.4183
 30
0.0
 40
0.75
  0
CIRCLE
  5
5E4
330
1D
100
AcDbEntity
  8
0
  6
ByBlock
100
AcDbCircle
 10
251.395775
 20
28.3383
 30
0.0
 40
0.5
  0
CIRCLE
  5
5E5
330
1D
100
AcDbEntity
  8
0
  6
ByBlock
100
AcDbCircle
 10
248.855775
 20
28.3383
 30
0.0
 40
0.5
  0
LINE
  5
5E6
330
1D
100
AcDbEntity
  8
0
 62
     0
100
AcDbLine
 10
255.03145
 20
16.6054
 30
0.0
 11
269.0314499999999
 21
16.6054
 31
0.0
  0
LINE
  5
5E7
330
1D
100
AcDbEntity
  8
0
 62
     0
100
AcDbLine
 10
255.03145
 20
16.6054
 30
0.0
 11
269.03145
 21
16.6054
 31
0.0
  0
LINE
  5
5E8
330
1D
100
AcDbEntity
  8
0
 62
     0
100
AcDbLine
 10
255.032
 20
16.6054
 30
0.0
 11
269.031
 21
16.6054
 31
0.0
  0
LINE
  5
5E9
330
1D
100
AcDbEntity
  8
0
 62
     0
100
AcDbLine
 10
255.032
 20
16.6054
 30
0.0
 11
269.0313
 21
16.6054
 31
0.0
  0
LINE
  5
5EA
330
1D
100
AcDbEntity
  8
0
 62
     0
100
AcDbLine
 10
255.032
 20
16.6054
 30
0.0
 11
269.03155
 21
16.6054
 31
0.0
  0
CIRCLE
  5
5EB
330
1D
100
AcDbEntity
  8
0
  6
ByBlock
100
AcDbCircle
 10
262.031775
 20
9.605900000000002
 30
0.0
 40
2.0
  0
CIRCLE
  5
5EC
330
1D
100
AcDbEntity
  8
0
  6
ByBlock
100
AcDbCircle
 10
264.571775
 20
14.6859
 30
0.0
 40
0.75
  0
CIRCLE
  5
5ED
330
1D
100
AcDbEntity
  8
0
  6
ByBlock
100
AcDbCircle
 10
258.221775
 20
12.14590000000001
 30
0.0
 40
0.75
  0
CIRCLE
  5
5EE
330
1D
100
AcDbEntity
  8
0
  6
ByBlock
100
AcDbCircle
 10
256.951775
 20
9.605900000000002
 30
0.0
 40
0.8500000000000001
  0
CIRCLE
  5
5EF
330
1D
100
AcDbEntity
  8
0
  6
ByBlock
100
AcDbCircle
 10
267.111775
 20
9.605900000000002
 30
0.0
 40
0.75
  0
CIRCLE
  5
5F0
330
1D
100
AcDbEntity
  8
0
  6
ByBlock
100
AcDbCircle
 10
263.301775
 20
4.525900000000004
 30
0.0
 40
0.5
  0
CIRCLE
  5
5F1
330
1D
100
AcDbEntity
  8
0
  6
ByBlock
100
AcDbCircle
 10
260.7617750000001
 20
4.525900000000004
 30
0.0
 40
0.5
  0
LINE
  5
5F2
330
1D
100
AcDbEntity
  8
0
 62
     0
100
AcDbLine
 10
274.08145
 20
16.6054
 30
0.0
 11
288.08145
 21
16.6054
 31
0.0
  0
LINE
  5
5F3
330
1D
100
AcDbEntity
  8
0
 62
     0
100
AcDbLine
 10
274.08145
 20
16.6054
 30
0.0
 11
288.08145
 21
16.6054
 31
0.0
  0
LINE
  5
5F4
330
1D
100
AcDbEntity
  8
0
 62
     0
100
AcDbLine
 10
274.082
 20
16.6054
 30
0.0
 11
288.081
 21
16.6054
 31
0.0
  0
LINE
  5
5F5
330
1D
100
AcDbEntity
  8
0
 62
     0
100
AcDbLine
 10
274.082
 20
16.6054
 30
0.0
 11
288.0813
 21
16.6054
 31
0.0
  0
LINE
  5
5F6
330
1D
100
AcDbEntity
  8
0
 62
     0
100
AcDbLine
 10
274.082
 20
16.6054
 30
0.0
 11
288.08155
 21
16.6054
 31
0.0
  0
CIRCLE
  5
5F7
330
1D
100
AcDbEntity
  8
0
  6
ByBlock
100
AcDbCircle
 10
281.081775
 20
9.605900000000002
 30
0.0
 40
2.0
  0
CIRCLE
  5
5F8
330
1D
100
AcDbEntity
  8
0
  6
ByBlock
100
AcDbCircle
 10
283.621775
 20
14.6859
 30
0.0
 40
0.75
  0
CIRCLE
  5
5F9
330
1D
100
AcDbEntity
  8
0
  6
ByBlock
100
AcDbCircle
 10
277.271775
 20
12.14590000000001
 30
0.0
 40
0.75
  0
CIRCLE
  5
5FA
330
1D
100
AcDbEntity
  8
0
  6
ByBlock
100
AcDbCircle
 10
276.001775
 20
9.605900000000002
 30
0.0
 40
0.8500000000000001
  0
CIRCLE
  5
5FB
330
1D
100
AcDbEntity
  8
0
  6
ByBlock
100
AcDbCircle
 10
286.161775
 20
9.605900000000002
 30
0.0
 40
0.75
  0
CIRCLE
  5
5FC
330
1D
100
AcDbEntity
  8
0
  6
ByBlock
100
AcDbCircle
 10
282.351775
 20
4.525900000000004
 30
0.0
 40
0.5
  0
CIRCLE
  5
5FD
330
1D
100
AcDbEntity
  8
0
  6
ByBlock
100
AcDbCircle
 10
279.811775
 20
4.525900000000004
 30
0.0
 40
0.5
  0
LINE
  5
5FE
330
1D
100
AcDbEntity
  8
0
 62
     0
100
AcDbLine
 10
293.13145
 20
16.6054
 30
0.0
 11
307.13145
 21
16.6054
 31
0.0
  0
LINE
  5
5FF
330
1D
100
AcDbEntity
  8
0
 62
     0
100
AcDbLine
 10
293.13145
 20
16.6054
 30
0.0
 11
307.13145
 21
16.6054
 31
0.0
  0
LINE
  5
600
330
1D
100
AcDbEntity
  8
0
 62
     0
100
AcDbLine
 10
293.132
 20
16.6054
 30
0.0
 11
307.131
 21
16.6054
 31
0.0
  0
LINE
  5
601
330
1D
100
AcDbEntity
  8
0
 62
     0
100
AcDbLine
 10
293.132
 20
16.6054
 30
0.0
 11
307.1313
 21
16.6054
 31
0.0
  0
LINE
  5
602
330
1D
100
AcDbEntity
  8
0
 62
     0
100
AcDbLine
 10
293.132
 20
16.6054
 30
0.0
 11
307.13155
 21
16.6054
 31
0.0
  0
CIRCLE
  5
603
330
1D
100
AcDbEntity
  8
0
  6
ByBlock
100
AcDbCircle
 10
300.131775
 20
9.605900000000002
 30
0.0
 40
2.0
  0
CIRCLE
  5
604
330
1D
100
AcDbEntity
  8
0
  6
ByBlock
100
AcDbCircle
 10
302.671775
 20
14.6859
 30
0.0
 40
0.75
  0
CIRCLE
  5
605
330
1D
100
AcDbEntity
  8
0
  6
ByBlock
100
AcDbCircle
 10
296.321775
 20
12.14590000000001
 30
0.0
 40
0.75
  0
CIRCLE
  5
606
330
1D
100
AcDbEntity
  8
0
  6
ByBlock
100
AcDbCircle
 10
295.051775
 20
9.605900000000002
 30
0.0
 40
0.8500000000000001
  0
CIRCLE
  5
607
330
1D
100
AcDbEntity
  8
0
  6
ByBlock
100
AcDbCircle
 10
305.211775
 20
9.605900000000002
 30
0.0
 40
0.75
  0
CIRCLE
  5
608
330
1D
100
AcDbEntity
  8
0
  6
ByBlock
100
AcDbCircle
 10
301.401775
 20
4.525900000000004
 30
0.0
 40
0.5
  0
CIRCLE
  5
609
330
1D
100
AcDbEntity
  8
0
  6
ByBlock
100
AcDbCircle
 10
298.861775
 20
4.525900000000004
 30
0.0
 40
0.5
  0
LINE
  5
60A
330
1D
100
AcDbEntity
  8
0
 62
     0
100
AcDbLine
 10
274.08145
 20
35.6553
 30
0.0
 11
288.08145
 21
35.6553
 31
0.0
  0
LINE
  5
60B
330
1D
100
AcDbEntity
  8
0
 62
     0
100
AcDbLine
 10
274.08145
 20
35.6553
 30
0.0
 11
288.08145
 21
35.6553
 31
0.0
  0
LINE
  5
60C
330
1D
100
AcDbEntity
  8
0
 62
     0
100
AcDbLine
 10
274.082
 20
35.6553
 30
0.0
 11
288.081
 21
35.6553
 31
0.0
  0
LINE
  5
60D
330
1D
100
AcDbEntity
  8
0
 62
     0
100
AcDbLine
 10
274.082
 20
35.6553
 30
0.0
 11
288.0813
 21
35.6553
 31
0.0
  0
LINE
  5
60E
330
1D
100
AcDbEntity
  8
0
 62
     0
100
AcDbLine
 10
274.082
 20
35.6553
 30
0.0
 11
288.08155
 21
35.6553
 31
0.0
  0
CIRCLE
  5
60F
330
1D
100
AcDbEntity
  8
0
  6
ByBlock
100
AcDbCircle
 10
281.081775
 20
28.6558
 30
0.0
 40
2.0
  0
CIRCLE
  5
610
330
1D
100
AcDbEntity
  8
0
  6
ByBlock
100
AcDbCircle
 10
283.621775
 20
33.7358
 30
0.0
 40
0.75
  0
CIRCLE
  5
611
330
1D
100
AcDbEntity
  8
0
  6
ByBlock
100
AcDbCircle
 10
277.271775
 20
31.19580000000001
 30
0.0
 40
0.75
  0
CIRCLE
  5
612
330
1D
100
AcDbEntity
  8
0
  6
ByBlock
100
AcDbCircle
 10
276.001775
 20
28.6558
 30
0.0
 40
0.8500000000000001
  0
CIRCLE
  5
613
330
1D
100
AcDbEntity
  8
0
  6
ByBlock
100
AcDbCircle
 10
286.161775
 20
28.6558
 30
0.0
 40
0.75
  0
CIRCLE
  5
614
330
1D
100
AcDbEntity
  8
0
  6
ByBlock
100
AcDbCircle
 10
282.351775
 20
23.5758
 30
0.0
 40
0.5
  0
CIRCLE
  5
615
330
1D
100
AcDbEntity
  8
0
  6
ByBlock
100
AcDbCircle
 10
279.811775
 20
23.5758
 30
0.0
 40
0.5
  0
LINE
  5
616
330
1D
100
AcDbEntity
  8
0
 62
     0
100
AcDbLine
 10
7.381609999999966
 20
78.5178
 30
0.0
 11
21.38160999999997
 21
78.5178
 31
0.0
  0
LINE
  5
617
330
1D
100
AcDbEntity
  8
0
 62
     0
100
AcDbLine
 10
7.381609999999995
 20
78.5178
 30
0.0
 11
21.38160999999999
 21
78.5178
 31
0.0
  0
LINE
  5
618
330
1D
100
AcDbEntity
  8
0
 62
     0
100
AcDbLine
 10
7.382159999999999
 20
78.5178
 30
0.0
 11
21.38115999999999
 21
78.5178
 31
0.0
  0
LINE
  5
619
330
1D
100
AcDbEntity
  8
0
 62
     0
100
AcDbLine
 10
7.382159999999999
 20
78.5178
 30
0.0
 11
21.38146
 21
78.5178
 31
0.0
  0
LINE
  5
61A
330
1D
100
AcDbEntity
  8
0
 62
     0
100
AcDbLine
 10
7.382159999999999
 20
78.5178
 30
0.0
 11
21.38171
 21
78.5178
 31
0.0
  0
CIRCLE
  5
61B
330
1D
100
AcDbEntity
  8
0
  6
ByBlock
100
AcDbCircle
 10
14.381935
 20
71.5183
 30
0.0
 40
2.0
  0
CIRCLE
  5
61C
330
1D
100
AcDbEntity
  8
0
  6
ByBlock
100
AcDbCircle
 10
16.92193500000002
 20
76.5983
 30
0.0
 40
0.75
  0
CIRCLE
  5
61D
330
1D
100
AcDbEntity
  8
0
  6
ByBlock
100
AcDbCircle
 10
10.571935
 20
74.0583
 30
0.0
 40
0.75
  0
CIRCLE
  5
61E
330
1D
100
AcDbEntity
  8
0
  6
ByBlock
100
AcDbCircle
 10
9.301935000000014
 20
71.5183
 30
0.0
 40
0.8500000000000001
  0
CIRCLE
  5
61F
330
1D
100
AcDbEntity
  8
0
  6
ByBlock
100
AcDbCircle
 10
19.46193500000001
 20
71.5183
 30
0.0
 40
0.75
  0
CIRCLE
  5
620
330
1D
100
AcDbEntity
  8
0
  6
ByBlock
100
AcDbCircle
 10
15.65193500000001
 20
66.4383
 30
0.0
 40
0.5
  0
CIRCLE
  5
621
330
1D
100
AcDbEntity
  8
0
  6
ByBlock
100
AcDbCircle
 10
13.11193500000002
 20
66.4383
 30
0.0
 40
0.5
  0
LINE
  5
622
330
1D
100
AcDbEntity
  8
0
 62
     0
100
AcDbLine
 10
9.76285999999996
 20
59.4678
 30
0.0
 11
23.76285999999996
 21
59.4678
 31
0.0
  0
LINE
  5
623
330
1D
100
AcDbEntity
  8
0
 62
     0
100
AcDbLine
 10
9.76285999999999
 20
59.4678
 30
0.0
 11
23.76285999999999
 21
59.4678
 31
0.0
  0
LINE
  5
624
330
1D
100
AcDbEntity
  8
0
 62
     0
100
AcDbLine
 10
9.763409999999993
 20
59.4678
 30
0.0
 11
23.76240999999999
 21
59.4678
 31
0.0
  0
LINE
  5
625
330
1D
100
AcDbEntity
  8
0
 62
     0
100
AcDbLine
 10
9.763409999999993
 20
59.4678
 30
0.0
 11
23.76271
 21
59.4678
 31
0.0
  0
LINE
  5
626
330
1D
100
AcDbEntity
  8
0
 62
     0
100
AcDbLine
 10
9.763409999999993
 20
59.4678
 30
0.0
 11
23.76295999999999
 21
59.4678
 31
0.0
  0
CIRCLE
  5
627
330
1D
100
AcDbEntity
  8
0
  6
ByBlock
100
AcDbCircle
 10
16.76318499999999
 20
52.4683
 30
0.0
 40
2.0
  0
CIRCLE
  5
628
330
1D
100
AcDbEntity
  8
0
  6
ByBlock
100
AcDbCircle
 10
19.30318500000001
 20
57.5483
 30
0.0
 40
0.75
  0
CIRCLE
  5
629
330
1D
100
AcDbEntity
  8
0
  6
ByBlock
100
AcDbCircle
 10
12.95318499999999
 20
55.00830000000001
 30
0.0
 40
0.75
  0
CIRCLE
  5
62A
330
1D
100
AcDbEntity
  8
0
  6
ByBlock
100
AcDbCircle
 10
11.68318500000001
 20
52.4683
 30
0.0
 40
0.8500000000000001
  0
CIRCLE
  5
62B
330
1D
100
AcDbEntity
  8
0
  6
ByBlock
100
AcDbCircle
 10
21.84318500000001
 20
52.4683
 30
0.0
 40
0.75
  0
CIRCLE
  5
62C
330
1D
100
AcDbEntity
  8
0
  6
ByBlock
100
AcDbCircle
 10
18.033185
 20
47.3883
 30
0.0
 40
0.5
  0
CIRCLE
  5
62D
330
1D
100
AcDbEntity
  8
0
  6
ByBlock
100
AcDbCircle
 10
15.49318500000001
 20
47.3883
 30
0.0
 40
0.5
  0
LINE
  5
62E
330
1D
100
AcDbEntity
  8
0
 62
     0
100
AcDbLine
 10
14.52534999999997
 20
40.4178
 30
0.0
 11
28.52534999999997
 21
40.4178
 31
0.0
  0
LINE
  5
62F
330
1D
100
AcDbEntity
  8
0
 62
     0
100
AcDbLine
 10
14.52535
 20
40.4178
 30
0.0
 11
28.52535
 21
40.4178
 31
0.0
  0
LINE
  5
630
330
1D
100
AcDbEntity
  8
0
 62
     0
100
AcDbLine
 10
14.52590000000001
 20
40.4178
 30
0.0
 11
28.5249
 21
40.4178
 31
0.0
  0
LINE
  5
631
330
1D
100
AcDbEntity
  8
0
 62
     0
100
AcDbLine
 10
14.52590000000001
 20
40.4178
 30
0.0
 11
28.52520000000001
 21
40.4178
 31
0.0
  0
LINE
  5
632
330
1D
100
AcDbEntity
  8
0
 62
     0
100
AcDbLine
 10
14.52590000000001
 20
40.4178
 30
0.0
 11
28.52545000000001
 21
40.4178
 31
0.0
  0
CIRCLE
  5
633
330
1D
100
AcDbEntity
  8
0
  6
ByBlock
100
AcDbCircle
 10
21.52567500000001
 20
33.4183
 30
0.0
 40
2.0
  0
CIRCLE
  5
634
330
1D
100
AcDbEntity
  8
0
  6
ByBlock
100
AcDbCircle
 10
24.06567500000003
 20
38.4983
 30
0.0
 40
0.75
  0
CIRCLE
  5
635
330
1D
100
AcDbEntity
  8
0
  6
ByBlock
100
AcDbCircle
 10
17.715675
 20
35.95830000000001
 30
0.0
 40
0.75
  0
CIRCLE
  5
636
330
1D
100
AcDbEntity
  8
0
  6
ByBlock
100
AcDbCircle
 10
16.44567500000002
 20
33.4183
 30
0.0
 40
0.8500000000000001
  0
CIRCLE
  5
637
330
1D
100
AcDbEntity
  8
0
  6
ByBlock
100
AcDbCircle
 10
26.60567500000002
 20
33.4183
 30
0.0
 40
0.75
  0
CIRCLE
  5
638
330
1D
100
AcDbEntity
  8
0
  6
ByBlock
100
AcDbCircle
 10
22.79567500000002
 20
28.3383
 30
0.0
 40
0.5
  0
CIRCLE
  5
639
330
1D
100
AcDbEntity
  8
0
  6
ByBlock
100
AcDbCircle
 10
20.25567500000002
 20
28.3383
 30
0.0
 40
0.5
  0
LINE
  5
63A
330
1D
100
AcDbEntity
  8
0
 62
     0
100
AcDbLine
 10
5.000359999999972
 20
21.3679
 30
0.0
 11
19.00035999999997
 21
21.3679
 31
0.0
  0
LINE
  5
63B
330
1D
100
AcDbEntity
  8
0
 62
     0
100
AcDbLine
 10
5.000360000000001
 20
21.3679
 30
0.0
 11
19.00036
 21
21.3679
 31
0.0
  0
LINE
  5
63C
330
1D
100
AcDbEntity
  8
0
 62
     0
100
AcDbLine
 10
5.000910000000005
 20
21.3679
 30
0.0
 11
18.99991
 21
21.3679
 31
0.0
  0
LINE
  5
63D
330
1D
100
AcDbEntity
  8
0
 62
     0
100
AcDbLine
 10
5.000910000000005
 20
21.3679
 30
0.0
 11
19.00021000000001
 21
21.3679
 31
0.0
  0
LINE
  5
63E
330
1D
100
AcDbEntity
  8
0
 62
     0
100
AcDbLine
 10
5.000910000000005
 20
21.3679
 30
0.0
 11
19.00046
 21
21.3679
 31
0.0
  0
CIRCLE
  5
63F
330
1D
100
AcDbEntity
  8
0
  6
ByBlock
100
AcDbCircle
 10
12.000685
 20
14.3684
 30
0.0
 40
2.0
  0
CIRCLE
  5
640
330
1D
100
AcDbEntity
  8
0
  6
ByBlock
100
AcDbCircle
 10
14.54068500000002
 20
19.4484
 30
0.0
 40
0.75
  0
CIRCLE
  5
641
330
1D
100
AcDbEntity
  8
0
  6
ByBlock
100
AcDbCircle
 10
8.190685000000002
 20
16.90840000000001
 30
0.0
 40
0.75
  0
CIRCLE
  5
642
330
1D
100
AcDbEntity
  8
0
  6
ByBlock
100
AcDbCircle
 10
6.92068500000002
 20
14.3684
 30
0.0
 40
0.8500000000000001
  0
CIRCLE
  5
643
330
1D
100
AcDbEntity
  8
0
  6
ByBlock
100
AcDbCircle
 10
17.08068500000002
 20
14.3684
 30
0.0
 40
0.75
  0
CIRCLE
  5
644
330
1D
100
AcDbEntity
  8
0
  6
ByBlock
100
AcDbCircle
 10
13.27068500000001
 20
9.288400000000003
 30
0.0
 40
0.5
  0
CIRCLE
  5
645
330
1D
100
AcDbEntity
  8
0
  6
ByBlock
100
AcDbCircle
 10
10.73068500000002
 20
9.288400000000003
 30
0.0
 40
0.5
  0
LINE
  5
646
330
1D
100
AcDbEntity
  8
0
 62
     0
100
AcDbLine
 10
28.81284999999997
 20
21.3679
 30
0.0
 11
42.81284999999997
 21
21.3679
 31
0.0
  0
LINE
  5
647
330
1D
100
AcDbEntity
  8
0
 62
     0
100
AcDbLine
 10
28.81285
 20
21.3679
 30
0.0
 11
42.81285
 21
21.3679
 31
0.0
  0
LINE
  5
648
330
1D
100
AcDbEntity
  8
0
 62
     0
100
AcDbLine
 10
28.8134
 20
21.3679
 30
0.0
 11
42.8124
 21
21.3679
 31
0.0
  0
LINE
  5
649
330
1D
100
AcDbEntity
  8
0
 62
     0
100
AcDbLine
 10
28.8134
 20
21.3679
 30
0.0
 11
42.81270000000001
 21
21.3679
 31
0.0
  0
LINE
  5
64A
330
1D
100
AcDbEntity
  8
0
 62
     0
100
AcDbLine
 10
28.8134
 20
21.3679
 30
0.0
 11
42.81295
 21
21.3679
 31
0.0
  0
CIRCLE
  5
64B
330
1D
100
AcDbEntity
  8
0
  6
ByBlock
100
AcDbCircle
 10
35.813175
 20
14.3684
 30
0.0
 40
2.0
  0
CIRCLE
  5
64C
330
1D
100
AcDbEntity
  8
0
  6
ByBlock
100
AcDbCircle
 10
38.35317500000002
 20
19.4484
 30
0.0
 40
0.75
  0
CIRCLE
  5
64D
330
1D
100
AcDbEntity
  8
0
  6
ByBlock
100
AcDbCircle
 10
32.003175
 20
16.90840000000001
 30
0.0
 40
0.75
  0
CIRCLE
  5
64E
330
1D
100
AcDbEntity
  8
0
  6
ByBlock
100
AcDbCircle
 10
30.73317500000002
 20
14.3684
 30
0.0
 40
0.8500000000000001
  0
CIRCLE
  5
64F
330
1D
100
AcDbEntity
  8
0
  6
ByBlock
100
AcDbCircle
 10
40.89317500000001
 20
14.3684
 30
0.0
 40
0.75
  0
CIRCLE
  5
650
330
1D
100
AcDbEntity
  8
0
  6
ByBlock
100
AcDbCircle
 10
37.08317500000001
 20
9.288400000000003
 30
0.0
 40
0.5
  0
CIRCLE
  5
651
330
1D
100
AcDbEntity
  8
0
  6
ByBlock
100
AcDbCircle
 10
34.54317500000002
 20
9.288400000000003
 30
0.0
 40
0.5
  0
LINE
  5
652
330
1D
100
AcDbEntity
  8
0
 62
     0
100
AcDbLine
 10
52.62544999999997
 20
21.3679
 30
0.0
 11
66.62544999999997
 21
21.3679
 31
0.0
  0
LINE
  5
653
330
1D
100
AcDbEntity
  8
0
 62
     0
100
AcDbLine
 10
52.62545
 20
21.3679
 30
0.0
 11
66.62545
 21
21.3679
 31
0.0
  0
LINE
  5
654
330
1D
100
AcDbEntity
  8
0
 62
     0
100
AcDbLine
 10
52.626
 20
21.3679
 30
0.0
 11
66.625
 21
21.3679
 31
0.0
  0
LINE
  5
655
330
1D
100
AcDbEntity
  8
0
 62
     0
100
AcDbLine
 10
52.626
 20
21.3679
 30
0.0
 11
66.62530000000001
 21
21.3679
 31
0.0
  0
LINE
  5
656
330
1D
100
AcDbEntity
  8
0
 62
     0
100
AcDbLine
 10
52.626
 20
21.3679
 30
0.0
 11
66.62555
 21
21.3679
 31
0.0
  0
CIRCLE
  5
657
330
1D
100
AcDbEntity
  8
0
  6
ByBlock
100
AcDbCircle
 10
59.625775
 20
14.3684
 30
0.0
 40
2.0
  0
CIRCLE
  5
658
330
1D
100
AcDbEntity
  8
0
  6
ByBlock
100
AcDbCircle
 10
62.16577500000002
 20
19.4484
 30
0.0
 40
0.75
  0
CIRCLE
  5
659
330
1D
100
AcDbEntity
  8
0
  6
ByBlock
100
AcDbCircle
 10
55.815775
 20
16.90840000000001
 30
0.0
 40
0.75
  0
CIRCLE
  5
65A
330
1D
100
AcDbEntity
  8
0
  6
ByBlock
100
AcDbCircle
 10
54.54577500000002
 20
14.3684
 30
0.0
 40
0.8500000000000001
  0
CIRCLE
  5
65B
330
1D
100
AcDbEntity
  8
0
  6
ByBlock
100
AcDbCircle
 10
64.70577500000002
 20
14.3684
 30
0.0
 40
0.75
  0
CIRCLE
  5
65C
330
1D
100
AcDbEntity
  8
0
  6
ByBlock
100
AcDbCircle
 10
60.89577500000001
 20
9.288400000000003
 30
0.0
 40
0.5
  0
CIRCLE
  5
65D
330
1D
100
AcDbEntity
  8
0
  6
ByBlock
100
AcDbCircle
 10
58.35577500000002
 20
9.288400000000003
 30
0.0
 40
0.5
  0
LINE
  5
65E
330
1D
100
AcDbEntity
  8
0
 62
     0
100
AcDbLine
 10
124.06145
 20
21.3679
 30
0.0
 11
138.06145
 21
21.3679
 31
0.0
  0
LINE
  5
65F
330
1D
100
AcDbEntity
  8
0
 62
     0
100
AcDbLine
 10
124.06145
 20
21.3679
 30
0.0
 11
138.06145
 21
21.3679
 31
0.0
  0
LINE
  5
660
330
1D
100
AcDbEntity
  8
0
 62
     0
100
AcDbLine
 10
124.062
 20
21.3679
 30
0.0
 11
138.061
 21
21.3679
 31
0.0
  0
LINE
  5
661
330
1D
100
AcDbEntity
  8
0
 62
     0
100
AcDbLine
 10
124.062
 20
21.3679
 30
0.0
 11
138.0613
 21
21.3679
 31
0.0
  0
LINE
  5
662
330
1D
100
AcDbEntity
  8
0
 62
     0
100
AcDbLine
 10
124.062
 20
21.3679
 30
0.0
 11
138.06155
 21
21.3679
 31
0.0
  0
CIRCLE
  5
663
330
1D
100
AcDbEntity
  8
0
  6
ByBlock
100
AcDbCircle
 10
131.061775
 20
14.3684
 30
0.0
 40
2.0
  0
CIRCLE
  5
664
330
1D
100
AcDbEntity
  8
0
  6
ByBlock
100
AcDbCircle
 10
133.601775
 20
19.4484
 30
0.0
 40
0.75
  0
CIRCLE
  5
665
330
1D
100
AcDbEntity
  8
0
  6
ByBlock
100
AcDbCircle
 10
127.251775
 20
16.90840000000001
 30
0.0
 40
0.75
  0
CIRCLE
  5
666
330
1D
100
AcDbEntity
  8
0
  6
ByBlock
100
AcDbCircle
 10
125.981775
 20
14.3684
 30
0.0
 40
0.8500000000000001
  0
CIRCLE
  5
667
330
1D
100
AcDbEntity
  8
0
  6
ByBlock
100
AcDbCircle
 10
136.141775
 20
14.3684
 30
0.0
 40
0.75
  0
CIRCLE
  5
668
330
1D
100
AcDbEntity
  8
0
  6
ByBlock
100
AcDbCircle
 10
132.331775
 20
9.288400000000003
 30
0.0
 40
0.5
  0
CIRCLE
  5
669
330
1D
100
AcDbEntity
  8
0
  6
ByBlock
100
AcDbCircle
 10
129.791775
 20
9.288400000000003
 30
0.0
 40
0.5
  0
ENDSEC
  0
SECTION
  2
OBJECTS
  0
DICTIONARY
  5
C
330
0
100
AcDbDictionary
281
     1
  3
ACAD_DETAILVIEWSTYLE
350
201
  3
ACAD_GROUP
350
D
  3
ACAD_LAYOUT
350
1A
  3
ACAD_MATERIAL
350
21
  3
ACAD_MLEADERSTYLE
350
1C8
  3
ACAD_MLINESTYLE
350
17
  3
ACAD_PLOTSETTINGS
350
19
  3
ACAD_PLOTSTYLENAME
350
E
  3
ACAD_SCALELIST
350
187
  3
ACAD_SECTIONVIEWSTYLE
350
202
  3
ACAD_TABLESTYLE
350
1C6
  3
ACAD_VISUALSTYLE
350
1AD
  3
ACDB_RECOMPOSE_DATA
350
66D
  3
AcDbVariableDictionary
350
1FC
  3
APPDATA
350
1CA
  0
DICTIONARY
  5
201
102
{ACAD_REACTORS
330
C
102
}
330
C
100
AcDbDictionary
281
     1
  0
DICTIONARY
  5
D
102
{ACAD_REACTORS
330
C
102
}
330
C
100
AcDbDictionary
281
     1
  0
DICTIONARY
  5
1A
102
{ACAD_REACTORS
330
C
102
}
330
C
100
AcDbDictionary
281
     1
  3
Model
350
1E
  3
Sheet 1
350
1C
  0
DICTIONARY
  5
21
102
{ACAD_REACTORS
330
C
102
}
330
C
100
AcDbDictionary
281
     1
  3
ByBlock
350
23
  3
ByLayer
350
22
  3
Global
350
24
  0
DICTIONARY
  5
1C8
102
{ACAD_REACTORS
330
C
102
}
330
C
100
AcDbDictionary
281
     1
  3
Standard
350
1C9
  0
DICTIONARY
  5
17
102
{ACAD_REACTORS
330
C
102
}
330
C
100
AcDbDictionary
281
     1
  3
Standard
350
18
  0
DICTIONARY
  5
19
102
{ACAD_REACTORS
330
C
102
}
330
C
100
AcDbDictionary
281
     1
  0
ACDBDICTIONARYWDFLT
  5
E
102
{ACAD_REACTORS
330
C
102
}
330
C
100
AcDbDictionary
281
     1
  3
Normal
350
F
100
AcDbDictionaryWithDefault
340
F
  0
DICTIONARY
  5
187
102
{ACAD_REACTORS
330
C
102
}
330
C
100
AcDbDictionary
281
     1
  3
A0
350
188
  3
A1
350
189
  3
A2
350
18A
  3
A3
350
18B
  3
A4
350
18C
  3
A5
350
18D
  3
A6
350
18E
  3
A7
350
18F
  3
A8
350
190
  3
A9
350
191
  3
B0
350
192
  3
B1
350
193
  3
B2
350
194
  3
B3
350
195
  3
B4
350
196
  3
B5
350
197
  3
B6
350
198
  3
B7
350
199
  3
B8
350
19A
  3
B9
350
19B
  3
C0
350
19C
  3
C1
350
19D
  3
C2
350
19E
  3
C3
350
19F
  3
C4
350
1A0
  3
C5
350
1A1
  3
C6
350
1A2
  3
C7
350
1A3
  3
C8
350
1A4
  3
C9
350
1A5
  3
D0
350
1A6
  3
D1
350
1A7
  3
D2
350
1A8
  0
DICTIONARY
  5
202
102
{ACAD_REACTORS
330
C
102
}
330
C
100
AcDbDictionary
281
     1
  0
DICTIONARY
  5
1C6
102
{ACAD_REACTORS
330
C
102
}
330
C
100
AcDbDictionary
281
     1
  3
Standard
350
1C7
  0
DICTIONARY
  5
1AD
102
{ACAD_REACTORS
330
C
102
}
330
C
100
AcDbDictionary
281
     1
  3
2dWireframe
350
1B2
  3
Basic
350
1B5
  3
Brighten
350
1B9
  3
ColorChange
350
1BD
  3
Conceptual
350
1B7
  3
Dim
350
1B8
  3
EdgeColorOff
350
1C0
  3
Facepattern
350
1BC
  3
Flat
350
1AE
  3
FlatWithEdges
350
1AF
  3
Gouraud
350
1B0
  3
GouraudWithEdges
350
1B1
  3
Hidden
350
1B4
  3
JitterOff
350
1BE
  3
Linepattern
350
1BB
  3
OverhangOff
350
1BF
  3
Realistic
350
1B6
  3
Shaded
350
1C5
  3
Shaded with edges
350
1C4
  3
Shades of Gray
350
1C1
  3
Sketchy
350
1C2
  3
Thicken
350
1BA
  3
Wireframe
350
1B3
  3
X-Ray
350
1C3
  0
XRECORD
  5
66D
102
{ACAD_REACTORS
330
C
102
}
330
C
100
AcDbXrecord
280
     1
 90
        1
330
1C7
  0
DICTIONARY
  5
1FC
102
{ACAD_REACTORS
330
C
102
}
330
C
100
AcDbDictionary
281
     1
  3
CANNOSCALE
350
1FD
  3
CMLEADERSTYLE
350
1FF
  3
CTABLESTYLE
350
1FE
  3
MSLTSCALE
350
200
  0
DICTIONARY
  5
1CA
102
{ACAD_REACTORS
330
C
102
}
330
C
100
AcDbDictionary
281
     1
  0
LAYOUT
  5
1E
102
{ACAD_REACTORS
330
1A
102
}
330
1A
100
AcDbPlotSettings
  1

  2
none_device
  4
Letter_(8.50_x_11.00_Inches)
  6

 40
6.35
 41
6.35
 42
6.35
 43
6.35
 44
215.9
 45
279.4
 46
0.0
 47
0.0
 48
0.0
 49
0.0
140
0.0
141
0.0
142
1.0
143
1.0
 70
  1712
 72
     0
 73
     0
 74
     0
  7

 75
     0
 76
     0
 77
     2
 78
   300
147
1.0
148
0.0
149
0.0
100
AcDbLayout
  1
Model
 70
     1
 71
     0
 10
0.0
 20
0.0
 11
12.0
 21
9.0
 12
0.0
 22
0.0
 32
0.0
 14
0.0950845999999999
 24
0.0799263999999997
 34
0.0
 15
309.658
 25
123.905
 35
0.0
146
0.0
 13
0.0
 23
0.0
 33
0.0
 16
1.0
 26
0.0
 36
0.0
 17
0.0
 27
1.0
 37
0.0
 76
     0
330
1D
331
26
  0
LAYOUT
  5
1C
102
{ACAD_REACTORS
330
1A
102
}
330
1A
100
AcDbPlotSettings
  1

  2
none_device
  4

  6

 40
0.0
 41
0.0
 42
0.0
 43
0.0
 44
0.0
 45
0.0
 46
0.0
 47
0.0
 48
0.0
 49
0.0
140
0.0
141
0.0
142
1.0
143
1.0
 70
   688
 72
     0
 73
     0
 74
     5
  7

 75
    16
 76
     0
 77
     2
 78
   300
147
1.0
148
0.0
149
0.0
100
AcDbLayout
  1
Sheet 1
 70
     1
 71
     1
 10
0.0
 20
0.0
 11
0.0
 21
0.0
 12
0.0
 22
0.0
 32
0.0
 14
1.000000000000000E+20
 24
1.000000000000000E+20
 34
1.000000000000000E+20
 15
-1.000000000000000E+20
 25
-1.000000000000000E+20
 35
-1.000000000000000E+20
146
0.0
 13
0.0
 23
0.0
 33
0.0
 16
1.0
 26
0.0
 36
0.0
 17
0.0
 27
1.0
 37
0.0
 76
     0
330
1B
  0
MATERIAL
  5
23
102
{ACAD_REACTORS
330
21
102
}
330
21
100
AcDbMaterial
  1
ByBlock
 72
     1
 94
      127
  0
MATERIAL
  5
22
102
{ACAD_REACTORS
330
21
102
}
330
21
100
AcDbMaterial
  1
ByLayer
 72
     1
 94
      127
  0
MATERIAL
  5
24
102
{ACAD_REACTORS
330
21
102
}
330
21
100
AcDbMaterial
  1
Global
 72
     1
 94
      127
  0
MLEADERSTYLE
  5
1C9
102
{ACAD_REACTORS
330
1C8
102
}
330
1C8
100
AcDbMLeaderStyle
170
     2
171
     1
172
     0
 90
        2
 40
0.0
 41
0.0
173
     1
 91
-1056964608
340
14
 92
       -2
290
     1
 42
0.09
291
     1
 43
0.36
  3
Standard
341
0
 44
0.18
300

342
11
174
     1
178
     1
175
     1
176
     0
 93
-1056964608
 45
0.18
292
     0
297
     0
 46
0.18
343
0
 94
-1056964608
 47
1.0
 49
1.0
140
1.0
293
     1
141
0.0
294
     1
177
     0
142
1.0
295
     0
296
     0
143
0.125
1001
ACAD_MLEADERVER
1070
     2
  0
MLINESTYLE
  5
18
102
{ACAD_REACTORS
330
17
102
}
330
17
100
AcDbMlineStyle
  2
Standard
 70
     0
  3

 62
   256
 51
90.0
 52
90.0
 71
     2
 49
0.5
 62
   256
  6
BYLAYER
 49
-0.5
 62
   256
  6
BYLAYER
  0
ACDBPLACEHOLDER
  5
F
102
{ACAD_REACTORS
330
E
102
}
330
E
  0
SCALE
  5
188
102
{ACAD_REACTORS
330
187
102
}
330
187
100
AcDbScale
 70
     0
300
1:1
140
1.0
141
1.0
290
     1
  0
SCALE
  5
189
102
{ACAD_REACTORS
330
187
102
}
330
187
100
AcDbScale
 70
     0
300
1:2
140
1.0
141
2.0
290
     0
  0
SCALE
  5
18A
102
{ACAD_REACTORS
330
187
102
}
330
187
100
AcDbScale
 70
     0
300
1:4
140
1.0
141
4.0
290
     0
  0
SCALE
  5
18B
102
{ACAD_REACTORS
330
187
102
}
330
187
100
AcDbScale
 70
     0
300
1:5
140
1.0
141
5.0
290
     0
  0
SCALE
  5
18C
102
{ACAD_REACTORS
330
187
102
}
330
187
100
AcDbScale
 70
     0
300
1:8
140
1.0
141
8.0
290
     0
  0
SCALE
  5
18D
102
{ACAD_REACTORS
330
187
102
}
330
187
100
AcDbScale
 70
     0
300
1:10
140
1.0
141
10.0
290
     0
  0
SCALE
  5
18E
102
{ACAD_REACTORS
330
187
102
}
330
187
100
AcDbScale
 70
     0
300
1:16
140
1.0
141
16.0
290
     0
  0
SCALE
  5
18F
102
{ACAD_REACTORS
330
187
102
}
330
187
100
AcDbScale
 70
     0
300
1:20
140
1.0
141
20.0
290
     0
  0
SCALE
  5
190
102
{ACAD_REACTORS
330
187
102
}
330
187
100
AcDbScale
 70
     0
300
1:30
140
1.0
141
30.0
290
     0
  0
SCALE
  5
191
102
{ACAD_REACTORS
330
187
102
}
330
187
100
AcDbScale
 70
     0
300
1:40
140
1.0
141
40.0
290
     0
  0
SCALE
  5
192
102
{ACAD_REACTORS
330
187
102
}
330
187
100
AcDbScale
 70
     0
300
1:50
140
1.0
141
50.0
290
     0
  0
SCALE
  5
193
102
{ACAD_REACTORS
330
187
102
}
330
187
100
AcDbScale
 70
     0
300
1:100
140
1.0
141
100.0
290
     0
  0
SCALE
  5
194
102
{ACAD_REACTORS
330
187
102
}
330
187
100
AcDbScale
 70
     0
300
2:1
140
2.0
141
1.0
290
     0
  0
SCALE
  5
195
102
{ACAD_REACTORS
330
187
102
}
330
187
100
AcDbScale
 70
     0
300
4:1
140
4.0
141
1.0
290
     0
  0
SCALE
  5
196
102
{ACAD_REACTORS
330
187
102
}
330
187
100
AcDbScale
 70
     0
300
8:1
140
8.0
141
1.0
290
     0
  0
SCALE
  5
197
102
{ACAD_REACTORS
330
187
102
}
330
187
100
AcDbScale
 70
     0
300
10:1
140
10.0
141
1.0
290
     0
  0
SCALE
  5
198
102
{ACAD_REACTORS
330
187
102
}
330
187
100
AcDbScale
 70
     0
300
100:1
140
100.0
141
1.0
290
     0
  0
SCALE
  5
199
102
{ACAD_REACTORS
330
187
102
}
330
187
100
AcDbScale
 70
     0
300
1/128" = 1'-0"
140
0.0078125
141
12.0
290
     0
  0
SCALE
  5
19A
102
{ACAD_REACTORS
330
187
102
}
330
187
100
AcDbScale
 70
     0
300
1/64" = 1'-0"
140
0.015625
141
12.0
290
     0
  0
SCALE
  5
19B
102
{ACAD_REACTORS
330
187
102
}
330
187
100
AcDbScale
 70
     0
300
1/32" = 1'-0"
140
0.03125
141
12.0
290
     0
  0
SCALE
  5
19C
102
{ACAD_REACTORS
330
187
102
}
330
187
100
AcDbScale
 70
     0
300
1/16" = 1'-0"
140
0.0625
141
12.0
290
     0
  0
SCALE
  5
19D
102
{ACAD_REACTORS
330
187
102
}
330
187
100
AcDbScale
 70
     0
300
3/32" = 1'-0"
140
0.09375
141
12.0
290
     0
  0
SCALE
  5
19E
102
{ACAD_REACTORS
330
187
102
}
330
187
100
AcDbScale
 70
     0
300
1/8" = 1'-0"
140
0.125
141
12.0
290
     0
  0
SCALE
  5
19F
102
{ACAD_REACTORS
330
187
102
}
330
187
100
AcDbScale
 70
     0
300
3/16" = 1'-0"
140
0.1875
141
12.0
290
     0
  0
SCALE
  5
1A0
102
{ACAD_REACTORS
330
187
102
}
330
187
100
AcDbScale
 70
     0
300
1/4" = 1'-0"
140
0.25
141
12.0
290
     0
  0
SCALE
  5
1A1
102
{ACAD_REACTORS
330
187
102
}
330
187
100
AcDbScale
 70
     0
300
3/8" = 1'-0"
140
0.375
141
12.0
290
     0
  0
SCALE
  5
1A2
102
{ACAD_REACTORS
330
187
102
}
330
187
100
AcDbScale
 70
     0
300
1/2" = 1'-0"
140
0.5
141
12.0
290
     0
  0
SCALE
  5
1A3
102
{ACAD_REACTORS
330
187
102
}
330
187
100
AcDbScale
 70
     0
300
3/4" = 1'-0"
140
0.75
141
12.0
290
     0
  0
SCALE
  5
1A4
102
{ACAD_REACTORS
330
187
102
}
330
187
100
AcDbScale
 70
     0
300
1" = 1'-0"
140
1.0
141
12.0
290
     0
  0
SCALE
  5
1A5
102
{ACAD_REACTORS
330
187
102
}
330
187
100
AcDbScale
 70
     0
300
1-1/2" = 1'-0"
140
1.5
141
12.0
290
     0
  0
SCALE
  5
1A6
102
{ACAD_REACTORS
330
187
102
}
330
187
100
AcDbScale
 70
     0
300
3" = 1'-0"
140
3.0
141
12.0
290
     0
  0
SCALE
  5
1A7
102
{ACAD_REACTORS
330
187
102
}
330
187
100
AcDbScale
 70
     0
300
6" = 1'-0"
140
6.0
141
12.0
290
     0
  0
SCALE
  5
1A8
102
{ACAD_REACTORS
330
187
102
}
330
187
100
AcDbScale
 70
     0
300
1'-0" = 1'-0"
140
12.0
141
12.0
290
     0
  0
TABLESTYLE
  5
1C7
102
{ACAD_REACTORS
330
1C6
102
}
102
{ACAD_XDICTIONARY
360
66A
102
}
330
1C6
100
AcDbTableStyle
  3
Standard
 70
     0
 71
     0
 40
0.06
 41
0.06
280
     0
281
     0
  7
Standard
140
0.18
170
     2
 62
     0
 63
   257
283
     0
 90
        4
 91
        0
  1

274
    -2
284
     1
 64
     0
275
    -2
285
     1
 65
     0
276
    -2
286
     1
 66
     0
277
    -2
287
     1
 67
     0
278
    -2
288
     1
 68
     0
279
    -2
289
     1
 69
     0
  7
Standard
140
0.25
170
     5
 62
     0
 63
   257
283
     0
 90
        4
 91
        0
  1

274
    -2
284
     1
 64
     0
275
    -2
285
     1
 65
     0
276
    -2
286
     1
 66
     0
277
    -2
287
     1
 67
     0
278
    -2
288
     1
 68
     0
279
    -2
289
     1
 69
     0
  7
Standard
140
0.18
170
     5
 62
     0
 63
   257
283
     0
 90
        4
 91
        0
  1

274
    -2
284
     1
 64
     0
275
    -2
285
     1
 65
     0
276
    -2
286
     1
 66
     0
277
    -2
287
     1
 67
     0
278
    -2
288
     1
 68
     0
279
    -2
289
     1
 69
     0
  0
VISUALSTYLE
  5
1B2
102
{ACAD_REACTORS
330
1AD
102
}
330
1AD
100
AcDbVisualStyle
  2
2dWireframe
 70
     4
 71
     0
 72
     2
 73
     0
 90
        0
 40
0.6
 41
30.0
 62
     5
 63
     7
421
 16777215
 74
     1
 91
        4
 64
     7
 65
   257
 75
     1
175
     1
 42
1.0
 92
        0
 66
   257
 43
1.0
 76
     1
 77
     6
 78
     2
 67
     7
 79
     5
170
     0
171
     0
290
     0
174
     0
 93
        1
 44
0.0
173
     0
291
     0
 45
0.0
  0
VISUALSTYLE
  5
1B5
102
{ACAD_REACTORS
330
1AD
102
}
330
1AD
100
AcDbVisualStyle
  2
Basic
 70
     7
 71
     1
 72
     0
 73
     1
 90
        0
 40
0.6
 41
30.0
 62
     5
 63
     7
421
 16777215
 74
     0
 91
        4
 64
     7
 65
   257
 75
     1
175
     1
 42
1.0
 92
        8
 66
     7
 43
1.0
 76
     1
 77
     6
 78
     2
 67
     7
 79
     5
170
     0
171
     0
290
     0
174
     0
 93
        1
 44
0.0
173
     0
291
     1
 45
0.0
  0
VISUALSTYLE
  5
1B9
102
{ACAD_REACTORS
330
1AD
102
}
330
1AD
100
AcDbVisualStyle
  2
Brighten
 70
    12
 71
     2
 72
     2
 73
     0
 90
        0
 40
0.6
 41
30.0
 62
     5
 63
     7
421
 16777215
 74
     1
 91
        4
 64
     7
 65
   257
 75
     1
175
     1
 42
1.0
 92
        8
 66
     7
 43
1.0
 76
     1
 77
     6
 78
     2
 67
     7
 79
     5
170
     0
171
     0
290
     0
174
     0
 93
        1
 44
50.0
173
     0
291
     1
 45
0.0
  0
VISUALSTYLE
  5
1BD
102
{ACAD_REACTORS
330
1AD
102
}
330
1AD
100
AcDbVisualStyle
  2
ColorChange
 70
    16
 71
     2
 72
     2
 73
     3
 90
        0
 40
0.6
 41
30.0
 62
     5
 63
     8
421
  8421504
 74
     1
 91
        4
 64
     7
 65
   257
 75
     1
175
     1
 42
1.0
 92
        8
 66
     8
424
  8421504
 43
1.0
 76
     1
 77
     6
 78
     2
 67
     7
 79
     5
170
     0
171
     0
290
     0
174
     0
 93
        1
 44
0.0
173
     0
291
     1
 45
0.0
  0
VISUALSTYLE
  5
1B7
102
{ACAD_REACTORS
330
1AD
102
}
330
1AD
100
AcDbVisualStyle
  2
Conceptual
 70
     9
 71
     3
 72
     2
 73
     0
 90
        0
 40
0.6
 41
30.0
 62
     5
 63
     7
421
 16777215
 74
     2
 91
        2
 64
     7
 65
   257
 75
     1
175
     1
 42
179.0
 92
        8
 66
     7
 43
1.0
 76
     1
 77
     6
 78
     2
 67
     7
 79
     3
170
     0
171
     0
290
     0
174
     0
 93
        1
 44
0.0
173
     0
291
     0
 45
0.0
  0
VISUALSTYLE
  5
1B8
102
{ACAD_REACTORS
330
1AD
102
}
330
1AD
100
AcDbVisualStyle
  2
Dim
 70
    11
 71
     2
 72
     2
 73
     0
 90
        0
 40
0.6
 41
30.0
 62
     5
 63
     7
421
 16777215
 74
     1
 91
        4
 64
     7
 65
   257
 75
     1
175
     1
 42
1.0
 92
        8
 66
     7
 43
1.0
 76
     1
 77
     6
 78
     2
 67
     7
 79
     5
170
     0
171
     0
290
     0
174
     0
 93
        1
 44
-50.0
173
     0
291
     1
 45
0.0
  0
VISUALSTYLE
  5
1C0
102
{ACAD_REACTORS
330
1AD
102
}
330
1AD
100
AcDbVisualStyle
  2
EdgeColorOff
 70
    22
 71
     2
 72
     2
 73
     0
 90
        0
 40
0.6
 41
30.0
 62
     5
 63
     7
421
 16777215
 74
     1
 91
        4
 64
     7
 65
   257
 75
     1
175
     1
 42
1.0
 92
        8
 66
     7
 43
1.0
 76
     1
 77
     6
 78
     2
 67
     7
 79
     5
170
     0
171
     0
290
     0
174
     0
 93
        1
 44
0.0
173
     0
291
     1
 45
0.0
  0
VISUALSTYLE
  5
1BC
102
{ACAD_REACTORS
330
1AD
102
}
330
1AD
100
AcDbVisualStyle
  2
Facepattern
 70
    15
 71
     2
 72
     2
 73
     0
 90
        0
 40
0.6
 41
30.0
 62
     5
 63
     7
421
 16777215
 74
     1
 91
        4
 64
     7
 65
   257
 75
     1
175
     1
 42
1.0
 92
        8
 66
     7
 43
1.0
 76
     1
 77
     6
 78
     2
 67
     7
 79
     5
170
     0
171
     0
290
     0
174
     0
 93
        1
 44
0.0
173
     0
291
     1
 45
0.0
  0
VISUALSTYLE
  5
1AE
102
{ACAD_REACTORS
330
1AD
102
}
330
1AD
100
AcDbVisualStyle
  2
Flat
 70
     0
 71
     2
 72
     1
 73
     1
 90
        2
 40
0.6
 41
30.0
 62
     5
 63
     7
421
 16777215
 74
     0
 91
        0
 64
     7
 65
   257
 75
     1
175
     1
 42
1.0
 92
        8
 66
     7
 43
1.0
 76
     1
 77
     6
 78
     2
 67
     7
 79
     5
170
     0
171
     0
290
     0
174
     0
 93
       13
 44
0.0
173
     0
291
     1
 45
0.0
  0
VISUALSTYLE
  5
1AF
102
{ACAD_REACTORS
330
1AD
102
}
330
1AD
100
AcDbVisualStyle
  2
FlatWithEdges
 70
     1
 71
     2
 72
     1
 73
     1
 90
        2
 40
0.6
 41
30.0
 62
     5
 63
     7
421
 16777215
 74
     1
 91
        0
 64
     7
 65
   257
 75
     1
175
     1
 42
1.0
 92
        0
 66
   257
 43
1.0
 76
     1
 77
     6
 78
     2
 67
     7
 79
     5
170
     0
171
     0
290
     0
174
     0
 93
       13
 44
0.0
173
     0
291
     1
 45
0.0
  0
VISUALSTYLE
  5
1B0
102
{ACAD_REACTORS
330
1AD
102
}
330
1AD
100
AcDbVisualStyle
  2
Gouraud
 70
     2
 71
     2
 72
     2
 73
     1
 90
        2
 40
0.6
 41
30.0
 62
     5
 63
     7
421
 16777215
 74
     0
 91
        0
 64
     7
 65
   257
 75
     1
175
     1
 42
1.0
 92
        0
 66
     7
 43
1.0
 76
     1
 77
     6
 78
     2
 67
     7
 79
     5
170
     0
171
     0
290
     0
174
     0
 93
       13
 44
0.0
173
     0
291
     1
 45
0.0
  0
VISUALSTYLE
  5
1B1
102
{ACAD_REACTORS
330
1AD
102
}
330
1AD
100
AcDbVisualStyle
  2
GouraudWithEdges
 70
     3
 71
     2
 72
     2
 73
     1
 90
        2
 40
0.6
 41
30.0
 62
     5
 63
     7
421
 16777215
 74
     1
 91
        0
 64
     7
 65
   257
 75
     1
175
     1
 42
1.0
 92
        0
 66
   257
 43
1.0
 76
     1
 77
     6
 78
     2
 67
     7
 79
     5
170
     0
171
     0
290
     0
174
     0
 93
       13
 44
0.0
173
     0
291
     1
 45
0.0
  0
VISUALSTYLE
  5
1B4
102
{ACAD_REACTORS
330
1AD
102
}
330
1AD
100
AcDbVisualStyle
  2
Hidden
 70
     6
 71
     1
 72
     2
 73
     2
 90
        0
 40
0.6
 41
30.0
 62
     5
 63
     7
421
 16777215
 74
     2
 91
        2
 64
     7
 65
   257
 75
     2
175
     1
 42
40.0
 92
        0
 66
   257
 43
1.0
 76
     1
 77
     6
 78
     2
 67
     7
 79
     3
170
     0
171
     0
290
     0
174
     0
 93
        1
 44
0.0
173
     0
291
     0
 45
0.0
  0
VISUALSTYLE
  5
1BE
102
{ACAD_REACTORS
330
1AD
102
}
330
1AD
100
AcDbVisualStyle
  2
JitterOff
 70
    20
 71
     2
 72
     2
 73
     0
 90
        0
 40
0.6
 41
30.0
 62
     5
 63
     7
421
 16777215
 74
     1
 91
        4
 64
     7
 65
   257
 75
     1
175
     1
 42
1.0
 92
       10
 66
     7
 43
1.0
 76
     1
 77
     6
 78
     2
 67
     7
 79
     5
170
     0
171
     0
290
     0
174
     0
 93
        1
 44
0.0
173
     0
291
     1
 45
0.0
  0
VISUALSTYLE
  5
1BB
102
{ACAD_REACTORS
330
1AD
102
}
330
1AD
100
AcDbVisualStyle
  2
Linepattern
 70
    14
 71
     2
 72
     2
 73
     0
 90
        0
 40
0.6
 41
30.0
 62
     5
 63
     7
421
 16777215
 74
     1
 91
        4
 64
     7
 65
   257
 75
     7
175
     7
 42
1.0
 92
        8
 66
     7
 43
1.0
 76
     1
 77
     6
 78
     2
 67
     7
 79
     5
170
     0
171
     0
290
     0
174
     0
 93
        1
 44
0.0
173
     0
291
     1
 45
0.0
  0
VISUALSTYLE
  5
1BF
102
{ACAD_REACTORS
330
1AD
102
}
330
1AD
100
AcDbVisualStyle
  2
OverhangOff
 70
    21
 71
     2
 72
     2
 73
     0
 90
        0
 40
0.6
 41
30.0
 62
     5
 63
     7
421
 16777215
 74
     1
 91
        4
 64
     7
 65
   257
 75
     1
175
     1
 42
1.0
 92
        9
 66
     7
 43
1.0
 76
     1
 77
     6
 78
     2
 67
     7
 79
     5
170
     0
171
     0
290
     0
174
     0
 93
        1
 44
0.0
173
     0
291
     1
 45
0.0
  0
VISUALSTYLE
  5
1B6
102
{ACAD_REACTORS
330
1AD
102
}
330
1AD
100
AcDbVisualStyle
  2
Realistic
 70
     8
 71
     2
 72
     3
 73
     0
 90
        2
 40
0.6
 41
30.0
 62
     5
 63
     7
421
 16777215
 74
     0
 91
        0
 64
     7
 65
   257
 75
     1
175
     1
 42
1.0
 92
        8
 66
   257
 43
1.0
 76
     1
 77
     6
 78
     2
 67
     7
 79
     3
170
     0
171
     0
290
     0
174
     0
 93
       13
 44
0.0
173
     0
291
     0
 45
0.0
  0
VISUALSTYLE
  5
1C5
102
{ACAD_REACTORS
330
1AD
102
}
330
1AD
100
AcDbVisualStyle
  2
Shaded
 70
    27
 71
     2
 72
     2
 73
     1
 90
        2
 40
0.6
 41
30.0
 62
     5
 63
     7
421
 16777215
 74
     0
 91
        4
 64
     7
 65
   257
 75
     1
175
     1
 42
1.0
 92
        8
 66
   257
 43
1.0
 76
     1
 77
     6
 78
     2
 67
     8
425
  7895160
 79
     3
170
     0
171
     0
290
     0
174
     0
 93
        5
 44
0.0
173
     0
291
     0
 45
0.0
  0
VISUALSTYLE
  5
1C4
102
{ACAD_REACTORS
330
1AD
102
}
330
1AD
100
AcDbVisualStyle
  2
Shaded with edges
 70
    26
 71
     2
 72
     2
 73
     1
 90
        2
 40
0.6
 41
30.0
 62
     5
 63
     7
421
 16777215
 74
     1
 91
       10
 64
     7
 65
   257
 75
     2
175
     1
 42
1.0
 92
        8
 66
   257
 43
1.0
 76
     1
 77
     6
 78
     2
 67
     7
 79
     3
170
     0
171
     0
290
     0
174
     0
 93
        5
 44
0.0
173
     0
291
     0
 45
0.0
  0
VISUALSTYLE
  5
1C1
102
{ACAD_REACTORS
330
1AD
102
}
330
1AD
100
AcDbVisualStyle
  2
Shades of Gray
 70
    23
 71
     2
 72
     2
 73
     3
 90
        0
 40
0.6
 41
30.0
 62
     5
 63
     7
421
 16777215
 74
     2
 91
        2
 64
     7
 65
     7
 75
     1
175
     1
 42
40.0
 92
        8
 66
     7
 43
1.0
 76
     1
 77
     6
 78
     2
 67
     7
 79
     3
170
     0
171
     0
290
     0
174
     0
 93
        1
 44
0.0
173
     0
291
     0
 45
0.0
  0
VISUALSTYLE
  5
1C2
102
{ACAD_REACTORS
330
1AD
102
}
330
1AD
100
AcDbVisualStyle
  2
Sketchy
 70
    24
 71
     1
 72
     2
 73
     2
 90
        0
 40
0.6
 41
30.0
 62
     5
 63
     7
421
 16777215
 74
     2
 91
        2
 64
     7
 65
     7
 75
     1
175
     1
 42
40.0
 92
       11
 66
     7
 43
1.0
 76
     1
 77
     6
 78
     2
 67
     7
 79
     6
170
     0
171
     0
290
     0
174
     0
 93
        1
 44
0.0
173
     0
291
     0
 45
0.0
  0
VISUALSTYLE
  5
1BA
102
{ACAD_REACTORS
330
1AD
102
}
330
1AD
100
AcDbVisualStyle
  2
Thicken
 70
    13
 71
     2
 72
     2
 73
     0
 90
        0
 40
0.6
 41
30.0
 62
     5
 63
     7
421
 16777215
 74
     1
 91
        4
 64
     7
 65
   257
 75
     1
175
     1
 42
1.0
 92
       12
 66
     7
 43
1.0
 76
     1
 77
     6
 78
     2
 67
     7
 79
     5
170
     0
171
     0
290
     0
174
     0
 93
        1
 44
0.0
173
     0
291
     1
 45
0.0
  0
VISUALSTYLE
  5
1B3
102
{ACAD_REACTORS
330
1AD
102
}
330
1AD
100
AcDbVisualStyle
  2
Wireframe
 70
     5
 71
     0
 72
     2
 73
     0
 90
        0
 40
0.6
 41
30.0
 62
     5
 63
     7
421
 16777215
 74
     1
 91
        4
 64
     7
 65
   257
 75
     1
175
     1
 42
1.0
 92
        0
 66
   257
 43
1.0
 76
     1
 77
     6
 78
     2
 67
     7
 79
     3
170
     0
171
     0
290
     0
174
     0
 93
        1
 44
0.0
173
     0
291
     0
 45
0.0
  0
VISUALSTYLE
  5
1C3
102
{ACAD_REACTORS
330
1AD
102
}
330
1AD
100
AcDbVisualStyle
  2
X-Ray
 70
    25
 71
     2
 72
     2
 73
     1
 90
        1
 40
0.5
 41
30.0
 62
     5
 63
     7
421
 16777215
 74
     1
 91
        0
 64
     7
 65
   257
 75
     1
175
     1
 42
1.0
 92
        8
 66
     7
 43
1.0
 76
     1
 77
     6
 78
     2
 67
     7
 79
     3
170
     0
171
     0
290
     0
174
     0
 93
       13
 44
0.0
173
     0
291
     0
 45
0.0
  0
DICTIONARYVAR
  5
1FD
102
{ACAD_REACTORS
330
1FC
102
}
330
1FC
100
DictionaryVariables
280
     0
  1
1:1
  0
DICTIONARYVAR
  5
1FF
102
{ACAD_REACTORS
330
1FC
102
}
330
1FC
100
DictionaryVariables
280
     0
  1
Standard
  0
DICTIONARYVAR
  5
1FE
102
{ACAD_REACTORS
330
1FC
102
}
330
1FC
100
DictionaryVariables
280
     0
  1
Standard
  0
DICTIONARYVAR
  5
200
102
{ACAD_REACTORS
330
1FC
102
}
330
1FC
100
DictionaryVariables
280
     0
  1
0
  0
DICTIONARY
  5
66A
330
1C7
100
AcDbDictionary
280
     1
281
     1
  3
ACAD_ROUNDTRIP_2008_TABLESTYLE_CELLSTYLEMAP
360
66B
  0
CELLSTYLEMAP
  5
66B
102
{ACAD_REACTORS
330
66A
102
}
330
66A
100
AcDbCellStyleMap
 90
        3
300
CELLSTYLE
  1
TABLEFORMAT_BEGIN
 90
        5
170
     1
 91
        0
 92
    32768
 62
   257
 93
        1
300
CONTENTFORMAT
  1
CONTENTFORMAT_BEGIN
 90
        0
 91
        0
 92
        4
 93
        0
300

 40
0.0
140
1.0
 94
        5
 62
     0
340
11
144
0.25
309
CONTENTFORMAT_END
171
     1
301
MARGIN
  1
CELLMARGIN_BEGIN
 40
0.06
 40
0.06
 40
0.06
 40
0.06
 40
0.06
 40
0.06
309
CELLMARGIN_END
 94
        6
 95
        1
302
GRIDFORMAT
  1
GRIDFORMAT_BEGIN
 90
        0
 91
        1
 62
     0
 92
       -2
340
14
 93
        0
 40
0.045
309
GRIDFORMAT_END
 95
        2
302
GRIDFORMAT
  1
GRIDFORMAT_BEGIN
 90
        0
 91
        1
 62
     0
 92
       -2
340
14
 93
        0
 40
0.045
309
GRIDFORMAT_END
 95
        4
302
GRIDFORMAT
  1
GRIDFORMAT_BEGIN
 90
        0
 91
        1
 62
     0
 92
       -2
340
14
 93
        0
 40
0.045
309
GRIDFORMAT_END
 95
        8
302
GRIDFORMAT
  1
GRIDFORMAT_BEGIN
 90
        0
 91
        1
 62
     0
 92
       -2
340
14
 93
        0
 40
0.045
309
GRIDFORMAT_END
 95
       16
302
GRIDFORMAT
  1
GRIDFORMAT_BEGIN
 90
        0
 91
        1
 62
     0
 92
       -2
340
14
 93
        0
 40
0.045
309
GRIDFORMAT_END
 95
       32
302
GRIDFORMAT
  1
GRIDFORMAT_BEGIN
 90
        0
 91
        1
 62
     0
 92
       -2
340
14
 93
        0
 40
0.045
309
GRIDFORMAT_END
309
TABLEFORMAT_END
  1
CELLSTYLE_BEGIN
 90
        1
 91
        1
300
_TITLE
309
CELLSTYLE_END
300
CELLSTYLE
  1
TABLEFORMAT_BEGIN
 90
        5
170
     1
 91
        0
 92
        0
 62
   257
 93
        1
300
CONTENTFORMAT
  1
CONTENTFORMAT_BEGIN
 90
        0
 91
        0
 92
        4
 93
        0
300

 40
0.0
140
1.0
 94
        5
 62
     0
340
11
144
0.18
309
CONTENTFORMAT_END
171
     1
301
MARGIN
  1
CELLMARGIN_BEGIN
 40
0.06
 40
0.06
 40
0.06
 40
0.06
 40
0.06
 40
0.06
309
CELLMARGIN_END
 94
        6
 95
        1
302
GRIDFORMAT
  1
GRIDFORMAT_BEGIN
 90
        0
 91
        1
 62
     0
 92
       -2
340
14
 93
        0
 40
0.045
309
GRIDFORMAT_END
 95
        2
302
GRIDFORMAT
  1
GRIDFORMAT_BEGIN
 90
        0
 91
        1
 62
     0
 92
       -2
340
14
 93
        0
 40
0.045
309
GRIDFORMAT_END
 95
        4
302
GRIDFORMAT
  1
GRIDFORMAT_BEGIN
 90
        0
 91
        1
 62
     0
 92
       -2
340
14
 93
        0
 40
0.045
309
GRIDFORMAT_END
 95
        8
302
GRIDFORMAT
  1
GRIDFORMAT_BEGIN
 90
        0
 91
        1
 62
     0
 92
       -2
340
14
 93
        0
 40
0.045
309
GRIDFORMAT_END
 95
       16
302
GRIDFORMAT
  1
GRIDFORMAT_BEGIN
 90
        0
 91
        1
 62
     0
 92
       -2
340
14
 93
        0
 40
0.045
309
GRIDFORMAT_END
 95
       32
302
GRIDFORMAT
  1
GRIDFORMAT_BEGIN
 90
        0
 91
        1
 62
     0
 92
       -2
340
14
 93
        0
 40
0.045
309
GRIDFORMAT_END
309
TABLEFORMAT_END
  1
CELLSTYLE_BEGIN
 90
        2
 91
        1
300
_HEADER
309
CELLSTYLE_END
300
CELLSTYLE
  1
TABLEFORMAT_BEGIN
 90
        5
170
     1
 91
        0
 92
        0
 62
   257
 93
        1
300
CONTENTFORMAT
  1
CONTENTFORMAT_BEGIN
 90
        0
 91
        0
 92
        4
 93
        0
300

 40
0.0
140
1.0
 94
        2
 62
     0
340
11
144
0.18
309
CONTENTFORMAT_END
171
     1
301
MARGIN
  1
CELLMARGIN_BEGIN
 40
0.06
 40
0.06
 40
0.06
 40
0.06
 40
0.06
 40
0.06
309
CELLMARGIN_END
 94
        6
 95
        1
302
GRIDFORMAT
  1
GRIDFORMAT_BEGIN
 90
        0
 91
        1
 62
     0
 92
       -2
340
14
 93
        0
 40
0.045
309
GRIDFORMAT_END
 95
        2
302
GRIDFORMAT
  1
GRIDFORMAT_BEGIN
 90
        0
 91
        1
 62
     0
 92
       -2
340
14
 93
        0
 40
0.045
309
GRIDFORMAT_END
 95
        4
302
GRIDFORMAT
  1
GRIDFORMAT_BEGIN
 90
        0
 91
        1
 62
     0
 92
       -2
340
14
 93
        0
 40
0.045
309
GRIDFORMAT_END
 95
        8
302
GRIDFORMAT
  1
GRIDFORMAT_BEGIN
 90
        0
 91
        1
 62
     0
 92
       -2
340
14
 93
        0
 40
0.045
309
GRIDFORMAT_END
 95
       16
302
GRIDFORMAT
  1
GRIDFORMAT_BEGIN
 90
        0
 91
        1
 62
     0
 92
       -2
340
14
 93
        0
 40
0.045
309
GRIDFORMAT_END
 95
       32
302
GRIDFORMAT
  1
GRIDFORMAT_BEGIN
 90
        0
 91
        1
 62
     0
 92
       -2
340
14
 93
        0
 40
0.045
309
GRIDFORMAT_END
309
TABLEFORMAT_END
  1
CELLSTYLE_BEGIN
 90
        3
 91
        2
300
_DATA
309
CELLSTYLE_END
  0
ENDSEC
  0
EOF
